Sarastrada-Bold.ufo
<glyph name="exclam" format="2">
  <advance width="280"/>
  <unicode hex="0021"/>
  <outline>
    <contour>
      <point x="110" y="232" type="line"/>
      <point x="170" y="232" type="line"/>
      <point x="250" y="750" type="line"/>
      <point x="154" y="750"/>
      <point x="110" y="695"/>
      <point x="110" y="642" type="curve"/>
      <point x="170" y="642" type="line"/>
      <point x="170" y="695"/>
      <point x="126" y="750"/>
      <point x="30" y="750" type="curve"/>
    </contour>
    <component base="period" xOffset="7" yOffset="-8"/>
  </outline>
</glyph>
<glyph name="numbersign" format="2">
  <advance width="685"/>
  <unicode hex="0023"/>
  <outline>
    <contour>
      <point x="311" y="-23" type="line"/>
      <point x="401" y="-23" type="line"/>
      <point x="571" y="680" type="line"/>
      <point x="481" y="680" type="line"/>
    </contour>
    <contour>
      <point x="30" y="130" type="curve"/>
      <point x="595" y="130" type="line"/>
      <point x="595" y="195"/>
      <point x="564" y="222"/>
      <point x="534" y="222" type="curve"/>
      <point x="534" y="188" type="line"/>
      <point x="564" y="188"/>
      <point x="595" y="215"/>
      <point x="595" y="280" type="curve"/>
      <point x="30" y="280" type="line"/>
      <point x="30" y="215"/>
      <point x="61" y="188"/>
      <point x="91" y="188" type="curve"/>
      <point x="91" y="222" type="line"/>
      <point x="61" y="222"/>
      <point x="30" y="195"/>
    </contour>
    <contour>
      <point x="104" y="-23" type="line"/>
      <point x="194" y="-23" type="line"/>
      <point x="364" y="680" type="line"/>
      <point x="274" y="680" type="line"/>
    </contour>
    <contour>
      <point x="90" y="369" type="curve"/>
      <point x="655" y="369" type="line"/>
      <point x="655" y="434"/>
      <point x="624" y="461"/>
      <point x="594" y="461" type="curve"/>
      <point x="594" y="427" type="line"/>
      <point x="624" y="427"/>
      <point x="655" y="454"/>
      <point x="655" y="519" type="curve"/>
      <point x="90" y="519" type="line"/>
      <point x="90" y="454"/>
      <point x="121" y="427"/>
      <point x="151" y="427" type="curve"/>
      <point x="151" y="461" type="line"/>
      <point x="121" y="461"/>
      <point x="90" y="434"/>
    </contour>
  </outline>
</glyph>
<glyph name="dollar" format="2">
  <advance width="452"/>
  <unicode hex="0024"/>
  <outline>
    <contour>
      <point x="220" y="60" type="curve" smooth="yes"/>
      <point x="320" y="60"/>
      <point x="421" y="106"/>
      <point x="422" y="272" type="curve" smooth="yes"/>
      <point x="422" y="329"/>
      <point x="415" y="376"/>
      <point x="219" y="376" type="curve"/>
      <point x="219" y="325" type="line"/>
      <point x="357" y="325"/>
      <point x="372" y="313"/>
      <point x="372" y="280" type="curve" smooth="yes"/>
      <point x="372" y="250"/>
      <point x="357" y="240"/>
      <point x="219" y="240" type="curve" smooth="yes"/>
      <point x="115" y="240"/>
      <point x="70" y="250"/>
      <point x="70" y="277" type="curve"/>
      <point x="20" y="277" type="line"/>
      <point x="19" y="96"/>
      <point x="123" y="60"/>
    </contour>
    <contour>
      <point x="191" y="-60" type="line"/>
      <point x="251" y="-60" type="line"/>
      <point x="250" y="119" type="line"/>
      <point x="190" y="119" type="line"/>
    </contour>
    <contour>
      <point x="219" y="325" type="curve"/>
      <point x="219" y="376" type="line"/>
      <point x="85" y="376"/>
      <point x="70" y="388"/>
      <point x="70" y="412" type="curve" smooth="yes"/>
      <point x="70" y="438"/>
      <point x="85" y="450"/>
      <point x="219" y="450" type="curve" smooth="yes"/>
      <point x="367" y="450"/>
      <point x="372" y="435"/>
      <point x="372" y="403" type="curve"/>
      <point x="422" y="403" type="line"/>
      <point x="422" y="594"/>
      <point x="318" y="630"/>
      <point x="221" y="630" type="curve" smooth="yes"/>
      <point x="121" y="630"/>
      <point x="20" y="584"/>
      <point x="20" y="438" type="curve" smooth="yes"/>
      <point x="20" y="361"/>
      <point x="38" y="325"/>
    </contour>
    <contour>
      <point x="191" y="591" type="line"/>
      <point x="251" y="591" type="line"/>
      <point x="251" y="750" type="line"/>
      <point x="191" y="750" type="line"/>
    </contour>
  </outline>
</glyph>
<glyph name="percent" format="2">
  <advance width="943"/>
  <unicode hex="0025"/>
  <outline>
    <contour>
      <point x="746" y="0" type="curve" smooth="yes"/>
      <point x="852" y="0"/>
      <point x="923" y="87"/>
      <point x="923" y="229" type="curve" smooth="yes"/>
      <point x="923" y="371"/>
      <point x="852" y="457"/>
      <point x="746" y="457" type="curve" smooth="yes"/>
      <point x="634" y="457"/>
      <point x="565" y="373"/>
      <point x="565" y="229" type="curve" smooth="yes"/>
      <point x="565" y="85"/>
      <point x="634" y="0"/>
    </contour>
    <contour>
      <point x="201" y="292" type="curve" smooth="yes"/>
      <point x="307" y="292"/>
      <point x="378" y="379"/>
      <point x="378" y="521" type="curve" smooth="yes"/>
      <point x="378" y="663"/>
      <point x="307" y="749"/>
      <point x="201" y="749" type="curve" smooth="yes"/>
      <point x="89" y="749"/>
      <point x="20" y="665"/>
      <point x="20" y="521" type="curve" smooth="yes"/>
      <point x="20" y="377"/>
      <point x="89" y="292"/>
    </contour>
    <contour>
      <point x="124" y="436" type="curve" smooth="yes"/>
      <point x="100" y="436"/>
      <point x="81" y="452"/>
      <point x="81" y="474" type="curve" smooth="yes"/>
      <point x="81" y="526"/>
      <point x="220" y="605"/>
      <point x="274" y="605" type="curve" smooth="yes"/>
      <point x="299" y="605"/>
      <point x="317" y="588"/>
      <point x="317" y="566" type="curve" smooth="yes"/>
      <point x="317" y="515"/>
      <point x="177" y="436"/>
    </contour>
    <contour>
      <point x="669" y="144" type="curve" smooth="yes"/>
      <point x="645" y="144"/>
      <point x="626" y="160"/>
      <point x="626" y="182" type="curve" smooth="yes"/>
      <point x="626" y="234"/>
      <point x="765" y="313"/>
      <point x="819" y="313" type="curve" smooth="yes"/>
      <point x="844" y="313"/>
      <point x="862" y="296"/>
      <point x="862" y="274" type="curve" smooth="yes"/>
      <point x="862" y="223"/>
      <point x="722" y="144"/>
    </contour>
    <component base="fraction" xOffset="220"/>
  </outline>
</glyph>
<glyph name="ampersand" format="2">
  <advance width="712"/>
  <unicode hex="0026"/>
  <outline>
    <contour>
      <point x="236" y="-10" type="curve" smooth="yes"/>
      <point x="362" y="-10"/>
      <point x="428" y="28"/>
      <point x="428" y="170" type="curve"/>
      <point x="306" y="140" type="line"/>
      <point x="530" y="140"/>
      <point x="580" y="209"/>
      <point x="580" y="274" type="curve"/>
      <point x="520" y="274" type="line"/>
      <point x="520" y="193"/>
      <point x="466" y="190"/>
      <point x="306" y="190" type="curve" smooth="yes"/>
      <point x="151" y="190"/>
      <point x="91" y="203"/>
      <point x="91" y="252" type="curve" smooth="yes"/>
      <point x="91" y="362"/>
      <point x="388" y="231"/>
      <point x="388" y="470" type="curve" smooth="yes"/>
      <point x="388" y="596"/>
      <point x="357" y="688"/>
      <point x="259" y="688" type="curve" smooth="yes"/>
      <point x="157" y="688"/>
      <point x="120" y="598"/>
      <point x="120" y="440" type="curve" smooth="yes"/>
      <point x="120" y="262"/>
      <point x="269" y="154"/>
      <point x="470" y="154" type="curve"/>
      <point x="367" y="170" type="line"/>
      <point x="367" y="28"/>
      <point x="566" y="-10"/>
      <point x="680" y="-10" type="curve"/>
      <point x="680" y="34"/>
      <point x="656" y="117"/>
      <point x="575" y="117" type="curve"/>
      <point x="575" y="64" type="line"/>
      <point x="656" y="64"/>
      <point x="680" y="147"/>
      <point x="680" y="191" type="curve"/>
      <point x="425" y="191"/>
      <point x="180" y="180"/>
      <point x="180" y="440" type="curve" smooth="yes"/>
      <point x="180" y="480"/>
      <point x="198" y="508"/>
      <point x="257" y="508" type="curve" smooth="yes"/>
      <point x="316" y="508"/>
      <point x="328" y="473"/>
      <point x="328" y="431" type="curve" smooth="yes"/>
      <point x="328" y="313"/>
      <point x="31" y="462"/>
      <point x="31" y="222" type="curve" smooth="yes"/>
      <point x="31" y="72"/>
      <point x="104" y="-10"/>
    </contour>
    <component base="serif_sup_izq" xOffset="398"/>
    <component base="serif_sup_der" xOffset="398"/>
  </outline>
</glyph>
<glyph name="quotesingle" format="2">
  <advance width="291"/>
  <unicode hex="0027"/>
  <outline>
    <contour>
      <point x="103" y="579" type="line"/>
      <point x="188" y="579" type="line"/>
      <point x="281" y="775" type="line"/>
      <point x="162" y="775"/>
      <point x="117" y="723"/>
      <point x="117" y="669" type="curve"/>
      <point x="174" y="669" type="line"/>
      <point x="174" y="723"/>
      <point x="129" y="775"/>
      <point x="10" y="775" type="curve"/>
    </contour>
  </outline>
</glyph>
<glyph name="parenright" format="2">
  <advance width="235"/>
  <unicode hex="0029"/>
  <outline>
    <contour>
      <point x="20" y="-220" type="line"/>
      <point x="21" y="-220"/>
      <point x="205" y="-110"/>
      <point x="205" y="257" type="curve" smooth="yes"/>
      <point x="205" y="665"/>
      <point x="21" y="739"/>
      <point x="20" y="740" type="curve"/>
      <point x="20" y="540" type="line"/>
      <point x="21" y="540"/>
      <point x="146" y="502"/>
      <point x="145" y="258" type="curve" smooth="yes"/>
      <point x="144" y="16"/>
      <point x="21" y="-22"/>
      <point x="20" y="-22" type="curve"/>
    </contour>
  </outline>
</glyph>
<glyph name="asterisk" format="2">
  <advance width="410"/>
  <unicode hex="002A"/>
  <outline>
    <contour>
      <point x="238" y="388" type="line"/>
      <point x="296" y="429"/>
      <point x="299" y="472"/>
      <point x="281" y="497" type="curve"/>
      <point x="252" y="477" type="line"/>
      <point x="272" y="451"/>
      <point x="313" y="443"/>
      <point x="370" y="484" type="curve"/>
      <point x="211" y="576" type="line"/>
      <point x="199" y="567" type="line"/>
    </contour>
    <contour>
      <point x="171" y="388" type="curve"/>
      <point x="211" y="567" type="line"/>
      <point x="199" y="576" type="line"/>
      <point x="40" y="484" type="line"/>
      <point x="98" y="442"/>
      <point x="140" y="450"/>
      <point x="158" y="475" type="curve"/>
      <point x="129" y="496" type="line"/>
      <point x="111" y="471"/>
      <point x="114" y="429"/>
    </contour>
    <contour>
      <point x="20" y="547" type="curve"/>
      <point x="206" y="565" type="line"/>
      <point x="204" y="580" type="line"/>
      <point x="71" y="702" type="line"/>
      <point x="48" y="634"/>
      <point x="69" y="598"/>
      <point x="100" y="588" type="curve"/>
      <point x="111" y="621" type="line"/>
      <point x="80" y="631"/>
      <point x="42" y="614"/>
    </contour>
    <contour>
      <point x="196" y="572" type="line"/>
      <point x="214" y="572" type="line"/>
      <point x="286" y="741" type="line"/>
      <point x="215" y="741"/>
      <point x="187" y="709"/>
      <point x="187" y="678" type="curve"/>
      <point x="222" y="678" type="line"/>
      <point x="222" y="709"/>
      <point x="194" y="741"/>
      <point x="124" y="741" type="curve"/>
    </contour>
    <contour>
      <point x="390" y="547" type="line"/>
      <point x="368" y="615"/>
      <point x="330" y="632"/>
      <point x="299" y="622" type="curve"/>
      <point x="310" y="589" type="line"/>
      <point x="341" y="599"/>
      <point x="361" y="635"/>
      <point x="339" y="702" type="curve"/>
      <point x="206" y="580" type="line"/>
      <point x="204" y="565" type="line"/>
    </contour>
  </outline>
</glyph>
<glyph name="plus" format="2">
  <advance width="506"/>
  <unicode hex="002B"/>
  <outline>
    <contour>
      <point x="32" y="201" type="curve"/>
      <point x="476" y="201" type="line"/>
      <point x="476" y="279"/>
      <point x="438" y="311"/>
      <point x="402" y="311" type="curve"/>
      <point x="402" y="271" type="line"/>
      <point x="438" y="271"/>
      <point x="476" y="303"/>
      <point x="476" y="381" type="curve"/>
      <point x="32" y="381" type="line"/>
      <point x="32" y="303"/>
      <point x="69" y="271"/>
      <point x="105" y="271" type="curve"/>
      <point x="105" y="311" type="line"/>
      <point x="69" y="311"/>
      <point x="32" y="279"/>
    </contour>
    <contour>
      <point x="189" y="62" type="line"/>
      <point x="319" y="62" type="line"/>
      <point x="319" y="520" type="line"/>
      <point x="189" y="520" type="line"/>
    </contour>
  </outline>
</glyph>
<glyph name="comma" format="2">
  <advance width="258"/>
  <unicode hex="002C"/>
  <outline>
    <contour>
      <point x="20" y="-98" type="line"/>
      <point x="136" y="-98"/>
      <point x="238" y="-16"/>
      <point x="238" y="101" type="curve" smooth="yes"/>
      <point x="238" y="161"/>
      <point x="189" y="210"/>
      <point x="129" y="210" type="curve" smooth="yes"/>
      <point x="69" y="210"/>
      <point x="20" y="161"/>
      <point x="20" y="101" type="curve" smooth="yes"/>
      <point x="20" y="39"/>
      <point x="69" y="-8"/>
      <point x="129" y="-8" type="curve"/>
      <point x="123" y="48" type="line"/>
      <point x="123" y="-22"/>
      <point x="64" y="-38"/>
      <point x="20" y="-38" type="curve"/>
    </contour>
  </outline>
</glyph>
<glyph name="hyphen" format="2">
  <advance width="414"/>
  <unicode hex="002D"/>
  <outline>
    <contour>
      <point x="30" y="201" type="curve"/>
      <point x="384" y="201" type="line"/>
      <point x="384" y="279"/>
      <point x="346" y="311"/>
      <point x="310" y="311" type="curve"/>
      <point x="310" y="271" type="line"/>
      <point x="346" y="271"/>
      <point x="384" y="303"/>
      <point x="384" y="381" type="curve"/>
      <point x="30" y="381" type="line"/>
      <point x="30" y="303"/>
      <point x="67" y="271"/>
      <point x="103" y="271" type="curve"/>
      <point x="103" y="311" type="line"/>
      <point x="67" y="311"/>
      <point x="30" y="279"/>
    </contour>
  </outline>
</glyph>
<glyph name="period" format="2">
  <advance width="268"/>
  <unicode hex="002E"/>
  <outline>
    <contour>
      <point x="134" y="0" type="curve" smooth="yes"/>
      <point x="186" y="0"/>
      <point x="228" y="42"/>
      <point x="228" y="94" type="curve" smooth="yes"/>
      <point x="228" y="146"/>
      <point x="186" y="188"/>
      <point x="134" y="188" type="curve" smooth="yes"/>
      <point x="82" y="188"/>
      <point x="40" y="146"/>
      <point x="40" y="94" type="curve" smooth="yes"/>
      <point x="40" y="42"/>
      <point x="82" y="0"/>
    </contour>
  </outline>
</glyph>
<glyph name="slash" format="2">
  <advance width="376"/>
  <unicode hex="002F"/>
  <outline>
    <contour>
      <point x="30" y="-59" type="line"/>
      <point x="130" y="-59" type="line"/>
      <point x="346" y="750" type="line"/>
      <point x="246" y="750" type="line"/>
    </contour>
  </outline>
</glyph>
<glyph name="zero" format="2">
  <advance width="494"/>
  <unicode hex="0030"/>
  <outline>
    <contour>
      <point x="247" y="-10" type="curve" smooth="yes"/>
      <point x="362" y="-10"/>
      <point x="454" y="103"/>
      <point x="454" y="337" type="curve" smooth="yes"/>
      <point x="454" y="586"/>
      <point x="361" y="689"/>
      <point x="245" y="689" type="curve" smooth="yes"/>
      <point x="131" y="689"/>
      <point x="40" y="583"/>
      <point x="40" y="337" type="curve" smooth="yes"/>
      <point x="40" y="103"/>
      <point x="132" y="-10"/>
    </contour>
    <contour>
      <point x="293" y="197" type="curve" smooth="yes"/>
      <point x="173" y="197"/>
      <point x="89" y="251"/>
      <point x="89" y="364" type="curve" smooth="yes"/>
      <point x="89" y="422"/>
      <point x="127" y="482"/>
      <point x="202" y="482" type="curve" smooth="yes"/>
      <point x="321" y="482"/>
      <point x="405" y="428"/>
      <point x="405" y="316" type="curve" smooth="yes"/>
      <point x="405" y="258"/>
      <point x="367" y="197"/>
    </contour>
  </outline>
</glyph>
<glyph name="one" format="2">
  <advance width="392"/>
  <unicode hex="0031"/>
  <anchor x="222" y="0" name="bottom"/>
  <anchor x="222" y="520" name="top"/>
  <outline>
    <contour>
      <point x="191" y="168" type="line"/>
      <point x="251" y="168" type="line"/>
      <point x="251" y="682" type="line"/>
      <point x="191" y="682" type="line"/>
    </contour>
    <contour>
      <point x="40" y="437" type="line"/>
      <point x="251" y="437" type="line"/>
      <point x="251" y="680" type="line"/>
      <point x="140" y="680" type="line"/>
    </contour>
    <contour>
      <point x="191" y="361" type="curve"/>
      <point x="251" y="361" type="line"/>
      <point x="251" y="495" type="line"/>
      <point x="191" y="495" type="line"/>
      <point x="100" y="437" type="line"/>
      <point x="162" y="437"/>
      <point x="191" y="409"/>
    </contour>
    <component base="serif_inf_der" xOffset="69"/>
    <component base="serif_inf_izq" xOffset="69"/>
  </outline>
</glyph>
<glyph name="two" format="2">
  <advance width="490"/>
  <unicode hex="0032"/>
  <outline>
    <contour>
      <point x="41" y="0" type="line"/>
      <point x="186" y="0" type="line" smooth="yes"/>
      <point x="301" y="0"/>
      <point x="348" y="55"/>
      <point x="348" y="108" type="curve"/>
      <point x="288" y="108" type="line"/>
      <point x="288" y="55"/>
      <point x="335" y="0"/>
      <point x="450" y="0" type="curve"/>
      <point x="450" y="200" type="line"/>
      <point x="108" y="200" type="line"/>
      <point x="108" y="44" type="line"/>
      <point x="108" y="185"/>
      <point x="202" y="219"/>
      <point x="292" y="261" type="curve" smooth="yes"/>
      <point x="373" y="300"/>
      <point x="452" y="323"/>
      <point x="452" y="417" type="curve" smooth="yes"/>
      <point x="452" y="599"/>
      <point x="415" y="690"/>
      <point x="243" y="690" type="curve" smooth="yes"/>
      <point x="65" y="690"/>
      <point x="42" y="599"/>
      <point x="42" y="441" type="curve"/>
      <point x="102" y="441" type="line"/>
      <point x="102" y="461"/>
      <point x="125" y="489"/>
      <point x="247" y="489" type="curve" smooth="yes"/>
      <point x="369" y="489"/>
      <point x="392" y="463"/>
      <point x="392" y="417" type="curve" smooth="yes"/>
      <point x="392" y="369"/>
      <point x="336" y="354"/>
      <point x="268" y="322" type="curve" smooth="yes"/>
      <point x="167" y="274"/>
      <point x="41" y="233"/>
      <point x="41" y="35" type="curve"/>
    </contour>
    <contour>
      <point x="390" y="143" type="line"/>
      <point x="450" y="143" type="line"/>
      <point x="450" y="241" type="line"/>
      <point x="390" y="241" type="line"/>
    </contour>
  </outline>
</glyph>
<glyph name="three" format="2">
  <advance width="470"/>
  <unicode hex="0033"/>
  <outline>
    <contour>
      <point x="235" y="-8" type="curve" smooth="yes"/>
      <point x="365" y="-8"/>
      <point x="430" y="56"/>
      <point x="430" y="232" type="curve" smooth="yes"/>
      <point x="430" y="358"/>
      <point x="365" y="372"/>
      <point x="185" y="371" type="curve"/>
      <point x="185" y="311" type="line"/>
      <point x="329" y="311"/>
      <point x="362" y="305"/>
      <point x="362" y="255" type="curve" smooth="yes"/>
      <point x="362" y="205"/>
      <point x="329" y="193"/>
      <point x="232" y="193" type="curve" smooth="yes"/>
      <point x="132" y="193"/>
      <point x="102" y="205"/>
      <point x="102" y="241" type="curve"/>
      <point x="40" y="241" type="line"/>
      <point x="40" y="56"/>
      <point x="105" y="-8"/>
    </contour>
    <contour>
      <point x="40" y="440" type="line"/>
      <point x="100" y="440" type="line"/>
      <point x="100" y="538" type="line"/>
      <point x="40" y="538" type="line"/>
    </contour>
    <contour>
      <point x="40" y="480" type="line"/>
      <point x="202" y="480" type="line"/>
      <point x="202" y="572" type="line"/>
      <point x="202" y="625"/>
      <point x="155" y="680"/>
      <point x="40" y="680" type="curve"/>
    </contour>
    <contour>
      <point x="223" y="325" type="line"/>
      <point x="223" y="325"/>
      <point x="413" y="480"/>
      <point x="413" y="480" type="curve"/>
      <point x="413" y="680" type="line"/>
      <point x="304" y="680" type="line" smooth="yes"/>
      <point x="189" y="680"/>
      <point x="142" y="625"/>
      <point x="142" y="572" type="curve" smooth="yes"/>
      <point x="142" y="480" type="line"/>
      <point x="335" y="480" type="line"/>
      <point x="351" y="504" type="line"/>
      <point x="351" y="504"/>
      <point x="180" y="371"/>
      <point x="185" y="371" type="curve"/>
    </contour>
  </outline>
</glyph>
<glyph name="four" format="2">
  <advance width="541"/>
  <unicode hex="0034"/>
  <guideline x="101" y="538" angle="67.8337"/>
  <outline>
    <contour>
      <point x="40" y="391" type="line"/>
      <point x="337" y="626" type="line"/>
      <point x="337" y="690" type="line"/>
      <point x="40" y="455" type="line"/>
    </contour>
    <contour>
      <point x="40" y="255" type="line"/>
      <point x="396" y="255" type="line"/>
      <point x="396" y="455" type="line"/>
      <point x="40" y="455" type="line"/>
      <point x="40" y="363" type="line"/>
    </contour>
    <contour>
      <point x="498" y="255" type="curve"/>
      <point x="498" y="455" type="line"/>
      <point x="336" y="455" type="line"/>
      <point x="336" y="363" type="line"/>
      <point x="336" y="310"/>
      <point x="383" y="255"/>
    </contour>
    <contour>
      <point x="337" y="166" type="line"/>
      <point x="397" y="166" type="line"/>
      <point x="397" y="690" type="line"/>
      <point x="337" y="690" type="line"/>
    </contour>
    <component base="serif_inf_der" xOffset="216"/>
    <component base="serif_inf_izq" xOffset="216"/>
  </outline>
</glyph>
<glyph name="five" format="2">
  <advance width="449"/>
  <unicode hex="0035"/>
  <outline>
    <contour>
      <point x="223" y="-8" type="curve" smooth="yes"/>
      <point x="365" y="-8"/>
      <point x="409" y="86"/>
      <point x="409" y="232" type="curve" smooth="yes"/>
      <point x="409" y="318"/>
      <point x="365" y="392"/>
      <point x="214" y="391" type="curve"/>
      <point x="65" y="391" type="line"/>
      <point x="59" y="331" type="line"/>
      <point x="214" y="331" type="line"/>
      <point x="298" y="331"/>
      <point x="341" y="320"/>
      <point x="341" y="259" type="curve" smooth="yes"/>
      <point x="341" y="199"/>
      <point x="308" y="192"/>
      <point x="214" y="192" type="curve" smooth="yes"/>
      <point x="138" y="192"/>
      <point x="101" y="199"/>
      <point x="101" y="241" type="curve"/>
      <point x="39" y="241" type="line"/>
      <point x="39" y="86"/>
      <point x="65" y="-8"/>
    </contour>
    <contour>
      <point x="59" y="330" type="line"/>
      <point x="114" y="381" type="line"/>
      <point x="114" y="439"/>
      <point x="114" y="486"/>
      <point x="114" y="514" type="curve"/>
      <point x="97" y="480" type="line"/>
      <point x="402" y="480" type="line"/>
      <point x="402" y="680" type="line"/>
      <point x="287" y="680"/>
      <point x="240" y="625"/>
      <point x="240" y="572" type="curve"/>
      <point x="300" y="572" type="line"/>
      <point x="300" y="625"/>
      <point x="253" y="680"/>
      <point x="138" y="680" type="curve" smooth="yes"/>
      <point x="59" y="680" type="line"/>
    </contour>
    <contour>
      <point x="342" y="440" type="line"/>
      <point x="402" y="440" type="line"/>
      <point x="402" y="538" type="line"/>
      <point x="342" y="538" type="line"/>
    </contour>
  </outline>
</glyph>
<glyph name="six" format="2">
  <advance width="462"/>
  <unicode hex="0036"/>
  <outline>
    <contour>
      <point x="237" y="-10" type="curve" smooth="yes"/>
      <point x="369" y="-10"/>
      <point x="422" y="89"/>
      <point x="422" y="206" type="curve" smooth="yes"/>
      <point x="422" y="332"/>
      <point x="359" y="410"/>
      <point x="237" y="410" type="curve" smooth="yes"/>
      <point x="122" y="410"/>
      <point x="94" y="339"/>
      <point x="94" y="285" type="curve"/>
      <point x="40" y="256" type="line"/>
      <point x="40" y="89"/>
      <point x="95" y="-10"/>
    </contour>
    <contour>
      <point x="101" y="163" type="line"/>
      <point x="101" y="381" type="line"/>
      <point x="41" y="381" type="line"/>
      <point x="40" y="256" type="line"/>
    </contour>
    <contour>
      <point x="237" y="190" type="curve" smooth="yes"/>
      <point x="121" y="190"/>
      <point x="101" y="220"/>
      <point x="101" y="261" type="curve" smooth="yes"/>
      <point x="101" y="289"/>
      <point x="121" y="350"/>
      <point x="237" y="350" type="curve" smooth="yes"/>
      <point x="344" y="350"/>
      <point x="362" y="289"/>
      <point x="362" y="260" type="curve" smooth="yes"/>
      <point x="362" y="215"/>
      <point x="344" y="190"/>
    </contour>
    <contour>
      <point x="101" y="332" type="line"/>
      <point x="101" y="361" type="line" smooth="yes"/>
      <point x="101" y="470"/>
      <point x="132" y="490"/>
      <point x="221" y="490" type="curve" smooth="yes"/>
      <point x="330" y="490"/>
      <point x="341" y="470"/>
      <point x="341" y="440" type="curve"/>
      <point x="402" y="440" type="line"/>
      <point x="402" y="622"/>
      <point x="342" y="690"/>
      <point x="221" y="690" type="curve" smooth="yes"/>
      <point x="100" y="690"/>
      <point x="41" y="622"/>
      <point x="41" y="432" type="curve" smooth="yes"/>
      <point x="41" y="342" type="line"/>
    </contour>
  </outline>
</glyph>
<glyph name="seven" format="2">
  <advance width="533"/>
  <unicode hex="0037"/>
  <outline>
    <contour>
      <point x="156" y="0" type="curve"/>
      <point x="353" y="0" type="line"/>
      <point x="353" y="61" type="line"/>
      <point x="329" y="61"/>
      <point x="275" y="96"/>
      <point x="275" y="185" type="curve" smooth="yes"/>
      <point x="275" y="327"/>
      <point x="493" y="480"/>
      <point x="493" y="480" type="curve"/>
      <point x="493" y="680" type="line"/>
      <point x="284" y="680" type="line" smooth="yes"/>
      <point x="169" y="680"/>
      <point x="142" y="625"/>
      <point x="142" y="572" type="curve"/>
      <point x="202" y="572" type="line"/>
      <point x="202" y="625"/>
      <point x="155" y="680"/>
      <point x="40" y="680" type="curve"/>
      <point x="40" y="480" type="line"/>
      <point x="405" y="480" type="line"/>
      <point x="492" y="560" type="line"/>
      <point x="492" y="560"/>
      <point x="156" y="359"/>
    </contour>
    <contour>
      <point x="40" y="440" type="line"/>
      <point x="100" y="440" type="line"/>
      <point x="100" y="538" type="line"/>
      <point x="40" y="538" type="line"/>
    </contour>
  </outline>
</glyph>
<glyph name="eight" format="2">
  <advance width="482"/>
  <unicode hex="0038"/>
  <outline>
    <contour>
      <point x="243" y="-10" type="curve" smooth="yes"/>
      <point x="357" y="-11"/>
      <point x="442" y="91"/>
      <point x="442" y="240" type="curve" smooth="yes"/>
      <point x="442" y="309"/>
      <point x="357" y="371"/>
      <point x="243" y="370" type="curve" smooth="yes"/>
      <point x="120" y="369"/>
      <point x="40" y="309"/>
      <point x="40" y="240" type="curve" smooth="yes"/>
      <point x="40" y="91"/>
      <point x="120" y="-9"/>
    </contour>
    <contour>
      <point x="243" y="190" type="curve" smooth="yes"/>
      <point x="150" y="190"/>
      <point x="100" y="205"/>
      <point x="100" y="240" type="curve" smooth="yes"/>
      <point x="100" y="275"/>
      <point x="150" y="310"/>
      <point x="243" y="310" type="curve" smooth="yes"/>
      <point x="327" y="310"/>
      <point x="382" y="275"/>
      <point x="382" y="240" type="curve" smooth="yes"/>
      <point x="382" y="205"/>
      <point x="327" y="190"/>
    </contour>
    <contour>
      <point x="243" y="370" type="curve" smooth="yes"/>
      <point x="150" y="370"/>
      <point x="130" y="405"/>
      <point x="130" y="470" type="curve" smooth="yes"/>
      <point x="130" y="485"/>
      <point x="150" y="500"/>
      <point x="243" y="500" type="curve" smooth="yes"/>
      <point x="327" y="500"/>
      <point x="352" y="485"/>
      <point x="352" y="460" type="curve" smooth="yes"/>
      <point x="352" y="405"/>
      <point x="327" y="370"/>
    </contour>
    <contour>
      <point x="243" y="321" type="curve" smooth="yes"/>
      <point x="333" y="320"/>
      <point x="412" y="369"/>
      <point x="412" y="458" type="curve" smooth="yes"/>
      <point x="412" y="587"/>
      <point x="357" y="689"/>
      <point x="243" y="688" type="curve" smooth="yes"/>
      <point x="120" y="687"/>
      <point x="70" y="587"/>
      <point x="70" y="458" type="curve" smooth="yes"/>
      <point x="70" y="369"/>
      <point x="156" y="322"/>
    </contour>
  </outline>
</glyph>
<glyph name="nine" format="2">
  <advance width="462"/>
  <unicode hex="0039"/>
  <outline>
    <contour>
      <point x="228" y="230" type="curve" smooth="yes"/>
      <point x="342" y="230"/>
      <point x="368" y="321"/>
      <point x="368" y="395" type="curve"/>
      <point x="422" y="424" type="line"/>
      <point x="422" y="591"/>
      <point x="368" y="690"/>
      <point x="227" y="690" type="curve" smooth="yes"/>
      <point x="94" y="690"/>
      <point x="40" y="591"/>
      <point x="40" y="474" type="curve" smooth="yes"/>
      <point x="40" y="321"/>
      <point x="115" y="230"/>
    </contour>
    <contour>
      <point x="231" y="-10" type="curve" smooth="yes"/>
      <point x="362" y="-10"/>
      <point x="421" y="58"/>
      <point x="421" y="248" type="curve" smooth="yes"/>
      <point x="421" y="338" type="line"/>
      <point x="361" y="338" type="line"/>
      <point x="361" y="319" type="line" smooth="yes"/>
      <point x="361" y="210"/>
      <point x="312" y="190"/>
      <point x="221" y="190" type="curve" smooth="yes"/>
      <point x="127" y="190"/>
      <point x="101" y="210"/>
      <point x="101" y="241" type="curve"/>
      <point x="40" y="241" type="line"/>
      <point x="40" y="58"/>
      <point x="100" y="-10"/>
    </contour>
    <contour>
      <point x="228" y="290" type="curve" smooth="yes"/>
      <point x="120" y="290"/>
      <point x="100" y="381"/>
      <point x="100" y="420" type="curve" smooth="yes"/>
      <point x="100" y="465"/>
      <point x="119" y="490"/>
      <point x="227" y="490" type="curve" smooth="yes"/>
      <point x="342" y="490"/>
      <point x="361" y="460"/>
      <point x="361" y="419" type="curve" smooth="yes"/>
      <point x="361" y="381"/>
      <point x="343" y="290"/>
    </contour>
    <contour>
      <point x="361" y="299" type="line"/>
      <point x="421" y="299" type="line"/>
      <point x="422" y="424" type="line"/>
      <point x="361" y="517" type="line"/>
    </contour>
  </outline>
</glyph>
<glyph name="equal" format="2">
  <advance width="506"/>
  <unicode hex="003D"/>
  <outline>
    <contour>
      <point x="34" y="343" type="curve"/>
      <point x="472" y="343" type="line"/>
      <point x="472" y="399"/>
      <point x="443" y="423"/>
      <point x="417" y="423" type="curve"/>
      <point x="417" y="394" type="line"/>
      <point x="443" y="394"/>
      <point x="472" y="417"/>
      <point x="472" y="475" type="curve"/>
      <point x="34" y="475" type="line"/>
      <point x="34" y="417"/>
      <point x="62" y="394"/>
      <point x="88" y="394" type="curve"/>
      <point x="88" y="423" type="line"/>
      <point x="62" y="423"/>
      <point x="34" y="399"/>
    </contour>
    <contour>
      <point x="34" y="156" type="curve"/>
      <point x="472" y="156" type="line"/>
      <point x="472" y="214"/>
      <point x="443" y="237"/>
      <point x="417" y="237" type="curve"/>
      <point x="417" y="208" type="line"/>
      <point x="443" y="208"/>
      <point x="472" y="232"/>
      <point x="472" y="288" type="curve"/>
      <point x="34" y="288" type="line"/>
      <point x="34" y="232"/>
      <point x="62" y="208"/>
      <point x="88" y="208" type="curve"/>
      <point x="88" y="237" type="line"/>
      <point x="62" y="237"/>
      <point x="34" y="214"/>
    </contour>
  </outline>
</glyph>
<glyph name="greater" format="2">
  <advance width="536"/>
  <unicode hex="003E"/>
  <outline>
    <contour>
      <point x="24" y="22" type="line"/>
      <point x="513" y="187" type="line"/>
      <point x="513" y="367" type="line"/>
      <point x="24" y="532" type="line"/>
      <point x="24" y="431" type="line"/>
      <point x="25" y="342"/>
      <point x="275" y="285"/>
      <point x="438" y="285" type="curve"/>
      <point x="438" y="269" type="line"/>
      <point x="275" y="269"/>
      <point x="25" y="212"/>
      <point x="24" y="123" type="curve"/>
    </contour>
  </outline>
</glyph>
<glyph name="question" format="2">
  <advance width="470"/>
  <unicode hex="003F"/>
  <outline>
    <contour>
      <point x="185" y="245" type="curve"/>
      <point x="245" y="245" type="line"/>
      <point x="245" y="349"/>
      <point x="440" y="270"/>
      <point x="440" y="497" type="curve" smooth="yes"/>
      <point x="440" y="648"/>
      <point x="405" y="750"/>
      <point x="235" y="750" type="curve" smooth="yes"/>
      <point x="65" y="750"/>
      <point x="30" y="648"/>
      <point x="30" y="497" type="curve"/>
      <point x="78" y="497" type="line"/>
      <point x="78" y="521"/>
      <point x="104" y="549"/>
      <point x="230" y="549" type="curve" smooth="yes"/>
      <point x="356" y="549"/>
      <point x="380" y="521"/>
      <point x="380" y="461" type="curve" smooth="yes"/>
      <point x="380" y="355"/>
      <point x="185" y="405"/>
    </contour>
    <contour>
      <point x="215" y="-10" type="curve"/>
      <point x="269" y="-10"/>
      <point x="313" y="34"/>
      <point x="313" y="88" type="curve" smooth="yes"/>
      <point x="313" y="142"/>
      <point x="269" y="186"/>
      <point x="215" y="186" type="curve" smooth="yes"/>
      <point x="161" y="186"/>
      <point x="117" y="142"/>
      <point x="117" y="88" type="curve" smooth="yes"/>
      <point x="117" y="34"/>
      <point x="161" y="-10"/>
    </contour>
  </outline>
</glyph>
<glyph name="at" format="2">
  <advance width="813"/>
  <unicode hex="0040"/>
  <outline>
    <contour>
      <point x="348" y="-230" type="curve" smooth="yes"/>
      <point x="379" y="-230"/>
      <point x="506" y="-230"/>
      <point x="593" y="-230" type="curve"/>
      <point x="622" y="-62" type="line"/>
      <point x="535" y="-62"/>
      <point x="405" y="-62"/>
      <point x="367" y="-62" type="curve" smooth="yes"/>
      <point x="196" y="-62"/>
      <point x="100" y="5"/>
      <point x="100" y="161" type="curve" smooth="yes"/>
      <point x="100" y="399"/>
      <point x="217" y="580"/>
      <point x="450" y="580" type="curve" smooth="yes"/>
      <point x="604" y="580"/>
      <point x="713" y="527"/>
      <point x="713" y="362" type="curve" smooth="yes"/>
      <point x="713" y="281"/>
      <point x="686" y="190"/>
      <point x="633" y="190" type="curve" smooth="yes"/>
      <point x="593" y="190"/>
      <point x="574" y="198"/>
      <point x="574" y="229" type="curve" smooth="yes"/>
      <point x="574" y="235"/>
      <point x="575" y="241"/>
      <point x="576" y="248" type="curve" smooth="yes"/>
      <point x="578" y="260" type="line"/>
      <point x="518" y="260" type="line"/>
      <point x="507" y="197"/>
      <point x="499" y="143"/>
      <point x="499" y="101" type="curve" smooth="yes"/>
      <point x="499" y="34"/>
      <point x="519" y="-10"/>
      <point x="577" y="-10" type="curve" smooth="yes"/>
      <point x="721" y="-10"/>
      <point x="773" y="250"/>
      <point x="773" y="451" type="curve" smooth="yes"/>
      <point x="773" y="661"/>
      <point x="684" y="750"/>
      <point x="478" y="750" type="curve" smooth="yes"/>
      <point x="167" y="750"/>
      <point x="40" y="448"/>
      <point x="40" y="96" type="curve" smooth="yes"/>
      <point x="40" y="-116"/>
      <point x="130" y="-230"/>
    </contour>
    <contour>
      <point x="378" y="190" type="curve" smooth="yes"/>
      <point x="279" y="190"/>
      <point x="255" y="208"/>
      <point x="255" y="242" type="curve" smooth="yes"/>
      <point x="255" y="316"/>
      <point x="311" y="330"/>
      <point x="402" y="330" type="curve" smooth="yes"/>
      <point x="497" y="330"/>
      <point x="519" y="307"/>
      <point x="519" y="274" type="curve" smooth="yes"/>
      <point x="519" y="208"/>
      <point x="463" y="190"/>
    </contour>
    <contour>
      <point x="313" y="-10" type="curve" smooth="yes"/>
      <point x="438" y="-10"/>
      <point x="520" y="131"/>
      <point x="532" y="203" type="curve"/>
      <point x="591" y="335" type="line"/>
      <point x="594" y="352"/>
      <point x="596" y="368"/>
      <point x="596" y="383" type="curve" smooth="yes"/>
      <point x="596" y="468"/>
      <point x="548" y="530"/>
      <point x="456" y="530" type="curve" smooth="yes"/>
      <point x="294" y="530"/>
      <point x="189" y="354"/>
      <point x="189" y="174" type="curve" smooth="yes"/>
      <point x="189" y="74"/>
      <point x="226" y="-10"/>
    </contour>
    <contour>
      <point x="514" y="236" type="line"/>
      <point x="574" y="236" type="line"/>
      <point x="591" y="335" type="line"/>
      <point x="535" y="357" type="line"/>
    </contour>
  </outline>
</glyph>
<glyph name="A" format="2">
  <advance width="660"/>
  <unicode hex="0041"/>
  <anchor x="324" y="0" name="bottom"/>
  <anchor x="630" y="0" name="ogonek"/>
  <anchor x="334" y="680" name="top"/>
  <outline>
    <contour>
      <point x="495" y="176" type="line"/>
      <point x="545" y="176" type="line"/>
      <point x="404" y="461" type="line"/>
      <point x="385" y="480" type="line"/>
      <point x="325" y="480" type="line"/>
      <point x="455" y="216" type="line"/>
    </contour>
    <contour>
      <point x="30" y="0" type="line"/>
      <point x="106" y="0"/>
      <point x="192" y="34"/>
      <point x="192" y="106" type="curve"/>
      <point x="132" y="106" type="line"/>
      <point x="132" y="34"/>
      <point x="213" y="0"/>
      <point x="294" y="0" type="curve"/>
      <point x="294" y="200" type="line"/>
      <point x="30" y="200" type="line"/>
    </contour>
    <contour>
      <point x="117" y="176" type="line"/>
      <point x="167" y="176" type="line"/>
      <point x="206" y="216" type="line"/>
      <point x="335" y="480" type="line"/>
      <point x="275" y="480" type="line"/>
      <point x="256" y="462" type="line"/>
    </contour>
    <contour>
      <point x="366" y="0" type="line"/>
      <point x="447" y="0"/>
      <point x="528" y="34"/>
      <point x="528" y="106" type="curve"/>
      <point x="468" y="106" type="line"/>
      <point x="468" y="34"/>
      <point x="554" y="0"/>
      <point x="630" y="0" type="curve"/>
      <point x="630" y="200" type="line"/>
      <point x="366" y="200" type="line"/>
    </contour>
    <contour>
      <point x="188" y="261" type="line"/>
      <point x="468" y="261" type="line"/>
      <point x="468" y="319" type="line"/>
      <point x="188" y="319" type="line"/>
    </contour>
    <contour>
      <point x="198" y="480" type="line"/>
      <point x="462" y="480" type="line"/>
      <point x="462" y="680" type="line"/>
      <point x="381" y="680"/>
      <point x="300" y="646"/>
      <point x="300" y="574" type="curve"/>
      <point x="360" y="574" type="line"/>
      <point x="360" y="646"/>
      <point x="274" y="680"/>
      <point x="198" y="680" type="curve"/>
    </contour>
  </outline>
</glyph>
<glyph name="B" format="2">
  <advance width="593"/>
  <unicode hex="0042"/>
  <anchor x="310" y="0" name="bottom"/>
  <anchor x="310" y="680" name="top"/>
  <outline>
    <contour>
      <point x="342" y="-10" type="curve" smooth="yes"/>
      <point x="482" y="-10"/>
      <point x="543" y="86"/>
      <point x="543" y="220" type="curve" smooth="yes"/>
      <point x="543" y="307"/>
      <point x="503" y="347"/>
      <point x="443" y="347" type="curve"/>
      <point x="443" y="333" type="line"/>
      <point x="503" y="333"/>
      <point x="543" y="363"/>
      <point x="543" y="450" type="curve" smooth="yes"/>
      <point x="543" y="584"/>
      <point x="482" y="690"/>
      <point x="342" y="690" type="curve" smooth="yes"/>
      <point x="192" y="690"/>
      <point x="152" y="538"/>
      <point x="152" y="437" type="curve"/>
      <point x="192" y="397" type="line"/>
      <point x="193" y="470"/>
      <point x="245" y="490"/>
      <point x="351" y="490" type="curve" smooth="yes"/>
      <point x="441" y="490"/>
      <point x="483" y="465"/>
      <point x="483" y="425" type="curve" smooth="yes"/>
      <point x="483" y="385"/>
      <point x="459" y="371"/>
      <point x="351" y="370" type="curve" smooth="yes"/>
      <point x="182" y="369" type="line"/>
      <point x="182" y="311" type="line"/>
      <point x="351" y="310" type="line" smooth="yes"/>
      <point x="459" y="309"/>
      <point x="483" y="291"/>
      <point x="483" y="250" type="curve" smooth="yes"/>
      <point x="483" y="209"/>
      <point x="441" y="190"/>
      <point x="351" y="190" type="curve" smooth="yes"/>
      <point x="245" y="190"/>
      <point x="193" y="200"/>
      <point x="192" y="273" type="curve"/>
      <point x="152" y="225" type="line"/>
      <point x="152" y="122"/>
      <point x="192" y="-10"/>
    </contour>
    <contour>
      <point x="30" y="0" type="line"/>
      <point x="152" y="0"/>
      <point x="192" y="32"/>
      <point x="192" y="135" type="curve" smooth="yes"/>
      <point x="192" y="142"/>
      <point x="192" y="203"/>
      <point x="192" y="246" type="curve"/>
      <point x="132" y="246" type="line"/>
      <point x="132" y="211"/>
      <point x="116" y="200"/>
      <point x="30" y="200" type="curve"/>
    </contour>
    <contour>
      <point x="132" y="164" type="line"/>
      <point x="192" y="164" type="line"/>
      <point x="192" y="537" type="line"/>
      <point x="132" y="537" type="line"/>
    </contour>
    <contour>
      <point x="132" y="434" type="curve"/>
      <point x="192" y="434" type="line"/>
      <point x="192" y="477"/>
      <point x="192" y="538"/>
      <point x="192" y="545" type="curve" smooth="yes"/>
      <point x="192" y="648"/>
      <point x="152" y="680"/>
      <point x="30" y="680" type="curve"/>
      <point x="30" y="480" type="line"/>
      <point x="116" y="480"/>
      <point x="132" y="469"/>
    </contour>
  </outline>
</glyph>
<glyph name="C" format="2">
  <advance width="526"/>
  <unicode hex="0043"/>
  <anchor x="268" y="0" name="bottom"/>
  <anchor x="286" y="680" name="top"/>
  <outline>
    <contour>
      <point x="270" y="-10" type="curve" smooth="yes"/>
      <point x="421" y="-10"/>
      <point x="486" y="63"/>
      <point x="486" y="241" type="curve"/>
      <point x="425" y="241" type="line"/>
      <point x="425" y="211"/>
      <point x="403" y="190"/>
      <point x="270" y="190" type="curve" smooth="yes"/>
      <point x="176" y="190"/>
      <point x="85" y="200"/>
      <point x="85" y="336" type="curve" smooth="yes"/>
      <point x="85" y="482"/>
      <point x="176" y="490"/>
      <point x="270" y="490" type="curve" smooth="yes"/>
      <point x="403" y="490"/>
      <point x="425" y="478"/>
      <point x="425" y="440" type="curve"/>
      <point x="486" y="440" type="line"/>
      <point x="486" y="608"/>
      <point x="379" y="691"/>
      <point x="270" y="690" type="curve" smooth="yes"/>
      <point x="139" y="689"/>
      <point x="35" y="644"/>
      <point x="35" y="334" type="curve" smooth="yes"/>
      <point x="35" y="35"/>
      <point x="139" y="-10"/>
    </contour>
    <contour>
      <point x="486" y="440" type="line"/>
      <point x="486" y="680" type="line"/>
      <point x="371" y="680"/>
      <point x="324" y="625"/>
      <point x="324" y="572" type="curve"/>
      <point x="414" y="570" type="line"/>
    </contour>
  </outline>
</glyph>
<glyph name="D" format="2">
  <advance width="580"/>
  <unicode hex="0044"/>
  <anchor x="283" y="0" name="bottom"/>
  <anchor x="283" y="340" name="center"/>
  <anchor x="283" y="680" name="top"/>
  <outline>
    <contour>
      <point x="349" y="-10" type="curve" smooth="yes"/>
      <point x="470" y="-10"/>
      <point x="545" y="119"/>
      <point x="545" y="343" type="curve" smooth="yes"/>
      <point x="545" y="621"/>
      <point x="470" y="689"/>
      <point x="349" y="690" type="curve" smooth="yes"/>
      <point x="224" y="691"/>
      <point x="143" y="590"/>
      <point x="143" y="359" type="curve"/>
      <point x="192" y="359" type="line"/>
      <point x="192" y="460"/>
      <point x="237" y="490"/>
      <point x="329" y="490" type="curve" smooth="yes"/>
      <point x="413" y="490"/>
      <point x="497" y="482"/>
      <point x="495" y="342" type="curve" smooth="yes"/>
      <point x="493" y="198"/>
      <point x="413" y="190"/>
      <point x="329" y="190" type="curve" smooth="yes"/>
      <point x="237" y="190"/>
      <point x="192" y="220"/>
      <point x="192" y="321" type="curve"/>
      <point x="143" y="321" type="line"/>
      <point x="143" y="38"/>
      <point x="210" y="-10"/>
    </contour>
    <contour>
      <point x="30" y="0" type="line"/>
      <point x="152" y="0"/>
      <point x="192" y="32"/>
      <point x="192" y="135" type="curve" smooth="yes"/>
      <point x="192" y="142"/>
      <point x="197" y="246"/>
      <point x="192" y="246" type="curve" smooth="yes"/>
      <point x="132" y="246" type="line"/>
      <point x="132" y="211"/>
      <point x="116" y="200"/>
      <point x="30" y="200" type="curve"/>
    </contour>
    <contour>
      <point x="132" y="164" type="line"/>
      <point x="192" y="164" type="line"/>
      <point x="192" y="547" type="line"/>
      <point x="132" y="547" type="line"/>
    </contour>
    <contour>
      <point x="132" y="434" type="curve"/>
      <point x="192" y="434" type="line"/>
      <point x="192" y="545" type="line" smooth="yes"/>
      <point x="192" y="648"/>
      <point x="152" y="680"/>
      <point x="30" y="680" type="curve"/>
      <point x="30" y="480" type="line"/>
      <point x="116" y="480"/>
      <point x="132" y="469"/>
    </contour>
  </outline>
</glyph>
<glyph name="E" format="2">
  <advance width="553"/>
  <unicode hex="0045"/>
  <anchor x="306" y="0" name="bottom"/>
  <anchor x="473" y="0" name="ogonek"/>
  <anchor x="306" y="680" name="top"/>
  <anchor x="30" y="691" name="topleft"/>
  <outline>
    <contour>
      <point x="162" y="480" type="line"/>
      <point x="523" y="480" type="line"/>
      <point x="523" y="680" type="line"/>
      <point x="324" y="680" type="line" smooth="yes"/>
      <point x="179" y="680"/>
      <point x="162" y="625"/>
      <point x="162" y="505" type="curve" smooth="yes"/>
    </contour>
    <contour>
      <point x="324" y="0" type="curve" smooth="yes"/>
      <point x="523" y="0" type="line"/>
      <point x="523" y="200" type="line"/>
      <point x="162" y="200" type="line"/>
      <point x="162" y="175" type="line" smooth="yes"/>
      <point x="162" y="55"/>
      <point x="179" y="0"/>
    </contour>
    <contour>
      <point x="30" y="0" type="line"/>
      <point x="145" y="1"/>
      <point x="192" y="56"/>
      <point x="192" y="109" type="curve" smooth="yes"/>
      <point x="192" y="201" type="line"/>
      <point x="30" y="201" type="line"/>
    </contour>
    <contour>
      <point x="132" y="142" type="line"/>
      <point x="192" y="142" type="line"/>
      <point x="294" y="200" type="line"/>
      <point x="208" y="200"/>
      <point x="192" y="211"/>
      <point x="192" y="256" type="curve"/>
      <point x="132" y="256" type="line"/>
      <point x="132" y="211"/>
      <point x="116" y="200"/>
      <point x="30" y="200" type="curve"/>
    </contour>
    <contour>
      <point x="132" y="166" type="line"/>
      <point x="192" y="166" type="line"/>
      <point x="192" y="507" type="line"/>
      <point x="132" y="507" type="line"/>
    </contour>
    <contour>
      <point x="157" y="310" type="line"/>
      <point x="393" y="310" type="line"/>
      <point x="393" y="370" type="line"/>
      <point x="157" y="370" type="line"/>
    </contour>
    <contour>
      <point x="132" y="424" type="curve"/>
      <point x="192" y="424" type="line"/>
      <point x="192" y="469"/>
      <point x="248" y="480"/>
      <point x="334" y="480" type="curve"/>
      <point x="192" y="538" type="line"/>
      <point x="132" y="538" type="line"/>
      <point x="30" y="480" type="line"/>
      <point x="116" y="480"/>
      <point x="132" y="469"/>
    </contour>
    <contour>
      <point x="30" y="480" type="line"/>
      <point x="192" y="480" type="line"/>
      <point x="192" y="572" type="line" smooth="yes"/>
      <point x="192" y="625"/>
      <point x="145" y="680"/>
      <point x="30" y="680" type="curve"/>
    </contour>
    <contour>
      <point x="463" y="192" type="line"/>
      <point x="523" y="192" type="line"/>
      <point x="523" y="251" type="line"/>
      <point x="463" y="251" type="line"/>
    </contour>
    <contour>
      <point x="463" y="430" type="line"/>
      <point x="523" y="430" type="line"/>
      <point x="523" y="508" type="line"/>
      <point x="463" y="508" type="line"/>
    </contour>
  </outline>
</glyph>
<glyph name="F" format="2">
  <advance width="543"/>
  <unicode hex="0046"/>
  <anchor x="222" y="0" name="bottom"/>
  <anchor x="222" y="680" name="top"/>
  <outline>
    <contour>
      <point x="162" y="480" type="line"/>
      <point x="513" y="480" type="line"/>
      <point x="513" y="680" type="line"/>
      <point x="294" y="680" type="line"/>
      <point x="179" y="680"/>
      <point x="162" y="625"/>
      <point x="162" y="522" type="curve"/>
    </contour>
    <contour>
      <point x="132" y="166" type="line"/>
      <point x="192" y="166" type="line"/>
      <point x="192" y="507" type="line"/>
      <point x="132" y="507" type="line"/>
    </contour>
    <contour>
      <point x="157" y="294" type="line"/>
      <point x="393" y="294" type="line"/>
      <point x="393" y="354" type="line"/>
      <point x="157" y="354" type="line"/>
    </contour>
    <contour>
      <point x="132" y="424" type="curve"/>
      <point x="192" y="424" type="line"/>
      <point x="192" y="469"/>
      <point x="208" y="480"/>
      <point x="294" y="480" type="curve"/>
      <point x="192" y="538" type="line"/>
      <point x="132" y="538" type="line"/>
      <point x="30" y="480" type="line"/>
      <point x="116" y="480"/>
      <point x="132" y="469"/>
    </contour>
    <contour>
      <point x="30" y="480" type="line"/>
      <point x="192" y="480" type="line"/>
      <point x="192" y="572" type="line"/>
      <point x="192" y="625"/>
      <point x="145" y="680"/>
      <point x="30" y="680" type="curve"/>
    </contour>
    <contour>
      <point x="453" y="430" type="line"/>
      <point x="513" y="430" type="line"/>
      <point x="513" y="508" type="line"/>
      <point x="453" y="508" type="line"/>
    </contour>
    <component base="serif_inf_der" xOffset="10"/>
    <component base="serif_inf_izq" xOffset="10"/>
  </outline>
</glyph>
<glyph name="H" format="2">
  <advance width="642"/>
  <unicode hex="0048"/>
  <anchor x="321" y="0" name="bottom"/>
  <anchor x="321" y="340" name="center"/>
  <anchor x="321" y="680" name="top"/>
  <anchor x="30" y="680" name="topleft"/>
  <outline>
    <contour>
      <point x="450" y="55" type="line"/>
      <point x="510" y="55" type="line"/>
      <point x="510" y="567" type="line"/>
      <point x="450" y="567" type="line"/>
    </contour>
    <contour>
      <point x="132" y="55" type="line"/>
      <point x="192" y="55" type="line"/>
      <point x="192" y="567" type="line"/>
      <point x="132" y="567" type="line"/>
    </contour>
    <contour>
      <point x="157" y="304" type="line"/>
      <point x="504" y="304" type="line"/>
      <point x="504" y="364" type="line"/>
      <point x="157" y="364" type="line"/>
    </contour>
    <component base="serif_sup_izq" xOffset="10" yOffset="160"/>
    <component base="serif_sup_der" xOffset="10" yOffset="160"/>
    <component base="serif_inf_der" xOffset="10"/>
    <component base="serif_inf_izq" xOffset="10"/>
    <component base="serif_sup_izq" xOffset="328" yOffset="160"/>
    <component base="serif_sup_der" xOffset="328" yOffset="160"/>
    <component base="serif_inf_der" xOffset="328"/>
    <component base="serif_inf_izq" xOffset="328"/>
  </outline>
</glyph>
<glyph name="I" format="2">
  <advance width="508"/>
  <unicode hex="0049"/>
  <anchor x="254" y="0" name="bottom"/>
  <anchor x="477" y="-1" name="ogonek"/>
  <anchor x="264" y="680" name="top"/>
  <anchor x="30" y="680" name="topleft"/>
  <outline>
    <contour>
      <point x="132" y="480" type="line"/>
      <point x="376" y="480" type="line"/>
      <point x="376" y="572" type="line" smooth="yes"/>
      <point x="376" y="625"/>
      <point x="329" y="680"/>
      <point x="254" y="680" type="curve" smooth="yes"/>
      <point x="179" y="680"/>
      <point x="132" y="625"/>
      <point x="132" y="572" type="curve" smooth="yes"/>
    </contour>
    <contour>
      <point x="30" y="0" type="line"/>
      <point x="145" y="0"/>
      <point x="192" y="55"/>
      <point x="192" y="108" type="curve"/>
      <point x="192" y="200" type="line"/>
      <point x="30" y="200" type="line"/>
    </contour>
    <contour>
      <point x="30" y="153" type="line"/>
      <point x="90" y="153" type="line"/>
      <point x="90" y="241" type="line"/>
      <point x="30" y="241" type="line"/>
    </contour>
    <contour>
      <point x="254" y="0" type="curve" smooth="yes"/>
      <point x="329" y="0"/>
      <point x="376" y="55"/>
      <point x="376" y="108" type="curve" smooth="yes"/>
      <point x="376" y="200" type="line"/>
      <point x="132" y="200" type="line"/>
      <point x="132" y="108" type="line" smooth="yes"/>
      <point x="132" y="55"/>
      <point x="179" y="0"/>
    </contour>
    <contour>
      <point x="224" y="142" type="line"/>
      <point x="284" y="142" type="line"/>
      <point x="386" y="200" type="line"/>
      <point x="300" y="200"/>
      <point x="284" y="211"/>
      <point x="284" y="256" type="curve"/>
      <point x="224" y="256" type="line"/>
      <point x="224" y="211"/>
      <point x="208" y="200"/>
      <point x="122" y="200" type="curve"/>
    </contour>
    <contour>
      <point x="478" y="0" type="curve"/>
      <point x="478" y="200" type="line"/>
      <point x="316" y="200" type="line"/>
      <point x="316" y="108" type="line"/>
      <point x="316" y="55"/>
      <point x="363" y="0"/>
    </contour>
    <contour>
      <point x="30" y="430" type="line"/>
      <point x="90" y="430" type="line"/>
      <point x="90" y="528" type="line"/>
      <point x="30" y="528" type="line"/>
    </contour>
    <contour>
      <point x="224" y="166" type="line"/>
      <point x="284" y="166" type="line"/>
      <point x="284" y="507" type="line"/>
      <point x="224" y="507" type="line"/>
    </contour>
    <contour>
      <point x="418" y="153" type="line"/>
      <point x="478" y="153" type="line"/>
      <point x="478" y="241" type="line"/>
      <point x="418" y="241" type="line"/>
    </contour>
    <contour>
      <point x="30" y="480" type="line"/>
      <point x="192" y="480" type="line"/>
      <point x="192" y="572" type="line"/>
      <point x="192" y="625"/>
      <point x="145" y="680"/>
      <point x="30" y="680" type="curve"/>
    </contour>
    <contour>
      <point x="224" y="424" type="curve"/>
      <point x="284" y="424" type="line"/>
      <point x="284" y="469"/>
      <point x="300" y="480"/>
      <point x="386" y="480" type="curve"/>
      <point x="284" y="538" type="line"/>
      <point x="224" y="538" type="line"/>
      <point x="122" y="480" type="line"/>
      <point x="208" y="480"/>
      <point x="224" y="469"/>
    </contour>
    <contour>
      <point x="418" y="430" type="line"/>
      <point x="478" y="430" type="line"/>
      <point x="478" y="528" type="line"/>
      <point x="418" y="528" type="line"/>
    </contour>
    <contour>
      <point x="316" y="480" type="line"/>
      <point x="478" y="480" type="line"/>
      <point x="478" y="680" type="line"/>
      <point x="363" y="680"/>
      <point x="316" y="625"/>
      <point x="316" y="572" type="curve"/>
    </contour>
  </outline>
</glyph>
<glyph name="J" format="2">
  <advance width="542"/>
  <unicode hex="004A"/>
  <anchor x="287" y="0" name="bottom"/>
  <anchor x="287" y="680" name="top"/>
  <outline>
    <contour>
      <point x="220" y="-20" type="curve" smooth="yes"/>
      <point x="355" y="-20"/>
      <point x="410" y="29"/>
      <point x="410" y="269" type="curve"/>
      <point x="350" y="269" type="line"/>
      <point x="350" y="197"/>
      <point x="313" y="182"/>
      <point x="220" y="182" type="curve" smooth="yes"/>
      <point x="117" y="182"/>
      <point x="90" y="197"/>
      <point x="90" y="241" type="curve"/>
      <point x="30" y="241" type="line"/>
      <point x="30" y="29"/>
      <point x="85" y="-20"/>
    </contour>
    <contour>
      <point x="30" y="430" type="line"/>
      <point x="90" y="430" type="line"/>
      <point x="90" y="528" type="line"/>
      <point x="30" y="528" type="line"/>
    </contour>
    <contour>
      <point x="350" y="249" type="line"/>
      <point x="410" y="249" type="line"/>
      <point x="410" y="461" type="line"/>
      <point x="350" y="461" type="line"/>
    </contour>
    <contour>
      <point x="30" y="480" type="line"/>
      <point x="370" y="480" type="line"/>
      <point x="370" y="632"/>
      <point x="354" y="680"/>
      <point x="203" y="680" type="curve" smooth="yes"/>
      <point x="30" y="680" type="line"/>
    </contour>
    <contour>
      <point x="350" y="424" type="curve"/>
      <point x="410" y="424" type="line"/>
      <point x="410" y="469"/>
      <point x="426" y="480"/>
      <point x="512" y="480" type="curve"/>
      <point x="410" y="538" type="line"/>
      <point x="350" y="538" type="line"/>
      <point x="248" y="480" type="line"/>
      <point x="334" y="480"/>
      <point x="350" y="469"/>
    </contour>
    <contour>
      <point x="350" y="480" type="line"/>
      <point x="512" y="480" type="line"/>
      <point x="512" y="680" type="line"/>
      <point x="397" y="680"/>
      <point x="350" y="625"/>
      <point x="350" y="572" type="curve" smooth="yes"/>
    </contour>
  </outline>
</glyph>
<glyph name="K" format="2">
  <advance width="652"/>
  <unicode hex="004B"/>
  <anchor x="327" y="0" name="bottom"/>
  <anchor x="312" y="680" name="top"/>
  <outline>
    <contour>
      <point x="507" y="167" type="line"/>
      <point x="519" y="200" type="line"/>
      <point x="152" y="426" type="line"/>
      <point x="152" y="341" type="line"/>
      <point x="319" y="243" type="line"/>
    </contour>
    <contour>
      <point x="132" y="119" type="line"/>
      <point x="192" y="119" type="line"/>
      <point x="192" y="437" type="line"/>
      <point x="132" y="551" type="line"/>
    </contour>
    <contour>
      <point x="356" y="0" type="line"/>
      <point x="438" y="0"/>
      <point x="518" y="29"/>
      <point x="518" y="116" type="curve"/>
      <point x="458" y="116" type="line"/>
      <point x="458" y="29"/>
      <point x="540" y="0"/>
      <point x="620" y="0" type="curve"/>
      <point x="620" y="200" type="line"/>
      <point x="356" y="200" type="line"/>
    </contour>
    <contour>
      <point x="278" y="293" type="line"/>
      <point x="358" y="293" type="line"/>
      <point x="523" y="480" type="line"/>
      <point x="453" y="480" type="line"/>
      <point x="428" y="457" type="line"/>
    </contour>
    <contour>
      <point x="358" y="480" type="line"/>
      <point x="622" y="480" type="line"/>
      <point x="622" y="680" type="line"/>
      <point x="547" y="680"/>
      <point x="460" y="655"/>
      <point x="460" y="564" type="curve"/>
      <point x="520" y="564" type="line"/>
      <point x="520" y="655"/>
      <point x="430" y="680"/>
      <point x="358" y="680" type="curve"/>
    </contour>
    <component base="serif_sup_izq" xOffset="10" yOffset="160"/>
    <component base="serif_sup_der" xOffset="10" yOffset="160"/>
    <component base="serif_inf_der" xOffset="10"/>
    <component base="serif_inf_izq" xOffset="10"/>
  </outline>
</glyph>
<glyph name="L" format="2">
  <advance width="553"/>
  <unicode hex="004C"/>
  <anchor x="217" y="0" name="bottom"/>
  <anchor x="157" y="340" name="center"/>
  <anchor x="162" y="680" name="top"/>
  <anchor x="263" y="680" name="topright"/>
  <outline>
    <contour>
      <point x="294" y="2" type="curve"/>
      <point x="523" y="2" type="line"/>
      <point x="523" y="202" type="line"/>
      <point x="162" y="202" type="line"/>
      <point x="162" y="140" type="line" smooth="yes"/>
      <point x="162" y="58"/>
      <point x="179" y="2"/>
    </contour>
    <contour>
      <point x="30" y="1" type="line"/>
      <point x="145" y="2"/>
      <point x="192" y="57"/>
      <point x="192" y="110" type="curve"/>
      <point x="192" y="202" type="line"/>
      <point x="30" y="202" type="line"/>
    </contour>
    <contour>
      <point x="132" y="144" type="line"/>
      <point x="192" y="144" type="line"/>
      <point x="294" y="202" type="line"/>
      <point x="208" y="202"/>
      <point x="192" y="213"/>
      <point x="192" y="258" type="curve"/>
      <point x="132" y="258" type="line"/>
      <point x="132" y="213"/>
      <point x="116" y="202"/>
      <point x="30" y="202" type="curve"/>
    </contour>
    <contour>
      <point x="132" y="166" type="line"/>
      <point x="192" y="166" type="line"/>
      <point x="192" y="507" type="line"/>
      <point x="132" y="507" type="line"/>
    </contour>
    <contour>
      <point x="463" y="192" type="line"/>
      <point x="523" y="192" type="line"/>
      <point x="523" y="241" type="line"/>
      <point x="463" y="241" type="line"/>
    </contour>
    <component base="serif_sup_izq" xOffset="10" yOffset="160"/>
    <component base="serif_sup_der" xOffset="10" yOffset="160"/>
  </outline>
</glyph>
<glyph name="M" format="2">
  <advance width="942"/>
  <unicode hex="004D"/>
  <guideline x="299" y="300" angle="117.9301"/>
  <anchor x="472" y="0" name="bottom"/>
  <anchor x="472" y="680" name="top"/>
  <outline>
    <contour>
      <point x="768" y="185" type="line"/>
      <point x="819" y="185" type="line"/>
      <point x="709" y="462" type="line"/>
      <point x="665" y="522" type="line"/>
      <point x="614" y="522" type="line"/>
      <point x="736" y="215" type="line"/>
    </contour>
    <contour>
      <point x="30" y="0" type="line"/>
      <point x="106" y="0"/>
      <point x="192" y="34"/>
      <point x="192" y="106" type="curve"/>
      <point x="132" y="106" type="line"/>
      <point x="132" y="34"/>
      <point x="213" y="0"/>
      <point x="294" y="0" type="curve"/>
      <point x="294" y="200" type="line"/>
      <point x="30" y="200" type="line"/>
    </contour>
    <contour>
      <point x="339" y="0" type="line"/>
      <point x="415" y="0"/>
      <point x="501" y="34"/>
      <point x="501" y="106" type="curve"/>
      <point x="441" y="106" type="line"/>
      <point x="441" y="34"/>
      <point x="522" y="0"/>
      <point x="603" y="0" type="curve"/>
      <point x="603" y="200" type="line"/>
      <point x="339" y="200" type="line"/>
    </contour>
    <contour>
      <point x="123" y="185" type="line"/>
      <point x="174" y="185" type="line"/>
      <point x="206" y="215" type="line"/>
      <point x="328" y="522" type="line"/>
      <point x="277" y="522" type="line"/>
      <point x="233" y="462" type="line"/>
    </contour>
    <contour>
      <point x="414" y="190" type="line"/>
      <point x="473" y="190" type="line"/>
      <point x="467" y="241" type="line"/>
      <point x="390" y="461" type="line"/>
      <point x="349" y="522" type="line"/>
      <point x="298" y="522" type="line"/>
    </contour>
    <contour>
      <point x="648" y="0" type="line"/>
      <point x="729" y="0"/>
      <point x="810" y="34"/>
      <point x="810" y="106" type="curve"/>
      <point x="750" y="106" type="line"/>
      <point x="750" y="34"/>
      <point x="836" y="0"/>
      <point x="912" y="0" type="curve"/>
      <point x="912" y="200" type="line"/>
      <point x="648" y="200" type="line"/>
    </contour>
    <contour>
      <point x="182" y="480" type="line"/>
      <point x="446" y="480" type="line"/>
      <point x="446" y="680" type="line"/>
      <point x="365" y="680"/>
      <point x="284" y="646"/>
      <point x="284" y="574" type="curve"/>
      <point x="344" y="574" type="line"/>
      <point x="344" y="646"/>
      <point x="258" y="680"/>
      <point x="182" y="680" type="curve"/>
    </contour>
    <contour>
      <point x="469" y="190" type="line"/>
      <point x="528" y="190" type="line"/>
      <point x="644" y="522" type="line"/>
      <point x="593" y="522" type="line"/>
      <point x="552" y="461" type="line"/>
      <point x="475" y="241" type="line"/>
    </contour>
    <contour>
      <point x="496" y="480" type="line"/>
      <point x="760" y="480" type="line"/>
      <point x="760" y="680" type="line"/>
      <point x="684" y="680"/>
      <point x="598" y="646"/>
      <point x="598" y="574" type="curve"/>
      <point x="658" y="574" type="line"/>
      <point x="658" y="646"/>
      <point x="577" y="680"/>
      <point x="496" y="680" type="curve"/>
    </contour>
  </outline>
</glyph>
<glyph name="N" format="2">
  <advance width="664"/>
  <unicode hex="004E"/>
  <anchor x="351" y="0" name="bottom"/>
  <anchor x="344" y="680" name="top"/>
  <outline>
    <contour>
      <point x="632" y="0" type="curve"/>
      <point x="632" y="200" type="line"/>
      <point x="394" y="200"/>
      <point x="383" y="210"/>
      <point x="360" y="351" type="curve" smooth="yes"/>
      <point x="327" y="556"/>
      <point x="336" y="680"/>
      <point x="34" y="680" type="curve"/>
      <point x="34" y="480" type="line"/>
      <point x="276" y="480"/>
      <point x="288" y="477"/>
      <point x="313" y="316" type="curve" smooth="yes"/>
      <point x="352" y="69"/>
      <point x="347" y="0"/>
    </contour>
    <contour>
      <point x="132" y="75" type="line"/>
      <point x="192" y="75" type="line"/>
      <point x="192" y="527" type="line"/>
      <point x="132" y="527" type="line"/>
    </contour>
    <contour>
      <point x="472" y="155" type="line"/>
      <point x="532" y="155" type="line"/>
      <point x="532" y="587" type="line"/>
      <point x="472" y="587" type="line"/>
    </contour>
    <component base="serif_inf_der" xOffset="10"/>
    <component base="serif_inf_izq" xOffset="10"/>
    <component base="serif_sup_izq" xOffset="350" yOffset="160"/>
    <component base="serif_sup_der" xOffset="350" yOffset="160"/>
  </outline>
</glyph>
<glyph name="O" format="2">
  <advance width="560"/>
  <unicode hex="004F"/>
  <anchor x="280" y="0" name="bottom"/>
  <anchor x="280" y="429" name="center"/>
  <anchor x="313" y="11" name="ogonek"/>
  <anchor x="280" y="690" name="top"/>
  <anchor x="249" y="680" name="topleft"/>
  <anchor x="328" y="690" name="topright"/>
  <outline>
    <contour>
      <point x="280" y="-10" type="curve" smooth="yes"/>
      <point x="445" y="-10"/>
      <point x="525" y="113"/>
      <point x="525" y="338" type="curve" smooth="yes"/>
      <point x="525" y="602"/>
      <point x="445" y="689"/>
      <point x="280" y="690" type="curve" smooth="yes"/>
      <point x="115" y="691"/>
      <point x="35" y="602"/>
      <point x="35" y="338" type="curve" smooth="yes"/>
      <point x="35" y="113"/>
      <point x="115" y="-10"/>
    </contour>
    <contour>
      <point x="280" y="188" type="curve" smooth="yes"/>
      <point x="179" y="188"/>
      <point x="86" y="226"/>
      <point x="85" y="338" type="curve" smooth="yes"/>
      <point x="86" y="452"/>
      <point x="179" y="490"/>
      <point x="280" y="490" type="curve" smooth="yes"/>
      <point x="381" y="490"/>
      <point x="477" y="452"/>
      <point x="475" y="338" type="curve" smooth="yes"/>
      <point x="473" y="226"/>
      <point x="381" y="188"/>
    </contour>
  </outline>
</glyph>
<glyph name="P" format="2">
  <advance width="593"/>
  <unicode hex="0050"/>
  <anchor x="282" y="0" name="bottom"/>
  <anchor x="282" y="680" name="top"/>
  <outline>
    <contour>
      <point x="362" y="230" type="curve" smooth="yes"/>
      <point x="497" y="230"/>
      <point x="563" y="304"/>
      <point x="563" y="460" type="curve" smooth="yes"/>
      <point x="563" y="594"/>
      <point x="497" y="690"/>
      <point x="362" y="690" type="curve" smooth="yes"/>
      <point x="237" y="690"/>
      <point x="166" y="619"/>
      <point x="166" y="548" type="curve" smooth="yes"/>
      <point x="166" y="498"/>
      <point x="157" y="439"/>
      <point x="151" y="408" type="curve"/>
      <point x="151" y="304"/>
      <point x="194" y="230"/>
    </contour>
    <contour>
      <point x="132" y="114" type="line"/>
      <point x="192" y="123" type="line"/>
      <point x="192" y="501" type="line"/>
      <point x="132" y="501" type="line"/>
    </contour>
    <contour>
      <point x="132" y="434" type="curve"/>
      <point x="192" y="434" type="line"/>
      <point x="192" y="454"/>
      <point x="192" y="483"/>
      <point x="192" y="492" type="curve" smooth="yes"/>
      <point x="192" y="635"/>
      <point x="152" y="680"/>
      <point x="30" y="680" type="curve"/>
      <point x="30" y="480" type="line"/>
      <point x="116" y="480"/>
      <point x="132" y="469"/>
    </contour>
    <contour>
      <point x="349" y="290" type="curve" smooth="yes"/>
      <point x="212" y="290"/>
      <point x="192" y="326"/>
      <point x="192" y="390" type="curve" smooth="yes"/>
      <point x="192" y="393"/>
      <point x="192" y="397"/>
      <point x="192" y="400" type="curve" smooth="yes"/>
      <point x="192" y="452"/>
      <point x="250" y="490"/>
      <point x="349" y="490" type="curve" smooth="yes"/>
      <point x="461" y="490"/>
      <point x="503" y="454"/>
      <point x="503" y="390" type="curve" smooth="yes"/>
      <point x="503" y="326"/>
      <point x="461" y="290"/>
    </contour>
    <component base="serif_inf_izq" xOffset="10"/>
    <component base="serif_inf_der" xOffset="10"/>
  </outline>
</glyph>
<glyph name="Q" format="2">
  <advance width="550"/>
  <unicode hex="0051"/>
  <anchor x="283" y="0" name="bottom"/>
  <anchor x="275" y="680" name="top"/>
  <outline>
    <contour>
      <point x="275" y="0" type="curve" smooth="yes"/>
      <point x="440" y="0"/>
      <point x="515" y="108"/>
      <point x="515" y="338" type="curve" smooth="yes"/>
      <point x="515" y="622"/>
      <point x="440" y="696"/>
      <point x="275" y="695" type="curve" smooth="yes"/>
      <point x="110" y="694"/>
      <point x="35" y="622"/>
      <point x="35" y="338" type="curve" smooth="yes"/>
      <point x="35" y="108"/>
      <point x="110" y="0"/>
    </contour>
    <contour>
      <point x="420" y="-230" type="curve"/>
      <point x="418" y="-40" type="line"/>
      <point x="306" y="-40"/>
      <point x="301" y="-21"/>
      <point x="301" y="9" type="curve"/>
      <point x="251" y="9" type="line"/>
      <point x="251" y="-117"/>
      <point x="287" y="-230"/>
    </contour>
    <contour>
      <point x="275" y="198" type="curve" smooth="yes"/>
      <point x="174" y="198"/>
      <point x="88" y="236"/>
      <point x="85" y="338" type="curve" smooth="yes"/>
      <point x="81" y="457"/>
      <point x="174" y="495"/>
      <point x="275" y="495" type="curve" smooth="yes"/>
      <point x="376" y="495"/>
      <point x="464" y="457"/>
      <point x="465" y="338" type="curve" smooth="yes"/>
      <point x="464" y="236"/>
      <point x="376" y="198"/>
    </contour>
  </outline>
</glyph>
<glyph name="R" format="2">
  <advance width="638"/>
  <unicode hex="0052"/>
  <anchor x="319" y="0" name="bottom"/>
  <anchor x="310" y="680" name="top"/>
  <outline>
    <contour>
      <point x="177" y="270" type="line"/>
      <point x="343" y="270" type="line"/>
      <point x="497" y="270"/>
      <point x="563" y="340"/>
      <point x="563" y="475" type="curve" smooth="yes"/>
      <point x="563" y="610"/>
      <point x="497" y="680"/>
      <point x="363" y="680" type="curve" smooth="yes"/>
      <point x="187" y="680"/>
      <point x="162" y="548"/>
      <point x="162" y="445" type="curve"/>
      <point x="192" y="416" type="line"/>
      <point x="192" y="471"/>
      <point x="229" y="480"/>
      <point x="349" y="480" type="curve" smooth="yes"/>
      <point x="461" y="480"/>
      <point x="503" y="456"/>
      <point x="503" y="405" type="curve" smooth="yes"/>
      <point x="503" y="352"/>
      <point x="461" y="330"/>
      <point x="343" y="330" type="curve"/>
      <point x="187" y="330" type="line"/>
    </contour>
    <contour>
      <point x="132" y="144" type="line"/>
      <point x="192" y="154" type="line"/>
      <point x="192" y="520" type="line"/>
      <point x="132" y="561" type="line"/>
    </contour>
    <contour>
      <point x="344" y="0" type="line"/>
      <point x="426" y="0"/>
      <point x="506" y="29"/>
      <point x="506" y="116" type="curve"/>
      <point x="446" y="116" type="line"/>
      <point x="446" y="29"/>
      <point x="528" y="0"/>
      <point x="608" y="0" type="curve"/>
      <point x="608" y="200" type="line"/>
      <point x="344" y="200" type="line"/>
    </contour>
    <contour>
      <point x="132" y="434" type="curve"/>
      <point x="192" y="434" type="line"/>
      <point x="192" y="545" type="line" smooth="yes"/>
      <point x="192" y="648"/>
      <point x="152" y="680"/>
      <point x="30" y="680" type="curve"/>
      <point x="30" y="480" type="line"/>
      <point x="116" y="480"/>
      <point x="132" y="469"/>
    </contour>
    <contour>
      <point x="438" y="200" type="line"/>
      <point x="503" y="200" type="line"/>
      <point x="408" y="305" type="line"/>
      <point x="343" y="305" type="line"/>
    </contour>
    <component base="serif_inf_izq" xOffset="10"/>
    <component base="serif_inf_der" xOffset="10"/>
  </outline>
</glyph>
<glyph name="S" format="2">
  <advance width="462"/>
  <unicode hex="0053"/>
  <anchor x="231" y="0" name="bottom"/>
  <anchor x="238" y="680" name="top"/>
  <outline>
    <contour>
      <point x="231" y="315" type="curve"/>
      <point x="231" y="366" type="line"/>
      <point x="105" y="366"/>
      <point x="80" y="371"/>
      <point x="80" y="421" type="curve" smooth="yes"/>
      <point x="80" y="471"/>
      <point x="105" y="480"/>
      <point x="231" y="480" type="curve" smooth="yes"/>
      <point x="357" y="480"/>
      <point x="372" y="465"/>
      <point x="372" y="430" type="curve"/>
      <point x="432" y="430" type="line"/>
      <point x="432" y="617"/>
      <point x="328" y="680"/>
      <point x="231" y="680" type="curve" smooth="yes"/>
      <point x="131" y="680"/>
      <point x="30" y="634"/>
      <point x="30" y="442" type="curve" smooth="yes"/>
      <point x="30" y="331"/>
      <point x="84" y="315"/>
    </contour>
    <contour>
      <point x="231" y="-10" type="curve" smooth="yes"/>
      <point x="331" y="-10"/>
      <point x="432" y="36"/>
      <point x="432" y="228" type="curve" smooth="yes"/>
      <point x="432" y="339"/>
      <point x="378" y="366"/>
      <point x="231" y="366" type="curve"/>
      <point x="231" y="315" type="line"/>
      <point x="361" y="315"/>
      <point x="382" y="299"/>
      <point x="382" y="249" type="curve" smooth="yes"/>
      <point x="382" y="199"/>
      <point x="361" y="190"/>
      <point x="231" y="190" type="curve" smooth="yes"/>
      <point x="88" y="190"/>
      <point x="83" y="205"/>
      <point x="83" y="241" type="curve"/>
      <point x="30" y="241" type="line"/>
      <point x="30" y="26"/>
      <point x="134" y="-10"/>
    </contour>
    <contour>
      <point x="432" y="430" type="line"/>
      <point x="432" y="680" type="line"/>
      <point x="317" y="680"/>
      <point x="270" y="625"/>
      <point x="270" y="572" type="curve"/>
      <point x="389" y="578" type="line"/>
    </contour>
  </outline>
</glyph>
<glyph name="T" format="2">
  <advance width="568"/>
  <unicode hex="0054"/>
  <anchor x="283" y="0" name="bottom"/>
  <anchor x="284" y="340" name="center"/>
  <anchor x="284" y="680" name="top"/>
  <outline>
    <contour>
      <point x="249" y="480" type="line"/>
      <point x="319" y="480" type="line"/>
      <point x="319" y="680" type="line"/>
      <point x="249" y="680" type="line"/>
    </contour>
    <contour>
      <point x="376" y="480" type="line"/>
      <point x="538" y="480" type="line"/>
      <point x="538" y="680" type="line"/>
      <point x="423" y="680"/>
      <point x="376" y="625"/>
      <point x="376" y="572" type="curve" smooth="yes"/>
    </contour>
    <contour>
      <point x="30" y="430" type="line"/>
      <point x="90" y="430" type="line"/>
      <point x="90" y="528" type="line"/>
      <point x="30" y="528" type="line"/>
    </contour>
    <contour>
      <point x="254" y="166" type="line"/>
      <point x="314" y="166" type="line"/>
      <point x="314" y="507" type="line"/>
      <point x="254" y="507" type="line"/>
    </contour>
    <contour>
      <point x="30" y="480" type="line"/>
      <point x="192" y="480" type="line"/>
      <point x="192" y="572" type="line" smooth="yes"/>
      <point x="192" y="625"/>
      <point x="145" y="680"/>
      <point x="30" y="680" type="curve"/>
    </contour>
    <contour>
      <point x="254" y="424" type="curve"/>
      <point x="314" y="424" type="line"/>
      <point x="314" y="469"/>
      <point x="330" y="480"/>
      <point x="416" y="480" type="curve"/>
      <point x="314" y="538" type="line"/>
      <point x="254" y="538" type="line"/>
      <point x="152" y="480" type="line"/>
      <point x="238" y="480"/>
      <point x="254" y="469"/>
    </contour>
    <contour>
      <point x="132" y="480" type="line"/>
      <point x="253" y="480" type="line"/>
      <point x="254" y="680" type="line"/>
      <point x="179" y="680"/>
      <point x="132" y="625"/>
      <point x="132" y="572" type="curve" smooth="yes"/>
    </contour>
    <contour>
      <point x="315" y="480" type="line"/>
      <point x="436" y="480" type="line"/>
      <point x="436" y="572" type="line" smooth="yes"/>
      <point x="436" y="625"/>
      <point x="389" y="680"/>
      <point x="314" y="680" type="curve"/>
    </contour>
    <contour>
      <point x="478" y="430" type="line"/>
      <point x="538" y="430" type="line"/>
      <point x="538" y="528" type="line"/>
      <point x="478" y="528" type="line"/>
    </contour>
    <component base="serif_inf_der" xOffset="132"/>
    <component base="serif_inf_izq" xOffset="132"/>
  </outline>
</glyph>
<glyph name="U" format="2">
  <advance width="675"/>
  <unicode hex="0055"/>
  <anchor x="337" y="0" name="bottom"/>
  <anchor x="372" y="-9" name="ogonek"/>
  <anchor x="337" y="680" name="top"/>
  <anchor x="665" y="680" name="topright"/>
  <outline>
    <contour>
      <point x="337" y="-10" type="curve" smooth="yes"/>
      <point x="441" y="-10"/>
      <point x="543" y="28"/>
      <point x="543" y="218" type="curve" smooth="yes"/>
      <point x="543" y="343"/>
      <point x="543" y="545"/>
      <point x="543" y="558" type="curve"/>
      <point x="483" y="558" type="line"/>
      <point x="483" y="546"/>
      <point x="483" y="344"/>
      <point x="483" y="278" type="curve" smooth="yes"/>
      <point x="483" y="216"/>
      <point x="460" y="188"/>
      <point x="337" y="188" type="curve" smooth="yes"/>
      <point x="214" y="188"/>
      <point x="193" y="216"/>
      <point x="192" y="278" type="curve" smooth="yes"/>
      <point x="191" y="344"/>
      <point x="191" y="546"/>
      <point x="191" y="558" type="curve"/>
      <point x="131" y="558" type="line"/>
      <point x="131" y="545"/>
      <point x="131" y="343"/>
      <point x="131" y="218" type="curve" smooth="yes"/>
      <point x="131" y="28"/>
      <point x="233" y="-10"/>
    </contour>
    <component base="serif_sup_izq" xOffset="9" yOffset="160"/>
    <component base="serif_sup_der" xOffset="9" yOffset="160"/>
    <component base="serif_sup_izq" xOffset="361" yOffset="160"/>
    <component base="serif_sup_der" xOffset="361" yOffset="160"/>
  </outline>
</glyph>
<glyph name="V" format="2">
  <advance width="660"/>
  <unicode hex="0056"/>
  <anchor x="330" y="0" name="bottom"/>
  <anchor x="330" y="680" name="top"/>
  <outline>
    <contour>
      <point x="332" y="200" type="line"/>
      <point x="399" y="200" type="line"/>
      <point x="550" y="504" type="line"/>
      <point x="495" y="504" type="line"/>
      <point x="455" y="464" type="line"/>
      <point x="333" y="216" type="line"/>
    </contour>
    <contour>
      <point x="198" y="0" type="line"/>
      <point x="274" y="0"/>
      <point x="360" y="34"/>
      <point x="360" y="106" type="curve"/>
      <point x="300" y="106" type="line"/>
      <point x="300" y="34"/>
      <point x="381" y="0"/>
      <point x="462" y="0" type="curve"/>
      <point x="462" y="200" type="line"/>
      <point x="198" y="200" type="line"/>
    </contour>
    <contour>
      <point x="260" y="200" type="line"/>
      <point x="328" y="200" type="line"/>
      <point x="327" y="216" type="line"/>
      <point x="206" y="464" type="line"/>
      <point x="167" y="504" type="line"/>
      <point x="112" y="504" type="line"/>
    </contour>
    <contour>
      <point x="30" y="480" type="line"/>
      <point x="294" y="480" type="line"/>
      <point x="294" y="680" type="line"/>
      <point x="213" y="680"/>
      <point x="132" y="646"/>
      <point x="132" y="574" type="curve"/>
      <point x="192" y="574" type="line"/>
      <point x="192" y="646"/>
      <point x="106" y="680"/>
      <point x="30" y="680" type="curve"/>
    </contour>
    <contour>
      <point x="366" y="480" type="line"/>
      <point x="630" y="480" type="line"/>
      <point x="630" y="680" type="line"/>
      <point x="554" y="680"/>
      <point x="468" y="646"/>
      <point x="468" y="574" type="curve"/>
      <point x="528" y="574" type="line"/>
      <point x="528" y="646"/>
      <point x="447" y="680"/>
      <point x="366" y="680" type="curve"/>
    </contour>
  </outline>
</glyph>
<glyph name="W" format="2">
  <advance width="942"/>
  <unicode hex="0057"/>
  <anchor x="543" y="0" name="bottom"/>
  <anchor x="476" y="680" name="top"/>
  <outline>
    <contour>
      <point x="609" y="168" type="line"/>
      <point x="667" y="168" type="line"/>
      <point x="541" y="461" type="line"/>
      <point x="518" y="490" type="line"/>
      <point x="460" y="490" type="line"/>
      <point x="578" y="216" type="line"/>
    </contour>
    <contour>
      <point x="159" y="0" type="line"/>
      <point x="235" y="0"/>
      <point x="321" y="34"/>
      <point x="321" y="106" type="curve"/>
      <point x="261" y="106" type="line"/>
      <point x="261" y="34"/>
      <point x="342" y="0"/>
      <point x="423" y="0" type="curve"/>
      <point x="423" y="200" type="line"/>
      <point x="159" y="200" type="line"/>
    </contour>
    <contour>
      <point x="247" y="168" type="line"/>
      <point x="305" y="168" type="line"/>
      <point x="184" y="495" type="line"/>
      <point x="126" y="495" type="line"/>
      <point x="127" y="462" type="line"/>
      <point x="221" y="216" type="line"/>
    </contour>
    <contour>
      <point x="275" y="168" type="line"/>
      <point x="333" y="168" type="line"/>
      <point x="364" y="216" type="line"/>
      <point x="482" y="490" type="line"/>
      <point x="424" y="490" type="line"/>
      <point x="402" y="462" type="line"/>
    </contour>
    <contour>
      <point x="30" y="480" type="line"/>
      <point x="294" y="480" type="line"/>
      <point x="294" y="680" type="line"/>
      <point x="213" y="680"/>
      <point x="132" y="646"/>
      <point x="132" y="574" type="curve"/>
      <point x="192" y="574" type="line"/>
      <point x="192" y="646"/>
      <point x="106" y="680"/>
      <point x="30" y="680" type="curve"/>
    </contour>
    <contour>
      <point x="519" y="0" type="line"/>
      <point x="600" y="0"/>
      <point x="681" y="34"/>
      <point x="681" y="106" type="curve"/>
      <point x="621" y="106" type="line"/>
      <point x="621" y="34"/>
      <point x="707" y="0"/>
      <point x="783" y="0" type="curve"/>
      <point x="783" y="200" type="line"/>
      <point x="519" y="200" type="line"/>
    </contour>
    <contour>
      <point x="339" y="480" type="line"/>
      <point x="603" y="480" type="line"/>
      <point x="603" y="680" type="line"/>
      <point x="522" y="680"/>
      <point x="441" y="646"/>
      <point x="441" y="574" type="curve"/>
      <point x="501" y="574" type="line"/>
      <point x="501" y="646"/>
      <point x="415" y="680"/>
      <point x="339" y="680" type="curve"/>
    </contour>
    <contour>
      <point x="637" y="168" type="line"/>
      <point x="695" y="168" type="line"/>
      <point x="721" y="214" type="line"/>
      <point x="815" y="461" type="line"/>
      <point x="816" y="495" type="line"/>
      <point x="758" y="495" type="line"/>
    </contour>
    <contour>
      <point x="648" y="480" type="line"/>
      <point x="912" y="480" type="line"/>
      <point x="912" y="680" type="line"/>
      <point x="836" y="680"/>
      <point x="750" y="646"/>
      <point x="750" y="574" type="curve"/>
      <point x="810" y="574" type="line"/>
      <point x="810" y="646"/>
      <point x="729" y="680"/>
      <point x="648" y="680" type="curve"/>
    </contour>
  </outline>
</glyph>
<glyph name="X" format="2">
  <advance width="634"/>
  <unicode hex="0058"/>
  <anchor x="301" y="0" name="bottom"/>
  <anchor x="301" y="680" name="top"/>
  <outline>
    <contour>
      <point x="340" y="480" type="line"/>
      <point x="604" y="480" type="line"/>
      <point x="604" y="680" type="line"/>
      <point x="524" y="680"/>
      <point x="442" y="651"/>
      <point x="442" y="564" type="curve"/>
      <point x="510" y="564" type="line"/>
      <point x="510" y="651"/>
      <point x="422" y="680"/>
      <point x="340" y="680" type="curve"/>
    </contour>
    <contour>
      <point x="30" y="0" type="line"/>
      <point x="110" y="0"/>
      <point x="192" y="29"/>
      <point x="192" y="116" type="curve"/>
      <point x="124" y="116" type="line"/>
      <point x="124" y="29"/>
      <point x="212" y="0"/>
      <point x="294" y="0" type="curve"/>
      <point x="294" y="200" type="line"/>
      <point x="30" y="200" type="line"/>
    </contour>
    <contour>
      <point x="124" y="144" type="line"/>
      <point x="226" y="215" type="line"/>
      <point x="317" y="306" type="line"/>
      <point x="317" y="386" type="line"/>
      <point x="124" y="199" type="line"/>
    </contour>
    <contour>
      <point x="340" y="0" type="line"/>
      <point x="422" y="0"/>
      <point x="510" y="29"/>
      <point x="510" y="116" type="curve"/>
      <point x="442" y="116" type="line"/>
      <point x="442" y="29"/>
      <point x="524" y="0"/>
      <point x="604" y="0" type="curve"/>
      <point x="604" y="200" type="line"/>
      <point x="340" y="200" type="line"/>
    </contour>
    <contour>
      <point x="317" y="306" type="line"/>
      <point x="317" y="386" type="line"/>
      <point x="234" y="463" type="line"/>
      <point x="123" y="536" type="line"/>
      <point x="124" y="481" type="line"/>
    </contour>
    <contour>
      <point x="510" y="144" type="line"/>
      <point x="510" y="199" type="line"/>
      <point x="317" y="386" type="line"/>
      <point x="317" y="306" type="line"/>
      <point x="411" y="212" type="line"/>
    </contour>
    <contour>
      <point x="30" y="480" type="line"/>
      <point x="294" y="480" type="line"/>
      <point x="294" y="680" type="line"/>
      <point x="212" y="680"/>
      <point x="124" y="651"/>
      <point x="124" y="564" type="curve"/>
      <point x="192" y="564" type="line"/>
      <point x="192" y="651"/>
      <point x="110" y="680"/>
      <point x="30" y="680" type="curve"/>
    </contour>
    <contour>
      <point x="317" y="306" type="line"/>
      <point x="510" y="481" type="line"/>
      <point x="509" y="536" type="line"/>
      <point x="400" y="463" type="line"/>
      <point x="317" y="386" type="line"/>
    </contour>
  </outline>
</glyph>
<glyph name="Y" format="2">
  <advance width="638"/>
  <unicode hex="0059"/>
  <guideline x="266" y="260" angle="0"/>
  <anchor x="320" y="0" name="bottom"/>
  <anchor x="320" y="680" name="top"/>
  <anchor x="40" y="680" name="topleft"/>
  <outline>
    <contour>
      <point x="350" y="270" type="line"/>
      <point x="519" y="483" type="line"/>
      <point x="478" y="504" type="line"/>
      <point x="425" y="461" type="line"/>
      <point x="290" y="290" type="line"/>
    </contour>
    <contour>
      <point x="290" y="146" type="line"/>
      <point x="350" y="146" type="line"/>
      <point x="350" y="290" type="line"/>
      <point x="290" y="290" type="line"/>
    </contour>
    <contour>
      <point x="290" y="270" type="line"/>
      <point x="350" y="290" type="line"/>
      <point x="215" y="461" type="line"/>
      <point x="162" y="504" type="line"/>
      <point x="121" y="483" type="line"/>
    </contour>
    <contour>
      <point x="20" y="480" type="line"/>
      <point x="284" y="480" type="line"/>
      <point x="284" y="680" type="line"/>
      <point x="203" y="680"/>
      <point x="122" y="646"/>
      <point x="122" y="574" type="curve"/>
      <point x="182" y="574" type="line"/>
      <point x="182" y="646"/>
      <point x="96" y="680"/>
      <point x="20" y="680" type="curve"/>
    </contour>
    <contour>
      <point x="356" y="480" type="line"/>
      <point x="620" y="480" type="line"/>
      <point x="620" y="680" type="line"/>
      <point x="544" y="680"/>
      <point x="458" y="646"/>
      <point x="458" y="574" type="curve"/>
      <point x="518" y="574" type="line"/>
      <point x="518" y="646"/>
      <point x="437" y="680"/>
      <point x="356" y="680" type="curve"/>
    </contour>
    <component base="serif_inf_der" xOffset="168" yOffset="1"/>
    <component base="serif_inf_izq" xOffset="168" yOffset="1"/>
  </outline>
</glyph>
<glyph name="Z" format="2">
  <advance width="508"/>
  <unicode hex="005A"/>
  <anchor x="277" y="0" name="bottom"/>
  <anchor x="277" y="680" name="top"/>
  <outline>
    <contour>
      <point x="30" y="200" type="line"/>
      <point x="99" y="200" type="line"/>
      <point x="145" y="219" type="line"/>
      <point x="478" y="470" type="line"/>
      <point x="408" y="470" type="line"/>
      <point x="354" y="444" type="line"/>
    </contour>
    <contour>
      <point x="30" y="0" type="line"/>
      <point x="199" y="0" type="line"/>
      <point x="329" y="0"/>
      <point x="376" y="55"/>
      <point x="376" y="108" type="curve"/>
      <point x="376" y="200" type="line"/>
      <point x="30" y="200" type="line"/>
    </contour>
    <contour>
      <point x="478" y="0" type="curve"/>
      <point x="478" y="200" type="line"/>
      <point x="316" y="200" type="line"/>
      <point x="316" y="108" type="line"/>
      <point x="316" y="55"/>
      <point x="363" y="0"/>
    </contour>
    <contour>
      <point x="30" y="440" type="line"/>
      <point x="90" y="440" type="line"/>
      <point x="90" y="538" type="line"/>
      <point x="30" y="538" type="line"/>
    </contour>
    <contour>
      <point x="418" y="143" type="line"/>
      <point x="478" y="143" type="line"/>
      <point x="478" y="241" type="line"/>
      <point x="418" y="241" type="line"/>
    </contour>
    <contour>
      <point x="30" y="470" type="line"/>
      <point x="192" y="470" type="line"/>
      <point x="192" y="572" type="line"/>
      <point x="192" y="625"/>
      <point x="145" y="680"/>
      <point x="30" y="680" type="curve"/>
    </contour>
    <contour>
      <point x="132" y="470" type="line"/>
      <point x="478" y="470" type="line"/>
      <point x="478" y="680" type="line"/>
      <point x="294" y="680" type="line"/>
      <point x="179" y="680"/>
      <point x="132" y="625"/>
      <point x="132" y="572" type="curve"/>
    </contour>
  </outline>
</glyph>
<glyph name="backslash" format="2">
  <advance width="366"/>
  <unicode hex="005C"/>
  <outline>
    <contour>
      <point x="246" y="-173" type="line"/>
      <point x="346" y="-173" type="line"/>
      <point x="120" y="680" type="line"/>
      <point x="20" y="680" type="line"/>
    </contour>
  </outline>
</glyph>
<glyph name="bracketright" format="2">
  <advance width="272"/>
  <unicode hex="005D"/>
  <outline>
    <contour>
      <point x="25" y="531" type="curve"/>
      <point x="252" y="531" type="line"/>
      <point x="252" y="731" type="line"/>
      <point x="25" y="731" type="line"/>
      <point x="25" y="644"/>
      <point x="66" y="608"/>
      <point x="106" y="608" type="curve"/>
      <point x="106" y="654" type="line"/>
      <point x="66" y="654"/>
      <point x="25" y="618"/>
    </contour>
    <contour>
      <point x="25" y="-207" type="curve"/>
      <point x="252" y="-207" type="line"/>
      <point x="252" y="-7" type="line"/>
      <point x="25" y="-7" type="line"/>
      <point x="25" y="-94"/>
      <point x="66" y="-130"/>
      <point x="106" y="-130" type="curve"/>
      <point x="106" y="-84" type="line"/>
      <point x="66" y="-84"/>
      <point x="25" y="-120"/>
    </contour>
    <contour>
      <point x="192" y="-162" type="line"/>
      <point x="252" y="-162" type="line"/>
      <point x="252" y="539" type="line"/>
      <point x="192" y="539" type="line"/>
    </contour>
  </outline>
</glyph>
<glyph name="asciicircum" format="2">
  <advance width="393"/>
  <unicode hex="005E"/>
  <outline>
    <contour>
      <point x="20" y="346" type="line"/>
      <point x="91" y="346" type="line"/>
      <point x="173" y="543" type="line"/>
      <point x="220" y="543" type="line"/>
      <point x="301" y="346" type="line"/>
      <point x="373" y="346" type="line"/>
      <point x="218" y="745" type="line"/>
      <point x="174" y="745" type="line"/>
    </contour>
  </outline>
</glyph>
<glyph name="underscore" format="2">
  <advance width="586"/>
  <unicode hex="005F"/>
  <outline>
    <contour>
      <point x="20" y="-186" type="curve"/>
      <point x="566" y="-186" type="line"/>
      <point x="566" y="-114"/>
      <point x="532" y="-84"/>
      <point x="499" y="-84" type="curve"/>
      <point x="499" y="-122" type="line"/>
      <point x="532" y="-122"/>
      <point x="566" y="-92"/>
      <point x="566" y="-20" type="curve"/>
      <point x="20" y="-20" type="line"/>
      <point x="20" y="-92"/>
      <point x="54" y="-122"/>
      <point x="87" y="-122" type="curve"/>
      <point x="87" y="-84" type="line"/>
      <point x="54" y="-84"/>
      <point x="20" y="-114"/>
    </contour>
  </outline>
</glyph>
<glyph name="a" format="2">
  <advance width="524"/>
  <unicode hex="0061"/>
  <anchor x="255" y="0" name="bottom"/>
  <anchor x="494" y="-9" name="ogonek"/>
  <anchor x="237" y="530" name="top"/>
  <outline>
    <contour>
      <point x="228" y="-10" type="curve" smooth="yes"/>
      <point x="357" y="-10"/>
      <point x="432" y="79"/>
      <point x="432" y="260" type="curve" smooth="yes"/>
      <point x="432" y="441"/>
      <point x="356" y="530"/>
      <point x="231" y="530" type="curve" smooth="yes"/>
      <point x="121" y="530"/>
      <point x="31" y="456"/>
      <point x="31" y="303" type="curve"/>
      <point x="91" y="303" type="line"/>
      <point x="91" y="328"/>
      <point x="140" y="330"/>
      <point x="226" y="330" type="curve" smooth="yes"/>
      <point x="373" y="330"/>
      <point x="382" y="313"/>
      <point x="382" y="260" type="curve" smooth="yes"/>
      <point x="382" y="214"/>
      <point x="373" y="190"/>
      <point x="228" y="190" type="curve" smooth="yes"/>
      <point x="86" y="190"/>
      <point x="81" y="195"/>
      <point x="81" y="215" type="curve" smooth="yes"/>
      <point x="81" y="235"/>
      <point x="86" y="240"/>
      <point x="228" y="240" type="curve" smooth="yes"/>
      <point x="402" y="240" type="line"/>
      <point x="402" y="285" type="line"/>
      <point x="228" y="285" type="line" smooth="yes"/>
      <point x="53" y="285"/>
      <point x="30" y="272"/>
      <point x="30" y="215" type="curve" smooth="yes"/>
      <point x="30" y="79"/>
      <point x="98" y="-10"/>
    </contour>
    <contour>
      <point x="494" y="1" type="curve"/>
      <point x="494" y="201" type="line"/>
      <point x="448" y="201"/>
      <point x="432" y="219"/>
      <point x="432" y="261" type="curve"/>
      <point x="432" y="263" type="line"/>
      <point x="382" y="165" type="line"/>
      <point x="382" y="56"/>
      <point x="409" y="1"/>
    </contour>
  </outline>
</glyph>
<glyph name="b" format="2">
  <advance width="549"/>
  <unicode hex="0062"/>
  <anchor x="271" y="0" name="bottom"/>
  <anchor x="271" y="520" name="top"/>
  <outline>
    <contour>
      <point x="30" y="0" type="line"/>
      <point x="155" y="0"/>
      <point x="192" y="109"/>
      <point x="192" y="219" type="curve"/>
      <point x="192" y="240" type="line"/>
      <point x="132" y="246" type="line"/>
      <point x="132" y="211"/>
      <point x="116" y="200"/>
      <point x="30" y="200" type="curve"/>
    </contour>
    <contour>
      <point x="132" y="195" type="line"/>
      <point x="192" y="195" type="line"/>
      <point x="192" y="547" type="line"/>
      <point x="132" y="547" type="line"/>
    </contour>
    <component base="serif_sup_der" xOffset="10" yOffset="230"/>
    <component base="serif_sup_izq" xOffset="10" yOffset="230"/>
    <component base="aro_min" xOffset="161"/>
  </outline>
</glyph>
<glyph name="c" format="2">
  <advance width="469"/>
  <unicode hex="0063"/>
  <anchor x="243" y="0" name="bottom"/>
  <anchor x="243" y="520" name="top"/>
  <outline>
    <contour>
      <point x="238" y="-10" type="curve" smooth="yes"/>
      <point x="384" y="-10"/>
      <point x="439" y="77"/>
      <point x="439" y="218" type="curve"/>
      <point x="378" y="218" type="line"/>
      <point x="378" y="207"/>
      <point x="366" y="190"/>
      <point x="245" y="190" type="curve" smooth="yes"/>
      <point x="116" y="190"/>
      <point x="97" y="197"/>
      <point x="97" y="260" type="curve" smooth="yes"/>
      <point x="97" y="323"/>
      <point x="116" y="330"/>
      <point x="248" y="330" type="curve" smooth="yes"/>
      <point x="366" y="330"/>
      <point x="378" y="316"/>
      <point x="378" y="303" type="curve"/>
      <point x="438" y="303" type="line" smooth="yes"/>
      <point x="438" y="440"/>
      <point x="387" y="530"/>
      <point x="238" y="530" type="curve" smooth="yes"/>
      <point x="113" y="530"/>
      <point x="37" y="441"/>
      <point x="37" y="260" type="curve" smooth="yes"/>
      <point x="37" y="79"/>
      <point x="113" y="-10"/>
    </contour>
  </outline>
</glyph>
<glyph name="d" format="2">
  <advance width="551"/>
  <unicode hex="0064"/>
  <anchor x="269" y="0" name="bottom"/>
  <anchor x="387" y="476" name="center"/>
  <anchor x="143" y="520" name="top"/>
  <anchor x="501" y="520" name="topright"/>
  <outline>
    <contour>
      <point x="491" y="0" type="line"/>
      <point x="406" y="0"/>
      <point x="359" y="85"/>
      <point x="359" y="240" type="curve"/>
      <point x="359" y="246" type="line"/>
      <point x="419" y="246" type="line"/>
      <point x="419" y="211"/>
      <point x="435" y="200"/>
      <point x="491" y="200" type="curve"/>
    </contour>
    <contour>
      <point x="359" y="228" type="line"/>
      <point x="359" y="636" type="line"/>
      <point x="419" y="636" type="line"/>
      <point x="419" y="228" type="line"/>
    </contour>
    <component base="serif_sup_der" xOffset="237" yOffset="230"/>
    <component base="serif_sup_izq" xOffset="237" yOffset="230"/>
    <component base="aro_min" xScale="-1" xOffset="389"/>
  </outline>
</glyph>
<glyph name="e" format="2">
  <advance width="472"/>
  <unicode hex="0065"/>
  <anchor x="238" y="0" name="bottom"/>
  <anchor x="302" y="0" name="ogonek"/>
  <anchor x="238" y="520" name="top"/>
  <outline>
    <contour>
      <point x="238" y="-10" type="curve" smooth="yes"/>
      <point x="371" y="-10"/>
      <point x="439" y="89"/>
      <point x="439" y="219" type="curve"/>
      <point x="379" y="219" type="line"/>
      <point x="379" y="197"/>
      <point x="360" y="190"/>
      <point x="243" y="190" type="curve" smooth="yes"/>
      <point x="121" y="190"/>
      <point x="87" y="197"/>
      <point x="87" y="260" type="curve" smooth="yes"/>
      <point x="87" y="316"/>
      <point x="113" y="330"/>
      <point x="245" y="330" type="curve" smooth="yes"/>
      <point x="360" y="330"/>
      <point x="379" y="321"/>
      <point x="379" y="284" type="curve"/>
      <point x="77" y="284" type="line"/>
      <point x="77" y="251" type="line"/>
      <point x="439" y="251" type="line"/>
      <point x="439" y="430"/>
      <point x="390" y="530"/>
      <point x="238" y="530" type="curve" smooth="yes"/>
      <point x="113" y="530"/>
      <point x="37" y="412"/>
      <point x="37" y="260" type="curve" smooth="yes"/>
      <point x="37" y="128"/>
      <point x="112" y="-10"/>
    </contour>
  </outline>
</glyph>
<glyph name="f" format="2">
  <advance width="375"/>
  <unicode hex="0066"/>
  <anchor x="193" y="0" name="bottom"/>
  <anchor x="193" y="520" name="top"/>
  <outline>
    <contour>
      <point x="132" y="502" type="line"/>
      <point x="192" y="502" type="line"/>
      <point x="192" y="506" type="line"/>
      <point x="192" y="550"/>
      <point x="221" y="561"/>
      <point x="394" y="561" type="curve"/>
      <point x="394" y="762" type="line"/>
      <point x="174" y="762"/>
      <point x="132" y="701"/>
      <point x="132" y="506" type="curve" smooth="yes"/>
    </contour>
    <contour>
      <point x="132" y="155" type="line"/>
      <point x="192" y="155" type="line"/>
      <point x="192" y="502" type="line"/>
      <point x="132" y="502" type="line"/>
    </contour>
    <contour>
      <point x="40" y="329" type="line"/>
      <point x="310" y="329" type="line"/>
      <point x="310" y="520" type="line"/>
      <point x="40" y="520" type="line"/>
    </contour>
    <component base="serif_inf_der" xOffset="10"/>
    <component base="serif_inf_izq" xOffset="10"/>
  </outline>
</glyph>
<glyph name="g" format="2">
  <advance width="510"/>
  <unicode hex="0067"/>
  <anchor x="259" y="0" name="bottom"/>
  <anchor x="259" y="520" name="top"/>
  <outline>
    <contour>
      <point x="201" y="0" type="curve" smooth="yes"/>
      <point x="337" y="0"/>
      <point x="369" y="120"/>
      <point x="369" y="234" type="curve"/>
      <point x="369" y="268"/>
      <point x="369" y="288"/>
      <point x="369" y="286" type="curve"/>
      <point x="369" y="431"/>
      <point x="301" y="530"/>
      <point x="201" y="530" type="curve" smooth="yes"/>
      <point x="103" y="530"/>
      <point x="37" y="420"/>
      <point x="37" y="260" type="curve" smooth="yes"/>
      <point x="37" y="100"/>
      <point x="92" y="0"/>
    </contour>
    <contour>
      <point x="222" y="-230" type="curve" smooth="yes"/>
      <point x="338" y="-229"/>
      <point x="418" y="-174"/>
      <point x="418" y="14" type="curve" smooth="yes"/>
      <point x="418" y="108" type="line"/>
      <point x="358" y="108" type="line"/>
      <point x="358" y="89" type="line" smooth="yes"/>
      <point x="358" y="28"/>
      <point x="318" y="-49"/>
      <point x="202" y="-49" type="curve" smooth="yes"/>
      <point x="126" y="-49"/>
      <point x="87" y="-28"/>
      <point x="87" y="14" type="curve"/>
      <point x="37" y="14" type="line"/>
      <point x="37" y="-174"/>
      <point x="106" y="-231"/>
    </contour>
    <contour>
      <point x="230" y="190" type="curve" smooth="yes"/>
      <point x="115" y="190"/>
      <point x="97" y="215"/>
      <point x="97" y="260" type="curve" smooth="yes"/>
      <point x="97" y="305"/>
      <point x="115" y="330"/>
      <point x="230" y="330" type="curve" smooth="yes"/>
      <point x="338" y="330"/>
      <point x="358" y="300"/>
      <point x="358" y="260" type="curve" smooth="yes"/>
      <point x="358" y="220"/>
      <point x="338" y="190"/>
    </contour>
    <contour>
      <point x="358" y="69" type="line"/>
      <point x="418" y="69" type="line"/>
      <point x="418" y="357" type="line"/>
      <point x="358" y="357" type="line"/>
    </contour>
    <contour>
      <point x="358" y="274" type="line"/>
      <point x="418" y="274" type="line"/>
      <point x="418" y="309"/>
      <point x="434" y="320"/>
      <point x="480" y="320" type="curve"/>
      <point x="480" y="520" type="line"/>
      <point x="405" y="520"/>
      <point x="358" y="465"/>
      <point x="358" y="368" type="curve" smooth="yes"/>
    </contour>
  </outline>
</glyph>
<glyph name="h" format="2">
  <advance width="644"/>
  <unicode hex="0068"/>
  <anchor x="322" y="0" name="bottom"/>
  <anchor x="168" y="276" name="center"/>
  <anchor x="160" y="726" name="top"/>
  <outline>
    <contour>
      <point x="132" y="226" type="line"/>
      <point x="192" y="226" type="line"/>
      <point x="192" y="507" type="line"/>
      <point x="132" y="507" type="line"/>
    </contour>
    <contour>
      <point x="452" y="218" type="line"/>
      <point x="512" y="218" type="line"/>
      <point x="512" y="276" type="line"/>
      <point x="452" y="276" type="line"/>
    </contour>
    <component base="serif_inf_der" xOffset="330"/>
    <component base="serif_inf_izq" xOffset="330"/>
    <component base="serif_inf_der" xOffset="10"/>
    <component base="serif_inf_izq" xOffset="10"/>
    <component base="serif_sup_der" xOffset="10" yOffset="230"/>
    <component base="ataque_n" xOffset="10" yOffset="10"/>
    <component base="serif_sup_izq" xOffset="10" yOffset="230"/>
  </outline>
</glyph>
<glyph name="i" format="2">
  <advance width="324"/>
  <unicode hex="0069"/>
  <anchor x="163" y="0" name="bottom"/>
  <anchor x="163" y="520" name="top"/>
  <outline>
    <contour>
      <point x="132" y="166" type="line"/>
      <point x="192" y="166" type="line"/>
      <point x="192" y="290" type="line"/>
      <point x="132" y="290" type="line"/>
    </contour>
    <component base="serif_sup_izq" xOffset="10"/>
    <component base="serif_sup_der" xOffset="10"/>
    <component base="serif_inf_der" xOffset="10"/>
    <component base="serif_inf_izq" xOffset="10"/>
    <component base="dotaccent" xOffset="42"/>
  </outline>
</glyph>
<glyph name="j" format="2">
  <advance width="334"/>
  <unicode hex="006A"/>
  <outline>
    <contour>
      <point x="30" y="-230" type="curve"/>
      <point x="155" y="-230"/>
      <point x="202" y="-132"/>
      <point x="202" y="24" type="curve"/>
      <point x="202" y="94" type="line"/>
      <point x="142" y="94" type="line"/>
      <point x="142" y="-15"/>
      <point x="112" y="-30"/>
      <point x="30" y="-30" type="curve"/>
      <point x="30" y="-97"/>
      <point x="30" y="-163"/>
    </contour>
    <contour>
      <point x="142" y="-22" type="line"/>
      <point x="202" y="11" type="line"/>
      <point x="202" y="357" type="line"/>
      <point x="142" y="357" type="line"/>
    </contour>
    <component base="serif_sup_izq" xOffset="20"/>
    <component base="serif_sup_der" xOffset="20"/>
    <component base="dotaccent" xOffset="52"/>
  </outline>
</glyph>
<glyph name="k" format="2">
  <advance width="643"/>
  <unicode hex="006B"/>
  <anchor x="316" y="0" name="bottom"/>
  <anchor x="266" y="520" name="top"/>
  <outline>
    <contour>
      <point x="547" y="115" type="line"/>
      <point x="547" y="186" type="line"/>
      <point x="172" y="426" type="line"/>
      <point x="172" y="355" type="line"/>
      <point x="392" y="220" type="line"/>
      <point x="472" y="197" type="line"/>
    </contour>
    <contour>
      <point x="349" y="0" type="line"/>
      <point x="431" y="0"/>
      <point x="519" y="29"/>
      <point x="519" y="116" type="curve"/>
      <point x="451" y="116" type="line"/>
      <point x="451" y="29"/>
      <point x="533" y="0"/>
      <point x="613" y="0" type="curve"/>
      <point x="613" y="200" type="line"/>
      <point x="349" y="200" type="line"/>
    </contour>
    <contour>
      <point x="132" y="217" type="line"/>
      <point x="192" y="217" type="line"/>
      <point x="192" y="629" type="line"/>
      <point x="132" y="629" type="line"/>
    </contour>
    <contour>
      <point x="353" y="240" type="line"/>
      <point x="424" y="240" type="line"/>
      <point x="524" y="332" type="line"/>
      <point x="463" y="332" type="line"/>
      <point x="422" y="303" type="line"/>
    </contour>
    <contour>
      <point x="349" y="332" type="line"/>
      <point x="613" y="332" type="line"/>
      <point x="613" y="532" type="line"/>
      <point x="538" y="532"/>
      <point x="451" y="507"/>
      <point x="451" y="416" type="curve"/>
      <point x="511" y="416" type="line"/>
      <point x="511" y="507"/>
      <point x="421" y="532"/>
      <point x="349" y="532" type="curve"/>
    </contour>
    <component base="serif_sup_der" xOffset="10" yOffset="230"/>
    <component base="serif_sup_izq" xOffset="10" yOffset="230"/>
    <component base="serif_inf_der" xOffset="10"/>
    <component base="serif_inf_izq" xOffset="10"/>
  </outline>
</glyph>
<glyph name="l" format="2">
  <advance width="324"/>
  <unicode hex="006C"/>
  <anchor x="162" y="0" name="bottom"/>
  <anchor x="162" y="370" name="center"/>
  <anchor x="162" y="727" name="top"/>
  <anchor x="289" y="750" name="topright"/>
  <outline>
    <contour>
      <point x="132" y="55" type="line"/>
      <point x="192" y="55" type="line"/>
      <point x="192" y="547" type="line"/>
      <point x="132" y="547" type="line"/>
    </contour>
    <component base="serif_inf_der" xOffset="10"/>
    <component base="serif_inf_izq" xOffset="10"/>
    <component base="serif_sup_der" xOffset="10" yOffset="230"/>
    <component base="serif_sup_izq" xOffset="10" yOffset="230"/>
  </outline>
</glyph>
<glyph name="m" format="2">
  <advance width="964"/>
  <unicode hex="006D"/>
  <anchor x="475" y="0" name="bottom"/>
  <anchor x="475" y="520" name="top"/>
  <outline>
    <contour>
      <point x="132" y="274" type="curve"/>
      <point x="192" y="274" type="line"/>
      <point x="192" y="284"/>
      <point x="192" y="315"/>
      <point x="192" y="360" type="curve" smooth="yes"/>
      <point x="192" y="421"/>
      <point x="179" y="520"/>
      <point x="30" y="520" type="curve"/>
      <point x="30" y="320" type="line"/>
      <point x="116" y="320"/>
      <point x="132" y="309"/>
    </contour>
    <contour>
      <point x="132" y="224" type="line"/>
      <point x="192" y="224" type="line"/>
      <point x="192" y="307" type="line"/>
      <point x="132" y="307" type="line"/>
    </contour>
    <contour>
      <point x="452" y="202" type="line"/>
      <point x="512" y="202" type="line"/>
      <point x="512" y="285" type="line"/>
      <point x="452" y="285" type="line"/>
    </contour>
    <contour>
      <point x="772" y="202" type="line"/>
      <point x="832" y="202" type="line"/>
      <point x="832" y="285" type="line"/>
      <point x="772" y="285" type="line"/>
    </contour>
    <component base="serif_inf_der" xOffset="10"/>
    <component base="serif_inf_izq" xOffset="10"/>
    <component base="serif_inf_der" xOffset="330"/>
    <component base="serif_inf_izq" xOffset="330"/>
    <component base="serif_inf_der" xOffset="650"/>
    <component base="ataque_n" xOffset="10" yOffset="10"/>
    <component base="ataque_n" xOffset="330" yOffset="10"/>
    <component base="serif_inf_izq" xOffset="650"/>
  </outline>
</glyph>
<glyph name="n" format="2">
  <advance width="644"/>
  <unicode hex="006E"/>
  <anchor x="315" y="0" name="bottom"/>
  <anchor x="324" y="520" name="top"/>
  <outline>
    <contour>
      <point x="132" y="274" type="curve"/>
      <point x="192" y="274" type="line"/>
      <point x="192" y="284"/>
      <point x="192" y="315"/>
      <point x="192" y="360" type="curve" smooth="yes"/>
      <point x="192" y="421"/>
      <point x="179" y="520"/>
      <point x="30" y="520" type="curve"/>
      <point x="30" y="320" type="line"/>
      <point x="116" y="320"/>
      <point x="132" y="309"/>
    </contour>
    <contour>
      <point x="132" y="209" type="line"/>
      <point x="192" y="209" type="line"/>
      <point x="192" y="298" type="line"/>
      <point x="132" y="298" type="line"/>
    </contour>
    <contour>
      <point x="452" y="209" type="line"/>
      <point x="512" y="209" type="line"/>
      <point x="512" y="298" type="line"/>
      <point x="452" y="298" type="line"/>
    </contour>
    <component base="serif_inf_der" xOffset="10"/>
    <component base="serif_inf_izq" xOffset="10"/>
    <component base="serif_inf_izq" xOffset="330"/>
    <component base="serif_inf_der" xOffset="330"/>
    <component base="ataque_n" xOffset="10" yOffset="10"/>
  </outline>
</glyph>
<glyph name="o" format="2">
  <advance width="475"/>
  <unicode hex="006F"/>
  <guideline x="238" y="89" angle="0"/>
  <guideline x="241" y="429" angle="0"/>
  <guideline x="97" y="315" angle="0"/>
  <guideline x="97" y="205" angle="0"/>
  <guideline x="117" y="529" angle="270"/>
  <guideline x="354" y="531" angle="270"/>
  <guideline x="324" y="330" angle="270"/>
  <guideline x="147" y="330" angle="270"/>
  <guideline x="238" y="530" angle="270"/>
  <guideline x="31" y="260" angle="0"/>
  <anchor x="238" y="0" name="bottom"/>
  <anchor x="238" y="260" name="center"/>
  <anchor x="295" y="17" name="ogonek"/>
  <anchor x="238" y="520" name="top"/>
  <anchor x="238" y="520" name="topright"/>
  <outline>
    <contour>
      <point x="238" y="-10" type="curve" smooth="yes"/>
      <point x="354" y="-11"/>
      <point x="439" y="91"/>
      <point x="439" y="260" type="curve" smooth="yes"/>
      <point x="439" y="429"/>
      <point x="354" y="531"/>
      <point x="238" y="530" type="curve" smooth="yes"/>
      <point x="117" y="529"/>
      <point x="37" y="429"/>
      <point x="37" y="260" type="curve" smooth="yes"/>
      <point x="37" y="91"/>
      <point x="117" y="-9"/>
    </contour>
    <contour>
      <point x="238" y="190" type="curve" smooth="yes"/>
      <point x="147" y="190"/>
      <point x="97" y="205"/>
      <point x="97" y="260" type="curve" smooth="yes"/>
      <point x="97" y="315"/>
      <point x="147" y="330"/>
      <point x="238" y="330" type="curve" smooth="yes"/>
      <point x="324" y="330"/>
      <point x="379" y="315"/>
      <point x="379" y="260" type="curve" smooth="yes"/>
      <point x="379" y="205"/>
      <point x="324" y="190"/>
    </contour>
  </outline>
</glyph>
<glyph name="p" format="2">
  <advance width="549"/>
  <unicode hex="0070"/>
  <anchor x="271" y="0" name="bottom"/>
  <anchor x="271" y="520" name="top"/>
  <outline>
    <contour>
      <point x="132" y="274" type="curve"/>
      <point x="192" y="274" type="line"/>
      <point x="192" y="284"/>
      <point x="192" y="315"/>
      <point x="192" y="360" type="curve" smooth="yes"/>
      <point x="192" y="406"/>
      <point x="179" y="520"/>
      <point x="50" y="520" type="curve"/>
      <point x="50" y="320" type="line"/>
      <point x="116" y="320"/>
      <point x="132" y="309"/>
    </contour>
    <contour>
      <point x="132" y="-36" type="line"/>
      <point x="192" y="-36" type="line"/>
      <point x="192" y="309" type="line"/>
      <point x="132" y="309" type="line"/>
    </contour>
    <component base="serif_inf_izq" xOffset="10" yOffset="-230"/>
    <component base="serif_inf_der" xOffset="10" yOffset="-230"/>
    <component base="aro_min" xOffset="161"/>
  </outline>
</glyph>
<glyph name="q" format="2">
  <advance width="550"/>
  <unicode hex="0071"/>
  <anchor x="264" y="0" name="bottom"/>
  <anchor x="264" y="520" name="top"/>
  <outline>
    <contour>
      <point x="357" y="274" type="curve"/>
      <point x="375" y="274"/>
      <point x="404" y="274"/>
      <point x="417" y="274" type="curve"/>
      <point x="417" y="309"/>
      <point x="433" y="320"/>
      <point x="479" y="320" type="curve"/>
      <point x="479" y="520" type="line"/>
      <point x="404" y="520"/>
      <point x="357" y="465"/>
      <point x="357" y="368" type="curve" smooth="yes"/>
      <point x="357" y="349"/>
      <point x="357" y="303"/>
    </contour>
    <contour>
      <point x="358" y="-175" type="line"/>
      <point x="418" y="-175" type="line"/>
      <point x="418" y="317" type="line"/>
      <point x="358" y="317" type="line"/>
    </contour>
    <component base="serif_inf_der" xOffset="236" yOffset="-230"/>
    <component base="serif_inf_izq" xOffset="236" yOffset="-230"/>
    <component base="aro_min" xScale="-1" xOffset="389"/>
  </outline>
</glyph>
<glyph name="r" format="2">
  <advance width="452"/>
  <unicode hex="0072"/>
  <anchor x="167" y="0" name="bottom"/>
  <anchor x="186" y="520" name="top"/>
  <outline>
    <contour>
      <point x="182" y="272" type="curve"/>
      <point x="192" y="272" type="line"/>
      <point x="192" y="316"/>
      <point x="221" y="327"/>
      <point x="427" y="327" type="curve"/>
      <point x="427" y="528" type="line"/>
      <point x="204" y="528"/>
      <point x="182" y="467"/>
    </contour>
    <contour>
      <point x="132" y="199" type="line"/>
      <point x="192" y="199" type="line"/>
      <point x="192" y="297" type="line"/>
      <point x="132" y="297" type="line"/>
    </contour>
    <contour>
      <point x="132" y="274" type="curve"/>
      <point x="192" y="274" type="line"/>
      <point x="192" y="284"/>
      <point x="192" y="315"/>
      <point x="192" y="360" type="curve" smooth="yes"/>
      <point x="192" y="421"/>
      <point x="179" y="520"/>
      <point x="30" y="520" type="curve"/>
      <point x="30" y="320" type="line"/>
      <point x="116" y="320"/>
      <point x="132" y="309"/>
    </contour>
    <component base="serif_inf_der" xOffset="10"/>
    <component base="serif_inf_izq" xOffset="10"/>
  </outline>
</glyph>
<glyph name="t" format="2">
  <advance width="520"/>
  <unicode hex="0074"/>
  <anchor x="283" y="0" name="bottom"/>
  <anchor x="161" y="240" name="center"/>
  <anchor x="300" y="520" name="top"/>
  <anchor x="450" y="520" name="topright"/>
  <outline>
    <contour>
      <point x="315" y="-10" type="curve" smooth="yes"/>
      <point x="433" y="-10"/>
      <point x="484" y="56"/>
      <point x="484" y="218" type="curve"/>
      <point x="423" y="218" type="line"/>
      <point x="423" y="199"/>
      <point x="412" y="190"/>
      <point x="323" y="190" type="curve" smooth="yes"/>
      <point x="221" y="190"/>
      <point x="194" y="197"/>
      <point x="192" y="250" type="curve"/>
      <point x="132" y="250" type="line"/>
      <point x="132" y="56"/>
      <point x="190" y="-10"/>
    </contour>
    <contour>
      <point x="132" y="274" type="curve"/>
      <point x="192" y="274" type="line"/>
      <point x="192" y="319"/>
      <point x="208" y="330"/>
      <point x="294" y="330" type="curve"/>
      <point x="192" y="388" type="line"/>
      <point x="132" y="388" type="line"/>
      <point x="30" y="330" type="line"/>
      <point x="116" y="330"/>
      <point x="132" y="319"/>
    </contour>
    <contour>
      <point x="132" y="248" type="line"/>
      <point x="192" y="248" type="line"/>
      <point x="192" y="604" type="line"/>
      <point x="132" y="604" type="line"/>
    </contour>
    <contour>
      <point x="132" y="462" type="line"/>
      <point x="192" y="462" type="line"/>
      <point x="294" y="520" type="line"/>
      <point x="208" y="520"/>
      <point x="192" y="531"/>
      <point x="192" y="576" type="curve"/>
      <point x="132" y="576" type="line"/>
      <point x="132" y="531"/>
      <point x="116" y="520"/>
      <point x="30" y="520" type="curve"/>
    </contour>
    <contour>
      <point x="30" y="330" type="line"/>
      <point x="490" y="330" type="line"/>
      <point x="490" y="520" type="line"/>
      <point x="30" y="520" type="line"/>
    </contour>
  </outline>
</glyph>
<glyph name="u" format="2">
  <advance width="644"/>
  <unicode hex="0075"/>
  <anchor x="322" y="0" name="bottom"/>
  <anchor x="614" y="-2" name="ogonek"/>
  <anchor x="322" y="520" name="top"/>
  <anchor x="614" y="520" name="topright"/>
  <outline>
    <contour>
      <point x="614" y="0" type="curve"/>
      <point x="614" y="200" type="line"/>
      <point x="528" y="200"/>
      <point x="512" y="211"/>
      <point x="512" y="246" type="curve"/>
      <point x="452" y="246" type="line"/>
      <point x="433" y="194" type="line"/>
      <point x="433" y="68"/>
      <point x="460" y="0"/>
    </contour>
    <contour>
      <point x="132" y="228" type="line"/>
      <point x="192" y="228" type="line"/>
      <point x="192" y="299" type="line"/>
      <point x="132" y="299" type="line"/>
    </contour>
    <contour>
      <point x="452" y="219" type="line"/>
      <point x="512" y="219" type="line"/>
      <point x="512" y="286" type="line"/>
      <point x="452" y="286" type="line"/>
    </contour>
    <component base="serif_sup_izq" xOffset="10"/>
    <component base="serif_sup_der" xOffset="10"/>
    <component base="serif_sup_izq" xOffset="330"/>
    <component base="serif_sup_der" xOffset="330"/>
    <component base="ataque_n" xScale="-1" yScale="-1" xOffset="634" yOffset="510"/>
  </outline>
</glyph>
<glyph name="v" format="2">
  <advance width="660"/>
  <unicode hex="0076"/>
  <anchor x="305" y="-9" name="bottom"/>
  <anchor x="305" y="520" name="top"/>
  <outline>
    <contour>
      <point x="366" y="320" type="line"/>
      <point x="630" y="320" type="line"/>
      <point x="630" y="520" type="line"/>
      <point x="554" y="520"/>
      <point x="468" y="486"/>
      <point x="468" y="414" type="curve"/>
      <point x="528" y="414" type="line"/>
      <point x="528" y="486"/>
      <point x="447" y="520"/>
      <point x="366" y="520" type="curve"/>
    </contour>
    <contour>
      <point x="198" y="0" type="line"/>
      <point x="274" y="0"/>
      <point x="360" y="34"/>
      <point x="360" y="106" type="curve"/>
      <point x="300" y="106" type="line"/>
      <point x="300" y="34"/>
      <point x="381" y="0"/>
      <point x="462" y="0" type="curve"/>
      <point x="462" y="200" type="line"/>
      <point x="198" y="200" type="line"/>
    </contour>
    <contour>
      <point x="249" y="196" type="line"/>
      <point x="325" y="196" type="line"/>
      <point x="215" y="303" type="line"/>
      <point x="185" y="321" type="line"/>
      <point x="119" y="321" type="line"/>
    </contour>
    <contour>
      <point x="20" y="320" type="line"/>
      <point x="284" y="320" type="line"/>
      <point x="284" y="520" type="line"/>
      <point x="203" y="520"/>
      <point x="122" y="486"/>
      <point x="122" y="414" type="curve"/>
      <point x="182" y="414" type="line"/>
      <point x="182" y="486"/>
      <point x="96" y="520"/>
      <point x="20" y="520" type="curve"/>
    </contour>
    <contour>
      <point x="325" y="196" type="line"/>
      <point x="401" y="196" type="line"/>
      <point x="531" y="321" type="line"/>
      <point x="465" y="321" type="line"/>
      <point x="435" y="303" type="line"/>
    </contour>
  </outline>
</glyph>
<glyph name="w" format="2">
  <advance width="946"/>
  <unicode hex="0077"/>
  <anchor x="388" y="0" name="bottom"/>
  <anchor x="393" y="520" name="top"/>
  <outline>
    <contour>
      <point x="652" y="320" type="line"/>
      <point x="916" y="320" type="line"/>
      <point x="916" y="520" type="line"/>
      <point x="840" y="520"/>
      <point x="754" y="486"/>
      <point x="754" y="414" type="curve"/>
      <point x="814" y="414" type="line"/>
      <point x="814" y="486"/>
      <point x="733" y="520"/>
      <point x="652" y="520" type="curve"/>
    </contour>
    <contour>
      <point x="178" y="0" type="line"/>
      <point x="254" y="0"/>
      <point x="340" y="34"/>
      <point x="340" y="106" type="curve"/>
      <point x="280" y="106" type="line"/>
      <point x="280" y="34"/>
      <point x="361" y="0"/>
      <point x="442" y="0" type="curve"/>
      <point x="442" y="200" type="line"/>
      <point x="178" y="200" type="line"/>
    </contour>
    <contour>
      <point x="249" y="196" type="line"/>
      <point x="310" y="196" type="line"/>
      <point x="220" y="303" type="line"/>
      <point x="190" y="321" type="line"/>
      <point x="129" y="321" type="line"/>
      <point x="224" y="213" type="line"/>
    </contour>
    <contour>
      <point x="20" y="320" type="line"/>
      <point x="284" y="320" type="line"/>
      <point x="284" y="520" type="line"/>
      <point x="203" y="520"/>
      <point x="122" y="486"/>
      <point x="122" y="414" type="curve"/>
      <point x="182" y="414" type="line"/>
      <point x="182" y="486"/>
      <point x="96" y="520"/>
      <point x="20" y="520" type="curve"/>
    </contour>
    <contour>
      <point x="300" y="196" type="line"/>
      <point x="371" y="196" type="line"/>
      <point x="491" y="321" type="line"/>
      <point x="430" y="321" type="line"/>
      <point x="400" y="303" type="line"/>
    </contour>
    <contour>
      <point x="494" y="0" type="line"/>
      <point x="575" y="0"/>
      <point x="656" y="34"/>
      <point x="656" y="106" type="curve"/>
      <point x="596" y="106" type="line"/>
      <point x="596" y="34"/>
      <point x="682" y="0"/>
      <point x="758" y="0" type="curve"/>
      <point x="758" y="200" type="line"/>
      <point x="494" y="200" type="line"/>
    </contour>
    <contour>
      <point x="565" y="196" type="line"/>
      <point x="636" y="196" type="line"/>
      <point x="536" y="303" type="line"/>
      <point x="506" y="321" type="line"/>
      <point x="445" y="321" type="line"/>
    </contour>
    <contour>
      <point x="336" y="320" type="line"/>
      <point x="600" y="320" type="line"/>
      <point x="600" y="520" type="line"/>
      <point x="524" y="520"/>
      <point x="438" y="486"/>
      <point x="438" y="414" type="curve"/>
      <point x="498" y="414" type="line"/>
      <point x="498" y="486"/>
      <point x="417" y="520"/>
      <point x="336" y="520" type="curve"/>
    </contour>
    <contour>
      <point x="626" y="196" type="line"/>
      <point x="687" y="196" type="line"/>
      <point x="710" y="210" type="line"/>
      <point x="807" y="321" type="line"/>
      <point x="746" y="321" type="line"/>
      <point x="716" y="303" type="line"/>
    </contour>
  </outline>
</glyph>
<glyph name="x" format="2">
  <advance width="634"/>
  <unicode hex="0078"/>
  <anchor x="301" y="0" name="bottom"/>
  <anchor x="301" y="520" name="top"/>
  <outline>
    <contour>
      <point x="317" y="236" type="line"/>
      <point x="317" y="286" type="line"/>
      <point x="264" y="308" type="line"/>
      <point x="124" y="336" type="line"/>
      <point x="124" y="321" type="line"/>
    </contour>
    <contour>
      <point x="30" y="320" type="line"/>
      <point x="294" y="320" type="line"/>
      <point x="294" y="520" type="line"/>
      <point x="212" y="520"/>
      <point x="124" y="491"/>
      <point x="124" y="404" type="curve"/>
      <point x="192" y="404" type="line"/>
      <point x="192" y="491"/>
      <point x="110" y="520"/>
      <point x="30" y="520" type="curve"/>
    </contour>
    <contour>
      <point x="124" y="184" type="line"/>
      <point x="262" y="213" type="line"/>
      <point x="317" y="236" type="line"/>
      <point x="317" y="286" type="line"/>
      <point x="124" y="199" type="line"/>
    </contour>
    <contour>
      <point x="340" y="320" type="line"/>
      <point x="604" y="320" type="line"/>
      <point x="604" y="520" type="line"/>
      <point x="524" y="520"/>
      <point x="442" y="491"/>
      <point x="442" y="404" type="curve"/>
      <point x="510" y="404" type="line"/>
      <point x="510" y="491"/>
      <point x="422" y="520"/>
      <point x="340" y="520" type="curve"/>
    </contour>
    <contour>
      <point x="30" y="0" type="line"/>
      <point x="110" y="0"/>
      <point x="192" y="29"/>
      <point x="192" y="116" type="curve"/>
      <point x="124" y="116" type="line"/>
      <point x="124" y="29"/>
      <point x="212" y="0"/>
      <point x="294" y="0" type="curve"/>
      <point x="294" y="200" type="line"/>
      <point x="30" y="200" type="line"/>
    </contour>
    <contour>
      <point x="340" y="0" type="line"/>
      <point x="422" y="0"/>
      <point x="510" y="29"/>
      <point x="510" y="116" type="curve"/>
      <point x="442" y="116" type="line"/>
      <point x="442" y="29"/>
      <point x="524" y="0"/>
      <point x="604" y="0" type="curve"/>
      <point x="604" y="200" type="line"/>
      <point x="340" y="200" type="line"/>
    </contour>
    <contour>
      <point x="510" y="184" type="line"/>
      <point x="510" y="199" type="line"/>
      <point x="317" y="286" type="line"/>
      <point x="317" y="236" type="line"/>
      <point x="372" y="213" type="line"/>
    </contour>
    <contour>
      <point x="317" y="236" type="line"/>
      <point x="510" y="321" type="line"/>
      <point x="510" y="336" type="line"/>
      <point x="372" y="308" type="line"/>
      <point x="317" y="286" type="line"/>
    </contour>
  </outline>
</glyph>
<glyph name="y" format="2">
  <advance width="644"/>
  <unicode hex="0079"/>
  <anchor x="322" y="0" name="bottom"/>
  <anchor x="322" y="520" name="top"/>
  <outline>
    <contour>
      <point x="303" y="-230" type="curve" smooth="yes"/>
      <point x="407" y="-229"/>
      <point x="512" y="-152"/>
      <point x="512" y="28" type="curve" smooth="yes"/>
      <point x="512" y="182" type="line"/>
      <point x="452" y="182" type="line"/>
      <point x="452" y="160" type="line"/>
      <point x="452" y="-1"/>
      <point x="403" y="-49"/>
      <point x="294" y="-49" type="curve" smooth="yes"/>
      <point x="185" y="-49"/>
      <point x="158" y="-1"/>
      <point x="158" y="24" type="curve"/>
      <point x="97" y="24" type="line"/>
      <point x="97" y="-147"/>
      <point x="155" y="-231"/>
    </contour>
    <contour>
      <point x="132" y="242" type="line"/>
      <point x="192" y="242" type="line"/>
      <point x="192" y="300" type="line"/>
      <point x="132" y="300" type="line"/>
    </contour>
    <contour>
      <point x="512" y="89" type="line"/>
      <point x="512" y="287" type="line"/>
      <point x="452" y="287" type="line"/>
      <point x="452" y="129" type="line"/>
    </contour>
    <component base="serif_sup_izq" xOffset="10"/>
    <component base="serif_sup_der" xOffset="10"/>
    <component base="serif_sup_izq" xOffset="330"/>
    <component base="serif_sup_der" xOffset="330"/>
    <component base="ataque_n" xScale="-1" yScale="-1" xOffset="634" yOffset="520"/>
  </outline>
</glyph>
<glyph name="z" format="2">
  <advance width="493"/>
  <unicode hex="007A"/>
  <anchor x="247" y="0" name="bottom"/>
  <anchor x="247" y="520" name="top"/>
  <outline>
    <contour>
      <point x="30" y="0" type="line"/>
      <point x="199" y="0" type="line" smooth="yes"/>
      <point x="314" y="0"/>
      <point x="361" y="55"/>
      <point x="361" y="108" type="curve" smooth="yes"/>
      <point x="361" y="200" type="line"/>
      <point x="110" y="200" type="line"/>
      <point x="130" y="200" type="line"/>
      <point x="206" y="219" type="line"/>
      <point x="463" y="320" type="line"/>
      <point x="463" y="520" type="line"/>
      <point x="294" y="520" type="line" smooth="yes"/>
      <point x="179" y="520"/>
      <point x="132" y="465"/>
      <point x="132" y="412" type="curve" smooth="yes"/>
      <point x="132" y="320" type="line"/>
      <point x="385" y="320" type="line"/>
      <point x="365" y="320" type="line"/>
      <point x="294" y="303" type="line"/>
      <point x="30" y="200" type="line"/>
    </contour>
    <contour>
      <point x="30" y="293" type="line"/>
      <point x="90" y="293" type="line"/>
      <point x="90" y="401" type="line"/>
      <point x="30" y="401" type="line"/>
    </contour>
    <contour>
      <point x="463" y="0" type="curve"/>
      <point x="463" y="200" type="line"/>
      <point x="301" y="200" type="line"/>
      <point x="301" y="108" type="line"/>
      <point x="301" y="55"/>
      <point x="348" y="0"/>
    </contour>
    <contour>
      <point x="30" y="320" type="line"/>
      <point x="192" y="320" type="line"/>
      <point x="192" y="412" type="line"/>
      <point x="192" y="465"/>
      <point x="145" y="520"/>
      <point x="30" y="520" type="curve"/>
    </contour>
    <contour>
      <point x="403" y="120" type="line"/>
      <point x="463" y="120" type="line"/>
      <point x="463" y="228" type="line"/>
      <point x="403" y="228" type="line"/>
    </contour>
  </outline>
</glyph>
<glyph name="bar" format="2">
  <advance width="140"/>
  <unicode hex="007C"/>
  <outline>
    <contour>
      <point x="30" y="-188" type="line"/>
      <point x="110" y="-188" type="line"/>
      <point x="110" y="710" type="line"/>
      <point x="30" y="710" type="line"/>
    </contour>
  </outline>
</glyph>
<glyph name="braceright" format="2">
  <advance width="311"/>
  <unicode hex="007D"/>
  <outline>
    <contour>
      <point x="291" y="256" type="curve"/>
      <point x="291" y="293" type="line"/>
      <point x="226" y="293"/>
      <point x="205" y="299"/>
      <point x="205" y="398" type="curve" smooth="yes"/>
      <point x="205" y="705"/>
      <point x="138" y="740"/>
      <point x="20" y="740" type="curve"/>
      <point x="20" y="540" type="line"/>
      <point x="96" y="540"/>
      <point x="145" y="542"/>
      <point x="145" y="399" type="curve" smooth="yes"/>
      <point x="145" y="257"/>
      <point x="187" y="256"/>
    </contour>
    <contour>
      <point x="20" y="-210" type="line"/>
      <point x="138" y="-210"/>
      <point x="205" y="-175"/>
      <point x="205" y="132" type="curve" smooth="yes"/>
      <point x="205" y="231"/>
      <point x="226" y="233"/>
      <point x="291" y="233" type="curve"/>
      <point x="291" y="270" type="line"/>
      <point x="187" y="270"/>
      <point x="145" y="273"/>
      <point x="145" y="131" type="curve" smooth="yes"/>
      <point x="145" y="-12"/>
      <point x="96" y="-10"/>
      <point x="20" y="-10" type="curve"/>
    </contour>
  </outline>
</glyph>
<glyph name="asciitilde" format="2">
  <advance width="600"/>
  <unicode hex="007E"/>
  <outline>
    <contour>
      <point x="31" y="170" type="curve"/>
      <point x="109" y="170"/>
      <point x="141" y="207"/>
      <point x="141" y="243" type="curve"/>
      <point x="101" y="243" type="line"/>
      <point x="101" y="207"/>
      <point x="133" y="170"/>
      <point x="211" y="170" type="curve"/>
      <point x="211" y="226"/>
      <point x="241" y="240"/>
      <point x="255" y="240" type="curve" smooth="yes"/>
      <point x="342" y="240"/>
      <point x="343" y="170"/>
      <point x="444" y="170" type="curve" smooth="yes"/>
      <point x="516" y="170"/>
      <point x="554" y="196"/>
      <point x="554" y="360" type="curve"/>
      <point x="476" y="360"/>
      <point x="444" y="323"/>
      <point x="444" y="287" type="curve"/>
      <point x="484" y="287" type="line"/>
      <point x="484" y="323"/>
      <point x="452" y="360"/>
      <point x="374" y="360" type="curve"/>
      <point x="374" y="296"/>
      <point x="343" y="286"/>
      <point x="318" y="286" type="curve" smooth="yes"/>
      <point x="240" y="286"/>
      <point x="225" y="365"/>
      <point x="141" y="365" type="curve" smooth="yes"/>
      <point x="65" y="365"/>
      <point x="31" y="324"/>
    </contour>
  </outline>
</glyph>
<glyph name="cent" format="2">
  <advance width="452"/>
  <unicode hex="00A2"/>
  <outline>
    <contour>
      <point x="221" y="45" type="curve" smooth="yes"/>
      <point x="358" y="45"/>
      <point x="422" y="125"/>
      <point x="422" y="285" type="curve"/>
      <point x="371" y="285" type="line"/>
      <point x="371" y="262"/>
      <point x="353" y="245"/>
      <point x="219" y="245" type="curve" smooth="yes"/>
      <point x="99" y="245"/>
      <point x="80" y="252"/>
      <point x="80" y="315" type="curve" smooth="yes"/>
      <point x="80" y="378"/>
      <point x="99" y="385"/>
      <point x="222" y="385" type="curve" smooth="yes"/>
      <point x="333" y="385"/>
      <point x="371" y="371"/>
      <point x="371" y="345" type="curve"/>
      <point x="371" y="345"/>
      <point x="422" y="345"/>
      <point x="422" y="345" type="curve"/>
      <point x="422" y="501"/>
      <point x="368" y="585"/>
      <point x="221" y="585" type="curve" smooth="yes"/>
      <point x="96" y="585"/>
      <point x="20" y="496"/>
      <point x="20" y="315" type="curve" smooth="yes"/>
      <point x="20" y="134"/>
      <point x="96" y="45"/>
    </contour>
    <contour>
      <point x="201" y="-53" type="line"/>
      <point x="261" y="-53" type="line"/>
      <point x="261" y="95" type="line"/>
      <point x="201" y="95" type="line"/>
    </contour>
    <contour>
      <point x="201" y="535" type="line"/>
      <point x="261" y="535" type="line"/>
      <point x="261" y="683" type="line"/>
      <point x="201" y="683" type="line"/>
    </contour>
  </outline>
</glyph>
<glyph name="sterling" format="2">
  <advance width="496"/>
  <unicode hex="00A3"/>
  <outline>
    <contour>
      <point x="20" y="157" type="line"/>
      <point x="111" y="157"/>
      <point x="151" y="232"/>
      <point x="151" y="296" type="curve" smooth="yes"/>
      <point x="151" y="367"/>
      <point x="80" y="383"/>
      <point x="80" y="431" type="curve" smooth="yes"/>
      <point x="80" y="464"/>
      <point x="90" y="480"/>
      <point x="236" y="480" type="curve" smooth="yes"/>
      <point x="352" y="480"/>
      <point x="387" y="464"/>
      <point x="387" y="440" type="curve"/>
      <point x="447" y="440" type="line"/>
      <point x="447" y="643"/>
      <point x="343" y="680"/>
      <point x="236" y="680" type="curve" smooth="yes"/>
      <point x="126" y="680"/>
      <point x="20" y="634"/>
      <point x="20" y="452" type="curve" smooth="yes"/>
      <point x="20" y="331"/>
      <point x="101" y="337"/>
      <point x="101" y="296" type="curve" smooth="yes"/>
      <point x="101" y="258"/>
      <point x="81" y="217"/>
      <point x="20" y="217" type="curve"/>
    </contour>
    <contour>
      <point x="20" y="0" type="line"/>
      <point x="135" y="1"/>
      <point x="182" y="76"/>
      <point x="182" y="129" type="curve"/>
      <point x="182" y="201" type="line"/>
      <point x="20" y="201" type="line"/>
    </contour>
    <contour>
      <point x="284" y="1" type="curve"/>
      <point x="456" y="1" type="line"/>
      <point x="456" y="201" type="line"/>
      <point x="152" y="201" type="line"/>
      <point x="152" y="139" type="line" smooth="yes"/>
      <point x="152" y="57"/>
      <point x="169" y="1"/>
    </contour>
    <contour>
      <point x="5" y="265" type="line"/>
      <point x="349" y="265" type="line"/>
      <point x="349" y="330" type="line"/>
      <point x="5" y="330" type="line"/>
    </contour>
  </outline>
</glyph>
<glyph name="currency" format="2">
  <advance width="600"/>
  <unicode hex="00A4"/>
  <outline>
    <contour>
      <point x="303" y="49" type="curve" smooth="yes"/>
      <point x="452" y="49"/>
      <point x="532" y="170"/>
      <point x="532" y="319" type="curve" smooth="yes"/>
      <point x="532" y="467"/>
      <point x="452" y="588"/>
      <point x="303" y="588" type="curve" smooth="yes"/>
      <point x="154" y="588"/>
      <point x="74" y="467"/>
      <point x="74" y="319" type="curve" smooth="yes"/>
      <point x="74" y="170"/>
      <point x="154" y="49"/>
    </contour>
    <contour>
      <point x="74" y="40" type="line"/>
      <point x="175" y="140" type="line"/>
      <point x="126" y="189" type="line"/>
      <point x="26" y="88" type="line"/>
    </contour>
    <contour>
      <point x="126" y="441" type="line"/>
      <point x="175" y="490" type="line"/>
      <point x="74" y="590" type="line"/>
      <point x="26" y="542" type="line"/>
    </contour>
    <contour>
      <point x="528" y="40" type="line"/>
      <point x="576" y="88" type="line"/>
      <point x="476" y="189" type="line"/>
      <point x="427" y="140" type="line"/>
    </contour>
    <contour>
      <point x="303" y="248" type="curve" smooth="yes"/>
      <point x="187" y="248"/>
      <point x="133" y="261"/>
      <point x="133" y="319" type="curve" smooth="yes"/>
      <point x="133" y="376"/>
      <point x="187" y="389"/>
      <point x="303" y="389" type="curve" smooth="yes"/>
      <point x="419" y="389"/>
      <point x="473" y="376"/>
      <point x="473" y="319" type="curve" smooth="yes"/>
      <point x="473" y="261"/>
      <point x="419" y="248"/>
    </contour>
    <contour>
      <point x="476" y="441" type="line"/>
      <point x="576" y="542" type="line"/>
      <point x="528" y="590" type="line"/>
      <point x="427" y="490" type="line"/>
    </contour>
  </outline>
</glyph>
<glyph name="yen" format="2">
  <advance width="660"/>
  <unicode hex="00A5"/>
  <outline>
    <contour>
      <point x="366" y="480" type="line"/>
      <point x="630" y="480" type="line"/>
      <point x="630" y="680" type="line"/>
      <point x="554" y="680"/>
      <point x="468" y="646"/>
      <point x="468" y="574" type="curve"/>
      <point x="528" y="574" type="line"/>
      <point x="528" y="646"/>
      <point x="447" y="680"/>
      <point x="366" y="680" type="curve"/>
    </contour>
    <contour>
      <point x="300" y="166" type="line"/>
      <point x="360" y="166" type="line"/>
      <point x="360" y="340" type="line"/>
      <point x="300" y="340" type="line"/>
    </contour>
    <contour>
      <point x="170" y="225" type="line"/>
      <point x="494" y="225" type="line"/>
      <point x="494" y="290" type="line"/>
      <point x="170" y="290" type="line"/>
    </contour>
    <contour>
      <point x="170" y="311" type="line"/>
      <point x="372" y="311" type="line"/>
      <point x="271" y="376" type="line"/>
      <point x="170" y="376" type="line"/>
    </contour>
    <contour>
      <point x="260" y="340" type="line"/>
      <point x="330" y="340" type="line"/>
      <point x="201" y="492" type="line"/>
      <point x="131" y="492" type="line"/>
    </contour>
    <contour>
      <point x="287" y="311" type="line"/>
      <point x="494" y="311" type="line"/>
      <point x="494" y="376" type="line"/>
      <point x="388" y="376" type="line"/>
    </contour>
    <contour>
      <point x="30" y="480" type="line"/>
      <point x="294" y="480" type="line"/>
      <point x="294" y="680" type="line"/>
      <point x="213" y="680"/>
      <point x="132" y="646"/>
      <point x="132" y="574" type="curve"/>
      <point x="192" y="574" type="line"/>
      <point x="192" y="646"/>
      <point x="106" y="680"/>
      <point x="30" y="680" type="curve"/>
    </contour>
    <contour>
      <point x="330" y="340" type="line"/>
      <point x="400" y="340" type="line"/>
      <point x="529" y="492" type="line"/>
      <point x="459" y="492" type="line"/>
    </contour>
    <component base="serif_inf_der" xOffset="178" yOffset="-9"/>
    <component base="serif_inf_izq" xOffset="178" yOffset="-9"/>
  </outline>
</glyph>
<glyph name="brokenbar" format="2">
  <advance width="140"/>
  <unicode hex="00A6"/>
  <outline>
    <contour>
      <point x="30" y="342" type="line"/>
      <point x="110" y="342" type="line"/>
      <point x="110" y="710" type="line"/>
      <point x="30" y="710" type="line"/>
    </contour>
    <contour>
      <point x="30" y="-178" type="line"/>
      <point x="110" y="-178" type="line"/>
      <point x="110" y="190" type="line"/>
      <point x="30" y="190" type="line"/>
    </contour>
  </outline>
</glyph>
<glyph name="dieresis" format="2">
  <advance width="431"/>
  <unicode hex="00A8"/>
  <anchor x="216" y="520" name="_top"/>
  <outline>
    <contour>
      <point x="326" y="566" type="curve" smooth="yes"/>
      <point x="373" y="566"/>
      <point x="411" y="604"/>
      <point x="411" y="651" type="curve" smooth="yes"/>
      <point x="411" y="698"/>
      <point x="373" y="736"/>
      <point x="326" y="736" type="curve" smooth="yes"/>
      <point x="280" y="736"/>
      <point x="241" y="698"/>
      <point x="241" y="651" type="curve" smooth="yes"/>
      <point x="241" y="604"/>
      <point x="280" y="566"/>
    </contour>
    <contour>
      <point x="105" y="566" type="curve" smooth="yes"/>
      <point x="151" y="566"/>
      <point x="190" y="604"/>
      <point x="190" y="651" type="curve" smooth="yes"/>
      <point x="190" y="698"/>
      <point x="151" y="736"/>
      <point x="105" y="736" type="curve" smooth="yes"/>
      <point x="58" y="736"/>
      <point x="20" y="698"/>
      <point x="20" y="651" type="curve" smooth="yes"/>
      <point x="20" y="604"/>
      <point x="58" y="566"/>
    </contour>
  </outline>
</glyph>
<glyph name="copyright" format="2">
  <advance width="805"/>
  <unicode hex="00A9"/>
  <outline>
    <contour>
      <point x="403" y="-17" type="curve" smooth="yes"/>
      <point x="614" y="-17"/>
      <point x="785" y="154"/>
      <point x="785" y="365" type="curve" smooth="yes"/>
      <point x="785" y="576"/>
      <point x="614" y="747"/>
      <point x="403" y="747" type="curve" smooth="yes"/>
      <point x="191" y="747"/>
      <point x="20" y="576"/>
      <point x="20" y="365" type="curve" smooth="yes"/>
      <point x="20" y="154"/>
      <point x="191" y="-17"/>
    </contour>
    <contour>
      <point x="403" y="95" type="curve" smooth="yes"/>
      <point x="278" y="95"/>
      <point x="202" y="184"/>
      <point x="202" y="365" type="curve" smooth="yes"/>
      <point x="202" y="546"/>
      <point x="278" y="635"/>
      <point x="403" y="635" type="curve" smooth="yes"/>
      <point x="534" y="635"/>
      <point x="604" y="556"/>
      <point x="604" y="395" type="curve"/>
      <point x="554" y="395" type="line"/>
      <point x="554" y="411"/>
      <point x="545" y="435"/>
      <point x="403" y="435" type="curve" smooth="yes"/>
      <point x="281" y="435"/>
      <point x="262" y="428"/>
      <point x="262" y="365" type="curve" smooth="yes"/>
      <point x="262" y="302"/>
      <point x="281" y="295"/>
      <point x="403" y="295" type="curve" smooth="yes"/>
      <point x="545" y="295"/>
      <point x="554" y="303"/>
      <point x="554" y="325" type="curve"/>
      <point x="604" y="325" type="line"/>
      <point x="604" y="183"/>
      <point x="546" y="95"/>
    </contour>
  </outline>
</glyph>
<glyph name="ordfeminine" format="2">
  <advance width="452"/>
  <unicode hex="00AA"/>
  <anchor x="275" y="231" name="bottom"/>
  <anchor x="478" y="241" name="ogonek"/>
  <anchor x="257" y="761" name="top"/>
  <outline>
    <contour>
      <point x="193" y="294" type="curve" smooth="yes"/>
      <point x="346" y="294"/>
      <point x="397" y="465"/>
      <point x="397" y="521" type="curve" smooth="yes"/>
      <point x="397" y="689"/>
      <point x="347" y="750"/>
      <point x="210" y="750" type="curve" smooth="yes"/>
      <point x="67" y="750"/>
      <point x="21" y="684"/>
      <point x="21" y="541" type="curve"/>
      <point x="48" y="541" type="line"/>
      <point x="48" y="577"/>
      <point x="68" y="570"/>
      <point x="200" y="570" type="curve" smooth="yes"/>
      <point x="356" y="570"/>
      <point x="362" y="563"/>
      <point x="362" y="521" type="curve" smooth="yes"/>
      <point x="362" y="485"/>
      <point x="356" y="474"/>
      <point x="200" y="474" type="curve" smooth="yes"/>
      <point x="65" y="474"/>
      <point x="48" y="477"/>
      <point x="48" y="490" type="curve" smooth="yes"/>
      <point x="48" y="499"/>
      <point x="54" y="507"/>
      <point x="200" y="507" type="curve" smooth="yes"/>
      <point x="377" y="507" type="line"/>
      <point x="377" y="535" type="line"/>
      <point x="200" y="535" type="line" smooth="yes"/>
      <point x="37" y="535"/>
      <point x="20" y="517"/>
      <point x="20" y="484" type="curve" smooth="yes"/>
      <point x="20" y="349"/>
      <point x="60" y="294"/>
    </contour>
    <contour>
      <point x="432" y="301" type="curve"/>
      <point x="432" y="480" type="line"/>
      <point x="407" y="480"/>
      <point x="397" y="492"/>
      <point x="397" y="521" type="curve"/>
      <point x="387" y="521" type="line"/>
      <point x="328" y="455" type="line"/>
      <point x="328" y="339"/>
      <point x="360" y="301"/>
    </contour>
  </outline>
</glyph>
<glyph name="logicalnot" format="2">
  <advance width="559"/>
  <unicode hex="00AC"/>
  <outline>
    <contour>
      <point x="30" y="213" type="curve"/>
      <point x="528" y="213" type="line"/>
      <point x="528" y="393" type="line"/>
      <point x="30" y="393" type="line"/>
      <point x="30" y="315"/>
      <point x="67" y="283"/>
      <point x="103" y="283" type="curve"/>
      <point x="103" y="323" type="line"/>
      <point x="67" y="323"/>
      <point x="30" y="291"/>
    </contour>
    <contour>
      <point x="469" y="75" type="line"/>
      <point x="529" y="75" type="line"/>
      <point x="529" y="347" type="line"/>
      <point x="469" y="347" type="line"/>
    </contour>
  </outline>
</glyph>
<glyph name="softhyphen" format="2">
  <advance width="437"/>
  <unicode hex="00AD"/>
  <outline>
    <contour>
      <point x="30" y="210" type="curve"/>
      <point x="407" y="210" type="line"/>
      <point x="407" y="297"/>
      <point x="366" y="333"/>
      <point x="326" y="333" type="curve"/>
      <point x="326" y="287" type="line"/>
      <point x="366" y="287"/>
      <point x="407" y="323"/>
      <point x="407" y="410" type="curve"/>
      <point x="30" y="410" type="line"/>
      <point x="30" y="323"/>
      <point x="71" y="287"/>
      <point x="111" y="287" type="curve"/>
      <point x="111" y="333" type="line"/>
      <point x="71" y="333"/>
      <point x="30" y="297"/>
    </contour>
  </outline>
</glyph>
<glyph name="registered" format="2">
  <advance width="805"/>
  <unicode hex="00AE"/>
  <outline>
    <contour>
      <point x="403" y="-17" type="curve" smooth="yes"/>
      <point x="614" y="-17"/>
      <point x="785" y="154"/>
      <point x="785" y="365" type="curve" smooth="yes"/>
      <point x="785" y="576"/>
      <point x="614" y="747"/>
      <point x="403" y="747" type="curve" smooth="yes"/>
      <point x="191" y="747"/>
      <point x="20" y="576"/>
      <point x="20" y="365" type="curve" smooth="yes"/>
      <point x="20" y="154"/>
      <point x="191" y="-17"/>
    </contour>
    <contour>
      <point x="416" y="136" type="curve"/>
      <point x="416" y="306" type="line"/>
      <point x="491" y="306" type="line"/>
      <point x="432" y="349" type="line"/>
      <point x="389" y="349"/>
      <point x="346" y="349"/>
      <point x="304" y="349" type="curve"/>
      <point x="304" y="343" type="line" smooth="yes"/>
      <point x="304" y="313"/>
      <point x="317" y="304"/>
      <point x="390" y="304" type="curve"/>
      <point x="390" y="136" type="line"/>
      <point x="336" y="136"/>
      <point x="300" y="150"/>
      <point x="279" y="170" type="curve"/>
      <point x="258" y="150"/>
      <point x="222" y="136"/>
      <point x="168" y="136" type="curve"/>
      <point x="168" y="304" type="line"/>
      <point x="240" y="304"/>
      <point x="254" y="313"/>
      <point x="254" y="343" type="curve" smooth="yes"/>
      <point x="254" y="427" type="line" smooth="yes"/>
      <point x="254" y="457"/>
      <point x="240" y="465"/>
      <point x="168" y="465" type="curve"/>
      <point x="168" y="634" type="line"/>
      <point x="256" y="634"/>
      <point x="293" y="614"/>
      <point x="302" y="556" type="curve"/>
      <point x="324" y="600"/>
      <point x="367" y="634"/>
      <point x="448" y="634" type="curve" smooth="yes"/>
      <point x="561" y="634"/>
      <point x="616" y="575"/>
      <point x="616" y="461" type="curve" smooth="yes"/>
      <point x="616" y="386.301"/>
      <point x="599.307" y="359.828"/>
      <point x="515.847" y="351.924" type="curve"/>
      <point x="567" y="306" type="line"/>
      <point x="640" y="306" type="line"/>
      <point x="640" y="136" type="line"/>
      <point x="597" y="136"/>
      <point x="554" y="146"/>
      <point x="528" y="171" type="curve"/>
      <point x="502" y="146"/>
      <point x="459" y="136"/>
    </contour>
    <contour>
      <point x="304" y="399" type="line"/>
      <point x="346" y="399"/>
      <point x="389" y="399"/>
      <point x="431" y="399" type="curve" smooth="yes"/>
      <point x="534" y="399"/>
      <point x="565" y="403"/>
      <point x="565" y="432" type="curve" smooth="yes"/>
      <point x="565" y="460"/>
      <point x="530" y="465"/>
      <point x="436" y="465" type="curve" smooth="yes"/>
      <point x="336" y="465"/>
      <point x="304" y="458"/>
      <point x="304" y="412" type="curve" smooth="yes"/>
    </contour>
  </outline>
</glyph>
<glyph name="macron" format="2">
  <advance width="358"/>
  <unicode hex="00AF"/>
  <anchor x="179" y="520" name="_top"/>
  <outline>
    <contour>
      <point x="20" y="580" type="curve"/>
      <point x="338" y="580" type="line"/>
      <point x="338" y="638"/>
      <point x="311" y="661"/>
      <point x="284" y="661" type="curve"/>
      <point x="284" y="631" type="line"/>
      <point x="311" y="631"/>
      <point x="338" y="654"/>
      <point x="338" y="712" type="curve"/>
      <point x="20" y="712" type="line"/>
      <point x="20" y="654"/>
      <point x="47" y="631"/>
      <point x="74" y="631" type="curve"/>
      <point x="74" y="661" type="line"/>
      <point x="47" y="661"/>
      <point x="20" y="638"/>
    </contour>
  </outline>
</glyph>
<glyph name="degree" format="2">
  <advance width="470"/>
  <unicode hex="00B0"/>
  <outline>
    <contour>
      <point x="237" y="292" type="curve" smooth="yes"/>
      <point x="365" y="292"/>
      <point x="450" y="379"/>
      <point x="450" y="521" type="curve" smooth="yes"/>
      <point x="450" y="663"/>
      <point x="365" y="749"/>
      <point x="237" y="749" type="curve" smooth="yes"/>
      <point x="103" y="749"/>
      <point x="20" y="665"/>
      <point x="20" y="521" type="curve" smooth="yes"/>
      <point x="20" y="377"/>
      <point x="103" y="292"/>
    </contour>
    <contour>
      <point x="137" y="436" type="curve" smooth="yes"/>
      <point x="105" y="436"/>
      <point x="80" y="452"/>
      <point x="80" y="474" type="curve" smooth="yes"/>
      <point x="80" y="526"/>
      <point x="262" y="605"/>
      <point x="333" y="605" type="curve" smooth="yes"/>
      <point x="366" y="605"/>
      <point x="390" y="588"/>
      <point x="390" y="566" type="curve" smooth="yes"/>
      <point x="390" y="515"/>
      <point x="207" y="436"/>
    </contour>
  </outline>
</glyph>
<glyph name="plusminus" format="2">
  <advance width="600"/>
  <unicode hex="00B1"/>
  <outline>
    <contour>
      <point x="42" y="357" type="curve"/>
      <point x="542" y="357" type="line"/>
      <point x="542" y="421"/>
      <point x="511" y="447"/>
      <point x="481" y="447" type="curve"/>
      <point x="481" y="415" type="line"/>
      <point x="511" y="415"/>
      <point x="542" y="441"/>
      <point x="542" y="505" type="curve"/>
      <point x="42" y="505" type="line"/>
      <point x="42" y="441"/>
      <point x="73" y="415"/>
      <point x="102" y="415" type="curve"/>
      <point x="102" y="447" type="line"/>
      <point x="73" y="447"/>
      <point x="42" y="421"/>
    </contour>
    <contour>
      <point x="32" y="78" type="curve"/>
      <point x="551" y="78" type="line"/>
      <point x="551" y="133"/>
      <point x="524" y="156"/>
      <point x="499" y="156" type="curve"/>
      <point x="499" y="127" type="line"/>
      <point x="524" y="127"/>
      <point x="551" y="150"/>
      <point x="551" y="205" type="curve"/>
      <point x="32" y="205" type="line"/>
      <point x="32" y="150"/>
      <point x="58" y="127"/>
      <point x="83" y="127" type="curve"/>
      <point x="83" y="156" type="line"/>
      <point x="58" y="156"/>
      <point x="32" y="133"/>
    </contour>
    <contour>
      <point x="227" y="258" type="line"/>
      <point x="357" y="258" type="line"/>
      <point x="357" y="604" type="line"/>
      <point x="227" y="604" type="line"/>
    </contour>
  </outline>
</glyph>
<glyph name="twosuperior" format="2">
  <advance width="434"/>
  <unicode hex="00B2"/>
  <outline>
    <contour>
      <point x="41" y="292" type="line"/>
      <point x="166" y="292" type="line" smooth="yes"/>
      <point x="266" y="292"/>
      <point x="306" y="340"/>
      <point x="306" y="385" type="curve"/>
      <point x="254" y="385" type="line"/>
      <point x="254" y="340"/>
      <point x="295" y="292"/>
      <point x="394" y="292" type="curve"/>
      <point x="394" y="476" type="line"/>
      <point x="86" y="476" type="line"/>
      <point x="96" y="425" type="line"/>
      <point x="96" y="473"/>
      <point x="140" y="497"/>
      <point x="207" y="497" type="curve" smooth="yes"/>
      <point x="355" y="497"/>
      <point x="394" y="512"/>
      <point x="394" y="566" type="curve" smooth="yes"/>
      <point x="394" y="697"/>
      <point x="355" y="750"/>
      <point x="207" y="750" type="curve" smooth="yes"/>
      <point x="53" y="750"/>
      <point x="40" y="642"/>
      <point x="40" y="541" type="curve"/>
      <point x="79" y="541" type="line"/>
      <point x="79" y="552"/>
      <point x="89" y="566"/>
      <point x="210" y="566" type="curve" smooth="yes"/>
      <point x="333" y="566"/>
      <point x="361" y="562"/>
      <point x="361" y="549" type="curve" smooth="yes"/>
      <point x="361" y="536"/>
      <point x="333" y="532"/>
      <point x="207" y="532" type="curve" smooth="yes"/>
      <point x="120" y="532"/>
      <point x="41" y="503"/>
      <point x="41" y="322" type="curve"/>
    </contour>
  </outline>
</glyph>
<glyph name="threesuperior" format="2">
  <advance width="436"/>
  <unicode hex="00B3"/>
  <outline>
    <contour>
      <point x="219" y="292" type="curve" smooth="yes"/>
      <point x="347" y="292"/>
      <point x="396" y="345"/>
      <point x="396" y="490" type="curve" smooth="yes"/>
      <point x="396" y="536"/>
      <point x="377" y="540"/>
      <point x="208" y="540" type="curve"/>
      <point x="208" y="528"/>
      <point x="208" y="517"/>
      <point x="208" y="505" type="curve"/>
      <point x="353" y="505"/>
      <point x="363" y="503"/>
      <point x="363" y="490" type="curve" smooth="yes"/>
      <point x="363" y="477"/>
      <point x="353" y="476"/>
      <point x="202" y="476" type="curve" smooth="yes"/>
      <point x="101" y="476"/>
      <point x="81" y="490"/>
      <point x="81" y="511" type="curve"/>
      <point x="75" y="511"/>
      <point x="48" y="511"/>
      <point x="42" y="511" type="curve"/>
      <point x="42" y="345"/>
      <point x="95" y="292"/>
    </contour>
    <contour>
      <point x="40" y="578" type="line"/>
      <point x="188" y="578" type="line"/>
      <point x="188" y="652" type="line"/>
      <point x="188" y="700"/>
      <point x="145" y="750"/>
      <point x="40" y="750" type="curve"/>
    </contour>
    <contour>
      <point x="219" y="506" type="line"/>
      <point x="219" y="506"/>
      <point x="393" y="578"/>
      <point x="393" y="578" type="curve"/>
      <point x="393" y="750" type="line"/>
      <point x="262" y="750" type="line" smooth="yes"/>
      <point x="158" y="750"/>
      <point x="133" y="700"/>
      <point x="133" y="652" type="curve" smooth="yes"/>
      <point x="133" y="578" type="line"/>
      <point x="374" y="578" type="line"/>
      <point x="362" y="601" type="line"/>
      <point x="362" y="601"/>
      <point x="208" y="540"/>
      <point x="208" y="540" type="curve"/>
    </contour>
  </outline>
</glyph>
<glyph name="acute" format="2">
  <advance width="285"/>
  <unicode hex="00B4"/>
  <anchor x="63" y="521" name="_top"/>
  <outline>
    <contour>
      <point x="66" y="569" type="line"/>
      <point x="265" y="644" type="line"/>
      <point x="204" y="706"/>
      <point x="134" y="716"/>
      <point x="105" y="687" type="curve"/>
      <point x="138" y="655" type="line"/>
      <point x="167" y="683"/>
      <point x="158" y="752"/>
      <point x="95" y="814" type="curve"/>
      <point x="20" y="616" type="line"/>
    </contour>
  </outline>
</glyph>
<glyph name="paragraph" format="2">
  <advance width="760"/>
  <unicode hex="00B6"/>
  <outline>
    <contour>
      <point x="272" y="206" type="curve"/>
      <point x="273" y="566" type="line"/>
      <point x="730" y="566" type="line"/>
      <point x="730" y="746" type="line"/>
      <point x="333" y="746" type="line" smooth="yes"/>
      <point x="111" y="746"/>
      <point x="30" y="598"/>
      <point x="30" y="471" type="curve" smooth="yes"/>
      <point x="30" y="318"/>
      <point x="110" y="206"/>
    </contour>
    <contour>
      <point x="272" y="-130" type="line"/>
      <point x="384" y="-130" type="line"/>
      <point x="384" y="599" type="line"/>
      <point x="272" y="599" type="line"/>
    </contour>
    <contour>
      <point x="541" y="-130" type="line"/>
      <point x="653" y="-130" type="line"/>
      <point x="653" y="746" type="line"/>
      <point x="541" y="746" type="line"/>
    </contour>
  </outline>
</glyph>
<glyph name="cedilla" format="2">
  <advance width="319"/>
  <unicode hex="00B8"/>
  <anchor x="156" y="-8" name="_bottom"/>
  <outline>
    <contour>
      <point x="163" y="-230" type="curve" smooth="yes"/>
      <point x="263" y="-230"/>
      <point x="299" y="-180"/>
      <point x="299" y="-130" type="curve" smooth="yes"/>
      <point x="299" y="-80"/>
      <point x="275" y="-30"/>
      <point x="151" y="-30" type="curve"/>
      <point x="145" y="-73" type="line"/>
      <point x="223" y="-73"/>
      <point x="234" y="-79"/>
      <point x="234" y="-90" type="curve" smooth="yes"/>
      <point x="234" y="-101"/>
      <point x="222" y="-107"/>
      <point x="142" y="-107" type="curve" smooth="yes"/>
      <point x="72" y="-107"/>
      <point x="60" y="-101"/>
      <point x="60" y="-85" type="curve"/>
      <point x="20" y="-85" type="line"/>
      <point x="20" y="-180"/>
      <point x="53" y="-230"/>
    </contour>
    <contour>
      <point x="117" y="-73" type="line"/>
      <point x="145" y="-73" type="line"/>
      <point x="200" y="28" type="line"/>
      <point x="156" y="28" type="line"/>
    </contour>
  </outline>
</glyph>
<glyph name="onesuperior" format="2">
  <advance width="314"/>
  <unicode hex="00B9"/>
  <outline>
    <contour>
      <point x="274" y="291" type="curve"/>
      <point x="274" y="471" type="line"/>
      <point x="199" y="471"/>
      <point x="186" y="480"/>
      <point x="186" y="511" type="curve"/>
      <point x="133" y="511" type="line"/>
      <point x="133" y="489"/>
      <point x="133" y="440"/>
      <point x="133" y="385" type="curve" smooth="yes"/>
      <point x="133" y="339"/>
      <point x="174" y="291"/>
    </contour>
    <contour>
      <point x="46" y="291" type="line"/>
      <point x="145" y="291"/>
      <point x="186" y="339"/>
      <point x="186" y="385" type="curve" smooth="yes"/>
      <point x="186" y="447"/>
      <point x="186" y="493"/>
      <point x="186" y="511" type="curve"/>
      <point x="133" y="511" type="line"/>
      <point x="133" y="480"/>
      <point x="119" y="471"/>
      <point x="46" y="471" type="curve"/>
    </contour>
    <contour>
      <point x="133" y="450" type="line"/>
      <point x="186" y="450" type="line"/>
      <point x="186" y="750" type="line"/>
      <point x="133" y="750" type="line"/>
    </contour>
    <contour>
      <point x="40" y="570" type="line"/>
      <point x="186" y="570" type="line"/>
      <point x="186" y="750" type="line"/>
      <point x="72" y="750" type="line"/>
    </contour>
  </outline>
</glyph>
<glyph name="ordmasculine" format="2">
  <advance width="458"/>
  <unicode hex="00BA"/>
  <outline>
    <contour>
      <point x="229" y="292" type="curve" smooth="yes"/>
      <point x="366" y="291"/>
      <point x="438" y="378"/>
      <point x="438" y="521" type="curve" smooth="yes"/>
      <point x="438" y="664"/>
      <point x="366" y="750"/>
      <point x="229" y="749" type="curve" smooth="yes"/>
      <point x="88" y="748"/>
      <point x="20" y="664"/>
      <point x="20" y="521" type="curve" smooth="yes"/>
      <point x="20" y="378"/>
      <point x="88" y="293"/>
    </contour>
    <contour>
      <point x="229" y="472" type="curve" smooth="yes"/>
      <point x="122" y="472"/>
      <point x="80" y="485"/>
      <point x="80" y="521" type="curve" smooth="yes"/>
      <point x="80" y="556"/>
      <point x="122" y="569"/>
      <point x="229" y="569" type="curve" smooth="yes"/>
      <point x="332" y="569"/>
      <point x="378" y="556"/>
      <point x="378" y="521" type="curve" smooth="yes"/>
      <point x="378" y="485"/>
      <point x="332" y="472"/>
    </contour>
  </outline>
</glyph>
<glyph name="onequarter" format="2">
  <advance width="889"/>
  <unicode hex="00BC"/>
  <outline>
    <contour>
      <point x="488" y="197" type="line"/>
      <point x="755" y="395" type="line"/>
      <point x="755" y="455" type="line"/>
      <point x="488" y="257" type="line"/>
    </contour>
    <contour>
      <point x="488" y="78" type="line"/>
      <point x="808" y="78" type="line"/>
      <point x="808" y="257" type="line"/>
      <point x="488" y="257" type="line"/>
      <point x="488" y="197" type="line"/>
    </contour>
    <contour>
      <point x="899" y="78" type="curve"/>
      <point x="899" y="257" type="line"/>
      <point x="754" y="257" type="line"/>
      <point x="754" y="175" type="line"/>
      <point x="754" y="127"/>
      <point x="796" y="78"/>
    </contour>
    <contour>
      <point x="755" y="-2" type="line"/>
      <point x="808" y="-2" type="line"/>
      <point x="808" y="455" type="line"/>
      <point x="755" y="455" type="line"/>
    </contour>
    <component base="onesuperior"/>
    <component base="fraction" xOffset="189"/>
  </outline>
</glyph>
<glyph name="threequarters" format="2">
  <advance width="944"/>
  <unicode hex="00BE"/>
  <outline>
    <contour>
      <point x="548" y="197" type="line"/>
      <point x="815" y="395" type="line"/>
      <point x="815" y="455" type="line"/>
      <point x="548" y="257" type="line"/>
    </contour>
    <contour>
      <point x="548" y="78" type="line"/>
      <point x="868" y="78" type="line"/>
      <point x="868" y="257" type="line"/>
      <point x="548" y="257" type="line"/>
      <point x="548" y="197" type="line"/>
    </contour>
    <contour>
      <point x="959" y="78" type="curve"/>
      <point x="959" y="257" type="line"/>
      <point x="814" y="257" type="line"/>
      <point x="814" y="175" type="line"/>
      <point x="814" y="127"/>
      <point x="856" y="78"/>
    </contour>
    <contour>
      <point x="815" y="-2" type="line"/>
      <point x="868" y="-2" type="line"/>
      <point x="868" y="455" type="line"/>
      <point x="815" y="455" type="line"/>
    </contour>
    <component base="fraction" xOffset="249"/>
    <component base="threesuperior"/>
  </outline>
</glyph>
<glyph name="AE" format="2">
  <advance width="843"/>
  <unicode hex="00C6"/>
  <anchor x="340" y="0" name="bottom"/>
  <anchor x="491" y="680" name="top"/>
  <outline>
    <contour>
      <point x="451" y="480" type="line"/>
      <point x="813" y="480" type="line"/>
      <point x="813" y="680" type="line"/>
      <point x="462" y="680" type="line"/>
      <point x="451" y="505" type="line"/>
    </contour>
    <contour>
      <point x="30" y="0" type="line"/>
      <point x="106" y="0"/>
      <point x="192" y="34"/>
      <point x="192" y="106" type="curve"/>
      <point x="132" y="106" type="line"/>
      <point x="132" y="34"/>
      <point x="213" y="0"/>
      <point x="294" y="0" type="curve"/>
      <point x="294" y="200" type="line"/>
      <point x="30" y="200" type="line"/>
    </contour>
    <contour>
      <point x="360" y="0" type="line"/>
      <point x="475" y="1"/>
      <point x="522" y="56"/>
      <point x="522" y="109" type="curve" smooth="yes"/>
      <point x="522" y="201" type="line"/>
      <point x="360" y="201" type="line"/>
    </contour>
    <contour>
      <point x="134" y="200" type="line"/>
      <point x="204" y="200" type="line"/>
      <point x="360" y="480" type="line"/>
      <point x="290" y="481" type="line"/>
    </contour>
    <contour>
      <point x="462" y="143" type="line"/>
      <point x="522" y="143" type="line"/>
      <point x="624" y="201" type="line"/>
      <point x="538" y="201"/>
      <point x="522" y="212"/>
      <point x="522" y="257" type="curve"/>
      <point x="462" y="257" type="line"/>
      <point x="462" y="212"/>
      <point x="446" y="201"/>
      <point x="360" y="201" type="curve"/>
    </contour>
    <contour>
      <point x="654" y="1" type="curve" smooth="yes"/>
      <point x="813" y="1" type="line"/>
      <point x="813" y="201" type="line"/>
      <point x="492" y="201" type="line"/>
      <point x="492" y="176" type="line" smooth="yes"/>
      <point x="492" y="56"/>
      <point x="509" y="1"/>
    </contour>
    <contour>
      <point x="231" y="310" type="line"/>
      <point x="701" y="310" type="line"/>
      <point x="701" y="370" type="line"/>
      <point x="231" y="370" type="line"/>
    </contour>
    <contour>
      <point x="462" y="166" type="line"/>
      <point x="522" y="166" type="line"/>
      <point x="522" y="507" type="line"/>
      <point x="462" y="507" type="line"/>
    </contour>
    <contour>
      <point x="198" y="480" type="line"/>
      <point x="462" y="480" type="line"/>
      <point x="462" y="680" type="line"/>
      <point x="381" y="680"/>
      <point x="300" y="646"/>
      <point x="300" y="574" type="curve"/>
      <point x="360" y="574" type="line"/>
      <point x="360" y="646"/>
      <point x="274" y="680"/>
      <point x="198" y="680" type="curve"/>
    </contour>
    <contour>
      <point x="462" y="424" type="curve"/>
      <point x="522" y="424" type="line"/>
      <point x="522" y="469"/>
      <point x="578" y="480"/>
      <point x="664" y="480" type="curve"/>
      <point x="522" y="538" type="line"/>
      <point x="462" y="538" type="line"/>
      <point x="360" y="480" type="line"/>
      <point x="446" y="480"/>
      <point x="462" y="469"/>
    </contour>
    <contour>
      <point x="753" y="192" type="line"/>
      <point x="813" y="192" type="line"/>
      <point x="813" y="251" type="line"/>
      <point x="753" y="251" type="line"/>
    </contour>
    <contour>
      <point x="753" y="430" type="line"/>
      <point x="813" y="430" type="line"/>
      <point x="813" y="508" type="line"/>
      <point x="753" y="508" type="line"/>
    </contour>
  </outline>
</glyph>
<glyph name="Eth" format="2">
  <advance width="580"/>
  <unicode hex="00D0"/>
  <anchor x="283" y="0" name="bottom"/>
  <anchor x="283" y="340" name="center"/>
  <anchor x="283" y="680" name="top"/>
  <outline>
    <contour>
      <point x="47" y="310" type="line"/>
      <point x="383" y="310" type="line"/>
      <point x="383" y="370" type="line"/>
      <point x="47" y="370" type="line"/>
    </contour>
    <component base="D"/>
  </outline>
</glyph>
<glyph name="multiply" format="2">
  <advance width="600"/>
  <unicode hex="00D7"/>
  <outline>
    <contour>
      <point x="179" y="-1" type="line"/>
      <point x="266" y="168" type="line"/>
      <point x="377" y="-1" type="line"/>
      <point x="539" y="160" type="line"/>
      <point x="370" y="271" type="line"/>
      <point x="539" y="358" type="line"/>
      <point x="377" y="520" type="line"/>
      <point x="290" y="350" type="line"/>
      <point x="180" y="520" type="line"/>
      <point x="17" y="358" type="line"/>
      <point x="188" y="247" type="line"/>
      <point x="18" y="160" type="line"/>
    </contour>
  </outline>
</glyph>
<glyph name="Oslash" format="2">
  <advance width="610"/>
  <unicode hex="00D8"/>
  <anchor x="280" y="0" name="bottom"/>
  <anchor x="280" y="429" name="center"/>
  <anchor x="313" y="11" name="ogonek"/>
  <anchor x="280" y="690" name="top"/>
  <anchor x="249" y="680" name="topleft"/>
  <anchor x="328" y="690" name="topright"/>
  <outline>
    <contour>
      <point x="103" y="79" type="line"/>
      <point x="180" y="79" type="line"/>
      <point x="458" y="601" type="line"/>
      <point x="381" y="602" type="line"/>
    </contour>
    <component base="O"/>
  </outline>
</glyph>
<glyph name="Thorn" format="2">
  <advance width="593"/>
  <unicode hex="00DE"/>
  <anchor x="282" y="680" name="top"/>
  <outline>
    <contour>
      <point x="362" y="197" type="curve" smooth="yes"/>
      <point x="497" y="197"/>
      <point x="563" y="271"/>
      <point x="563" y="407" type="curve" smooth="yes"/>
      <point x="563" y="541"/>
      <point x="497" y="637"/>
      <point x="362" y="637" type="curve" smooth="yes"/>
      <point x="237" y="637"/>
      <point x="166" y="566"/>
      <point x="166" y="495" type="curve" smooth="yes"/>
      <point x="166" y="445"/>
      <point x="157" y="386"/>
      <point x="151" y="355" type="curve"/>
      <point x="151" y="271"/>
      <point x="194" y="197"/>
    </contour>
    <contour>
      <point x="294" y="0" type="curve"/>
      <point x="294" y="176" type="line"/>
      <point x="208" y="176"/>
      <point x="192" y="211"/>
      <point x="192" y="246" type="curve"/>
      <point x="132" y="246" type="line"/>
      <point x="132" y="221"/>
      <point x="132" y="166"/>
      <point x="132" y="108" type="curve" smooth="yes"/>
      <point x="132" y="55"/>
      <point x="179" y="0"/>
    </contour>
    <contour>
      <point x="132" y="114" type="line"/>
      <point x="192" y="123" type="line"/>
      <point x="192" y="501" type="line"/>
      <point x="132" y="501" type="line"/>
    </contour>
    <contour>
      <point x="349" y="257" type="curve" smooth="yes"/>
      <point x="212" y="257"/>
      <point x="192" y="293"/>
      <point x="192" y="337" type="curve" smooth="yes"/>
      <point x="192" y="340"/>
      <point x="192" y="344"/>
      <point x="192" y="347" type="curve" smooth="yes"/>
      <point x="192" y="399"/>
      <point x="250" y="437"/>
      <point x="349" y="437" type="curve" smooth="yes"/>
      <point x="461" y="437"/>
      <point x="503" y="401"/>
      <point x="503" y="337" type="curve" smooth="yes"/>
      <point x="503" y="293"/>
      <point x="461" y="257"/>
    </contour>
    <contour>
      <point x="132" y="464" type="curve"/>
      <point x="192" y="464" type="line"/>
      <point x="192" y="484"/>
      <point x="192" y="513"/>
      <point x="192" y="522" type="curve" smooth="yes"/>
      <point x="192" y="665"/>
      <point x="152" y="710"/>
      <point x="30" y="710" type="curve"/>
      <point x="30" y="510" type="line"/>
      <point x="116" y="510"/>
      <point x="132" y="499"/>
    </contour>
    <component base="serif_inf_izq" xOffset="10"/>
  </outline>
</glyph>
<glyph name="germandbls" format="2">
  <advance width="653"/>
  <unicode hex="00DF"/>
  <anchor x="300" y="0" name="bottom"/>
  <anchor x="300" y="520" name="top"/>
  <outline>
    <contour>
      <point x="481" y="240" type="curve"/>
      <point x="481" y="281" type="line"/>
      <point x="365" y="280"/>
      <point x="350" y="294"/>
      <point x="350" y="308" type="curve" smooth="yes"/>
      <point x="350" y="322"/>
      <point x="365" y="330"/>
      <point x="450" y="330" type="curve" smooth="yes"/>
      <point x="552" y="330"/>
      <point x="632" y="357"/>
      <point x="632" y="538" type="curve" smooth="yes"/>
      <point x="632" y="701"/>
      <point x="572" y="749"/>
      <point x="382" y="751" type="curve" smooth="yes"/>
      <point x="188" y="753"/>
      <point x="122" y="701"/>
      <point x="122" y="538" type="curve" smooth="yes"/>
      <point x="122" y="499" type="line"/>
      <point x="182" y="499" type="line"/>
      <point x="182" y="543"/>
      <point x="208" y="551"/>
      <point x="352" y="551" type="curve" smooth="yes"/>
      <point x="551" y="551"/>
      <point x="572" y="550"/>
      <point x="572" y="537" type="curve" smooth="yes"/>
      <point x="572" y="523"/>
      <point x="551" y="521"/>
      <point x="450" y="521" type="curve" smooth="yes"/>
      <point x="337" y="521"/>
      <point x="310" y="485"/>
      <point x="310" y="388" type="curve" smooth="yes"/>
      <point x="310" y="242"/>
      <point x="337" y="240"/>
    </contour>
    <contour>
      <point x="122" y="155" type="line"/>
      <point x="182" y="155" type="line"/>
      <point x="182" y="502" type="line"/>
      <point x="122" y="502" type="line"/>
    </contour>
    <contour>
      <point x="472" y="-10" type="curve" smooth="yes"/>
      <point x="532" y="-10"/>
      <point x="633" y="37"/>
      <point x="633" y="197" type="curve" smooth="yes"/>
      <point x="633" y="251"/>
      <point x="619" y="283"/>
      <point x="462" y="281" type="curve"/>
      <point x="462" y="240" type="line"/>
      <point x="568" y="241"/>
      <point x="593" y="227"/>
      <point x="593" y="213" type="curve" smooth="yes"/>
      <point x="593" y="198"/>
      <point x="568" y="191"/>
      <point x="492" y="191" type="curve" smooth="yes"/>
      <point x="395" y="191"/>
      <point x="372" y="198"/>
      <point x="372" y="218" type="curve"/>
      <point x="321" y="218" type="line"/>
      <point x="321" y="78"/>
      <point x="380" y="-10"/>
    </contour>
    <component base="serif_inf_der"/>
    <component base="serif_inf_izq"/>
  </outline>
</glyph>
<glyph name="ae" format="2">
  <advance width="817"/>
  <unicode hex="00E6"/>
  <anchor x="407" y="0" name="bottom"/>
  <anchor x="407" y="520" name="top"/>
  <outline>
    <contour>
      <point x="583" y="-10" type="curve" smooth="yes"/>
      <point x="716" y="-10"/>
      <point x="784" y="89"/>
      <point x="784" y="212" type="curve"/>
      <point x="724" y="212" type="line"/>
      <point x="724" y="197"/>
      <point x="705" y="190"/>
      <point x="588" y="190" type="curve" smooth="yes"/>
      <point x="466" y="190"/>
      <point x="432" y="197"/>
      <point x="432" y="260" type="curve" smooth="yes"/>
      <point x="432" y="316"/>
      <point x="458" y="330"/>
      <point x="590" y="330" type="curve" smooth="yes"/>
      <point x="705" y="330"/>
      <point x="724" y="321"/>
      <point x="724" y="275" type="curve"/>
      <point x="422" y="275" type="line"/>
      <point x="422" y="245" type="line"/>
      <point x="784" y="245" type="line"/>
      <point x="784" y="430"/>
      <point x="735" y="530"/>
      <point x="583" y="530" type="curve" smooth="yes"/>
      <point x="458" y="530"/>
      <point x="382" y="412"/>
      <point x="382" y="260" type="curve" smooth="yes"/>
      <point x="382" y="128"/>
      <point x="457" y="-10"/>
    </contour>
    <contour>
      <point x="228" y="-10" type="curve" smooth="yes"/>
      <point x="357" y="-10"/>
      <point x="432" y="79"/>
      <point x="432" y="260" type="curve" smooth="yes"/>
      <point x="432" y="441"/>
      <point x="356" y="530"/>
      <point x="231" y="530" type="curve" smooth="yes"/>
      <point x="121" y="530"/>
      <point x="31" y="456"/>
      <point x="31" y="310" type="curve"/>
      <point x="91" y="310" type="line"/>
      <point x="91" y="328"/>
      <point x="140" y="330"/>
      <point x="226" y="330" type="curve" smooth="yes"/>
      <point x="373" y="330"/>
      <point x="382" y="313"/>
      <point x="382" y="260" type="curve" smooth="yes"/>
      <point x="382" y="214"/>
      <point x="373" y="190"/>
      <point x="228" y="190" type="curve" smooth="yes"/>
      <point x="95" y="190"/>
      <point x="81" y="195"/>
      <point x="81" y="215" type="curve" smooth="yes"/>
      <point x="81" y="235"/>
      <point x="95" y="245"/>
      <point x="228" y="245" type="curve" smooth="yes"/>
      <point x="402" y="245" type="line"/>
      <point x="402" y="275" type="line"/>
      <point x="228" y="275" type="line" smooth="yes"/>
      <point x="74" y="275"/>
      <point x="30" y="262"/>
      <point x="30" y="220" type="curve" smooth="yes"/>
      <point x="30" y="79"/>
      <point x="98" y="-10"/>
    </contour>
  </outline>
</glyph>
<glyph name="eth" format="2">
  <advance width="438"/>
  <unicode hex="00F0"/>
  <outline>
    <contour>
      <point x="231" y="-10" type="curve" smooth="yes"/>
      <point x="346" y="-10"/>
      <point x="418" y="100"/>
      <point x="418" y="282" type="curve"/>
      <point x="400" y="282"/>
      <point x="383" y="282"/>
      <point x="365" y="282" type="curve"/>
      <point x="365" y="431"/>
      <point x="313" y="500"/>
      <point x="201" y="500" type="curve" smooth="yes"/>
      <point x="103" y="500"/>
      <point x="37" y="420"/>
      <point x="37" y="260" type="curve" smooth="yes"/>
      <point x="37" y="100"/>
      <point x="123" y="-10"/>
    </contour>
    <contour>
      <point x="230" y="190" type="curve" smooth="yes"/>
      <point x="115" y="190"/>
      <point x="97" y="215"/>
      <point x="97" y="249" type="curve" smooth="yes"/>
      <point x="97" y="285"/>
      <point x="115" y="310"/>
      <point x="230" y="310" type="curve" smooth="yes"/>
      <point x="338" y="310"/>
      <point x="358" y="282"/>
      <point x="358" y="249" type="curve" smooth="yes"/>
      <point x="358" y="220"/>
      <point x="338" y="190"/>
    </contour>
    <contour>
      <point x="358" y="282" type="curve"/>
      <point x="418" y="282" type="line"/>
      <point x="418" y="581"/>
      <point x="331" y="734"/>
      <point x="178" y="751" type="curve"/>
      <point x="80" y="561" type="line"/>
      <point x="245" y="603"/>
      <point x="358" y="533"/>
    </contour>
    <contour>
      <point x="294" y="479" type="line"/>
      <point x="434" y="632" type="line"/>
      <point x="390" y="673" type="line"/>
      <point x="250" y="520" type="line"/>
    </contour>
  </outline>
</glyph>
<glyph name="divide" format="2">
  <advance width="600"/>
  <unicode hex="00F7"/>
  <outline>
    <contour>
      <point x="80" y="196" type="curve"/>
      <point x="561" y="196" type="line"/>
      <point x="561" y="249"/>
      <point x="536" y="271"/>
      <point x="511" y="271" type="curve"/>
      <point x="511" y="243" type="line"/>
      <point x="536" y="243"/>
      <point x="561" y="265"/>
      <point x="561" y="318" type="curve"/>
      <point x="80" y="318" type="line"/>
      <point x="80" y="265"/>
      <point x="105" y="243"/>
      <point x="130" y="243" type="curve"/>
      <point x="130" y="271" type="line"/>
      <point x="105" y="271"/>
      <point x="80" y="249"/>
    </contour>
    <component base="period" xScale="0.8" yScale="0.8" xOffset="213" yOffset="366"/>
    <component base="period" xScale="0.8" yScale="0.8" xOffset="213" yOffset="-5"/>
  </outline>
</glyph>
<glyph name="oslash" format="2">
  <advance width="472"/>
  <unicode hex="00F8"/>
  <anchor x="236" y="0" name="bottom"/>
  <anchor x="236" y="260" name="center"/>
  <anchor x="293" y="17" name="ogonek"/>
  <anchor x="234" y="520" name="top"/>
  <anchor x="236" y="520" name="topright"/>
  <outline>
    <contour>
      <point x="102" y="71" type="line"/>
      <point x="366" y="360" type="line"/>
      <point x="366" y="450" type="line"/>
      <point x="102" y="161" type="line"/>
    </contour>
    <component base="o" xOffset="-2"/>
  </outline>
</glyph>
<glyph name="thorn" format="2">
  <advance width="539"/>
  <unicode hex="00FE"/>
  <anchor x="261" y="0" name="bottom"/>
  <anchor x="261" y="520" name="top"/>
  <outline>
    <contour>
      <point x="122" y="-36" type="line"/>
      <point x="182" y="-36" type="line"/>
      <point x="182" y="591" type="line"/>
      <point x="122" y="591" type="line"/>
    </contour>
    <contour>
      <point x="122" y="504" type="curve"/>
      <point x="182" y="504" type="line"/>
      <point x="182" y="514"/>
      <point x="182" y="545"/>
      <point x="182" y="590" type="curve" smooth="yes"/>
      <point x="182" y="636"/>
      <point x="169" y="750"/>
      <point x="20" y="750" type="curve"/>
      <point x="20" y="683"/>
      <point x="20" y="617"/>
      <point x="20" y="550" type="curve"/>
      <point x="106" y="550"/>
      <point x="122" y="539"/>
    </contour>
    <component base="serif_inf_izq" yOffset="-230"/>
    <component base="serif_inf_der" yOffset="-230"/>
    <component base="aro_min" xOffset="151"/>
  </outline>
</glyph>
<glyph name="dcroat" format="2">
  <advance width="551"/>
  <unicode hex="0111"/>
  <anchor x="375.5" y="480.2" name="_center"/>
  <anchor x="269" y="0" name="bottom"/>
  <anchor x="387" y="476" name="center"/>
  <anchor x="143" y="520" name="top"/>
  <anchor x="501" y="520" name="topright"/>
  <outline>
    <contour>
      <point x="330" y="469" type="line"/>
      <point x="515" y="469" type="line"/>
      <point x="515" y="527" type="line"/>
      <point x="330" y="527" type="line"/>
    </contour>
    <component base="d"/>
  </outline>
</glyph>
<glyph name="Hbar" format="2">
  <advance width="642"/>
  <unicode hex="0126"/>
  <anchor x="321" y="0" name="bottom"/>
  <anchor x="321" y="340" name="center"/>
  <anchor x="321" y="680" name="top"/>
  <anchor x="30" y="680" name="topleft"/>
  <outline>
    <contour>
      <point x="47" y="395" type="line"/>
      <point x="595" y="395" type="line"/>
      <point x="595" y="436" type="line"/>
      <point x="47" y="436" type="line"/>
    </contour>
    <component base="H"/>
  </outline>
</glyph>
<glyph name="hbar" format="2">
  <advance width="644"/>
  <unicode hex="0127"/>
  <anchor x="163" y="276" name="_center"/>
  <anchor x="322" y="0" name="bottom"/>
  <anchor x="168" y="276" name="center"/>
  <anchor x="160" y="726" name="top"/>
  <outline>
    <contour>
      <point x="46" y="455" type="line"/>
      <point x="235" y="455" type="line"/>
      <point x="235" y="512" type="line"/>
      <point x="46" y="512" type="line"/>
    </contour>
    <component base="h"/>
  </outline>
</glyph>
<glyph name="idotless" format="2">
  <advance width="324"/>
  <unicode hex="0131"/>
  <anchor x="163" y="0" name="bottom"/>
  <anchor x="284" y="10" name="ogonek"/>
  <anchor x="163" y="520" name="top"/>
  <outline>
    <contour>
      <point x="132" y="166" type="line"/>
      <point x="192" y="166" type="line"/>
      <point x="192" y="290" type="line"/>
      <point x="132" y="290" type="line"/>
    </contour>
    <component base="serif_sup_izq" xOffset="10"/>
    <component base="serif_sup_der" xOffset="10"/>
    <component base="serif_inf_der" xOffset="10"/>
    <component base="serif_inf_izq" xOffset="10"/>
  </outline>
</glyph>
<glyph name="ij" format="2">
  <advance width="662"/>
  <unicode hex="0133"/>
  <anchor x="165" y="0" name="bottom"/>
  <anchor x="165" y="520" name="top"/>
  <outline>
    <contour>
      <point x="35" y="-230" type="line"/>
      <point x="499" y="-230"/>
      <point x="530" y="-157"/>
      <point x="530" y="110" type="curve"/>
      <point x="530" y="167" type="line"/>
      <point x="470" y="164" type="line"/>
      <point x="470" y="-14"/>
      <point x="414" y="-30"/>
      <point x="35" y="-30" type="curve"/>
    </contour>
    <contour>
      <point x="134" y="166" type="line"/>
      <point x="194" y="166" type="line"/>
      <point x="194" y="290" type="line"/>
      <point x="134" y="290" type="line"/>
    </contour>
    <contour>
      <point x="470" y="151" type="line"/>
      <point x="530" y="151" type="line"/>
      <point x="530" y="357" type="line"/>
      <point x="470" y="357" type="line"/>
    </contour>
    <component base="serif_sup_izq" xOffset="12"/>
    <component base="serif_sup_der" xOffset="12"/>
    <component base="serif_inf_der" xOffset="12"/>
    <component base="serif_inf_izq" xOffset="12"/>
    <component base="dotaccent" xOffset="44"/>
    <component base="serif_sup_izq" xOffset="348"/>
    <component base="serif_sup_der" xOffset="348"/>
    <component base="dotaccent" xOffset="380"/>
  </outline>
</glyph>
<glyph name="kgreenlandic" format="2">
  <advance width="644"/>
  <unicode hex="0138"/>
  <outline>
    <contour>
      <point x="350" y="320" type="line"/>
      <point x="614" y="320" type="line"/>
      <point x="614" y="520" type="line"/>
      <point x="539" y="520"/>
      <point x="452" y="495"/>
      <point x="452" y="404" type="curve"/>
      <point x="512" y="404" type="line"/>
      <point x="512" y="495"/>
      <point x="422" y="520"/>
      <point x="350" y="520" type="curve"/>
    </contour>
    <contour>
      <point x="133" y="227" type="line"/>
      <point x="193" y="227" type="line"/>
      <point x="193" y="459" type="line"/>
      <point x="133" y="459" type="line"/>
    </contour>
    <contour>
      <point x="350" y="0" type="line"/>
      <point x="432" y="0"/>
      <point x="520" y="29"/>
      <point x="520" y="116" type="curve"/>
      <point x="452" y="116" type="line"/>
      <point x="452" y="29"/>
      <point x="534" y="0"/>
      <point x="614" y="0" type="curve"/>
      <point x="614" y="200" type="line"/>
      <point x="350" y="200" type="line"/>
    </contour>
    <contour>
      <point x="523" y="187" type="line"/>
      <point x="523" y="198" type="line"/>
      <point x="391" y="256" type="line"/>
      <point x="173" y="296" type="line"/>
      <point x="173" y="249" type="line"/>
      <point x="391" y="209" type="line"/>
    </contour>
    <contour>
      <point x="306" y="231" type="line"/>
      <point x="376" y="231" type="line"/>
      <point x="509" y="322" type="line"/>
      <point x="458" y="322" type="line"/>
      <point x="411" y="304" type="line"/>
    </contour>
    <component base="serif_sup_der" xOffset="11"/>
    <component base="serif_sup_izq" xOffset="10"/>
    <component base="serif_inf_der" xOffset="11"/>
    <component base="serif_inf_izq" xOffset="11"/>
  </outline>
</glyph>
<glyph name="Eng" format="2">
  <advance width="713"/>
  <unicode hex="014A"/>
  <anchor x="351" y="0" name="bottom"/>
  <anchor x="344" y="680" name="top"/>
  <outline>
    <contour>
      <point x="581" y="0" type="curve"/>
      <point x="581" y="200" type="line"/>
      <point x="504" y="200"/>
      <point x="433" y="200"/>
      <point x="410" y="351" type="curve" smooth="yes"/>
      <point x="386" y="557"/>
      <point x="386" y="680"/>
      <point x="84" y="680" type="curve"/>
      <point x="84" y="480" type="line"/>
      <point x="296" y="480"/>
      <point x="333" y="476"/>
      <point x="363" y="316" type="curve" smooth="yes"/>
      <point x="402" y="59"/>
      <point x="422" y="10"/>
    </contour>
    <contour>
      <point x="414" y="-230" type="curve"/>
      <point x="539" y="-230"/>
      <point x="586" y="-132"/>
      <point x="581" y="24" type="curve"/>
      <point x="581" y="94" type="line"/>
      <point x="521" y="94" type="line"/>
      <point x="521" y="-15"/>
      <point x="496" y="-30"/>
      <point x="414" y="-30" type="curve"/>
      <point x="414" y="-97"/>
      <point x="414" y="-163"/>
    </contour>
    <contour>
      <point x="132" y="65" type="line"/>
      <point x="192" y="65" type="line"/>
      <point x="192" y="527" type="line"/>
      <point x="132" y="527" type="line"/>
    </contour>
    <contour>
      <point x="521" y="85" type="line"/>
      <point x="581" y="85" type="line"/>
      <point x="581" y="587" type="line"/>
      <point x="521" y="587" type="line"/>
    </contour>
    <component base="serif_inf_der" xOffset="10"/>
    <component base="serif_inf_izq" xOffset="10"/>
    <component base="serif_sup_izq" xOffset="399" yOffset="160"/>
    <component base="serif_sup_der" xOffset="399" yOffset="160"/>
  </outline>
</glyph>
<glyph name="eng" format="2">
  <advance width="542"/>
  <unicode hex="014B"/>
  <anchor x="315" y="0" name="bottom"/>
  <anchor x="311" y="520" name="top"/>
  <outline>
    <contour>
      <point x="132" y="274" type="curve"/>
      <point x="192" y="274" type="line"/>
      <point x="192" y="284"/>
      <point x="192" y="315"/>
      <point x="192" y="360" type="curve" smooth="yes"/>
      <point x="192" y="421"/>
      <point x="179" y="520"/>
      <point x="30" y="520" type="curve"/>
      <point x="30" y="320" type="line"/>
      <point x="116" y="320"/>
      <point x="132" y="309"/>
    </contour>
    <contour>
      <point x="339" y="-230" type="curve"/>
      <point x="464" y="-230"/>
      <point x="511" y="-132"/>
      <point x="511" y="24" type="curve"/>
      <point x="511" y="94" type="line"/>
      <point x="451" y="94" type="line"/>
      <point x="451" y="-15"/>
      <point x="421" y="-30"/>
      <point x="339" y="-30" type="curve"/>
      <point x="339" y="-97"/>
      <point x="339" y="-163"/>
    </contour>
    <contour>
      <point x="132" y="209" type="line"/>
      <point x="192" y="209" type="line"/>
      <point x="192" y="298" type="line"/>
      <point x="132" y="298" type="line"/>
    </contour>
    <contour>
      <point x="452" y="-22" type="line"/>
      <point x="512" y="11" type="line"/>
      <point x="512" y="272" type="line"/>
      <point x="452" y="272" type="line"/>
    </contour>
    <component base="serif_inf_der" xOffset="10"/>
    <component base="serif_inf_izq" xOffset="10"/>
    <component base="ataque_n" xOffset="10" yOffset="10"/>
  </outline>
</glyph>
<glyph name="OE" format="2">
  <advance width="870"/>
  <unicode hex="0152"/>
  <anchor x="275" y="0" name="bottom"/>
  <anchor x="275" y="680" name="top"/>
  <outline>
    <contour>
      <point x="290" y="-10" type="curve" smooth="yes"/>
      <point x="435" y="-10"/>
      <point x="539" y="123"/>
      <point x="539" y="338" type="curve" smooth="yes"/>
      <point x="539" y="602"/>
      <point x="435" y="689"/>
      <point x="290" y="690" type="curve" smooth="yes"/>
      <point x="145" y="691"/>
      <point x="35" y="602"/>
      <point x="35" y="338" type="curve" smooth="yes"/>
      <point x="35" y="113"/>
      <point x="145" y="-10"/>
    </contour>
    <contour>
      <point x="290" y="188" type="curve" smooth="yes"/>
      <point x="149" y="188"/>
      <point x="86" y="226"/>
      <point x="86" y="338" type="curve" smooth="yes"/>
      <point x="86" y="452"/>
      <point x="149" y="490"/>
      <point x="290" y="490" type="curve" smooth="yes"/>
      <point x="431" y="490"/>
      <point x="491" y="452"/>
      <point x="489" y="338" type="curve" smooth="yes"/>
      <point x="487" y="236"/>
      <point x="431" y="188"/>
    </contour>
    <contour>
      <point x="488" y="143" type="line"/>
      <point x="539" y="143" type="line"/>
      <point x="641" y="201" type="line"/>
      <point x="555" y="201"/>
      <point x="539" y="212"/>
      <point x="539" y="257" type="curve"/>
      <point x="488" y="257" type="line"/>
    </contour>
    <contour>
      <point x="671" y="1" type="curve" smooth="yes"/>
      <point x="840" y="1" type="line"/>
      <point x="840" y="201" type="line"/>
      <point x="489" y="201" type="line"/>
      <point x="489" y="176" type="line" smooth="yes"/>
      <point x="489" y="56"/>
      <point x="526" y="1"/>
    </contour>
    <contour>
      <point x="488" y="166" type="line"/>
      <point x="539" y="166" type="line"/>
      <point x="539" y="507" type="line"/>
      <point x="488" y="507" type="line"/>
    </contour>
    <contour>
      <point x="521" y="310" type="line"/>
      <point x="767" y="310" type="line"/>
      <point x="767" y="370" type="line"/>
      <point x="521" y="370" type="line"/>
    </contour>
    <contour>
      <point x="780" y="182" type="line"/>
      <point x="840" y="182" type="line"/>
      <point x="840" y="241" type="line"/>
      <point x="780" y="241" type="line"/>
    </contour>
    <contour>
      <point x="488" y="426" type="line"/>
      <point x="539" y="426" type="line"/>
      <point x="539" y="471"/>
      <point x="595" y="480"/>
      <point x="681" y="480" type="curve"/>
      <point x="539" y="480" type="line"/>
      <point x="488" y="480" type="line"/>
    </contour>
    <contour>
      <point x="488" y="480" type="curve"/>
      <point x="840" y="480" type="line"/>
      <point x="840" y="680" type="line"/>
      <point x="671" y="680" type="line" smooth="yes"/>
      <point x="526" y="680"/>
      <point x="488" y="605"/>
    </contour>
    <contour>
      <point x="780" y="430" type="line"/>
      <point x="840" y="430" type="line"/>
      <point x="840" y="508" type="line"/>
      <point x="780" y="508" type="line"/>
    </contour>
  </outline>
</glyph>
